<?xml version="1.0" encoding="UTF-8"?>
<svg version="1.1" xmlns="http://www.w3.org/2000/svg" width="512" height="512">
<path d="M0 0 C4.12448729 3.63368192 5.93936598 6.84841496 8 12 C8 16.29 8 20.58 8 25 C26.48 25 44.96 25 64 25 C64 21.04 64 17.08 64 13 C66.88027993 5.009546 70.32131676 0.72258168 78 -3 C84.7425435 -5.35339313 94.87183975 -5.10236468 101.625 -2.8125 C107.36356416 0.26932149 110.6956567 4.45342374 114 10 C115 14 115 14 115 25 C135.79 25 156.58 25 178 25 C178 20.71 178 16.42 178 12 C180.67792957 4.58419503 184.38788189 0.90457137 191.4375 -2.8125 C198.987951 -5.33899706 208.56057375 -5.37113363 216 -2.5 C221.22982694 0.30769537 225.46226684 4.51950574 227.875 9.98046875 C228.90693638 13.57074741 229.06597423 17.03177903 229.03515625 20.75390625 C229.02754272 21.95188843 229.02754272 21.95188843 229.01977539 23.17407227 C229.01324951 23.77662842 229.00672363 24.37918457 229 25 C229.60419769 24.99111755 230.20839539 24.98223511 230.8309021 24.9730835 C237.15816726 24.88412083 243.48525277 24.82406399 249.81298828 24.78027344 C252.16983261 24.76024268 254.52662778 24.73301008 256.88330078 24.69824219 C260.28430362 24.64934828 263.6846455 24.62694498 267.0859375 24.609375 C268.12801361 24.58872986 269.17008972 24.56808472 270.2437439 24.54681396 C280.55736838 24.54369885 289.50439602 27.76876379 297 35 C306.17451488 45.48252804 307.45219242 56.50412578 307.38095093 70.04933167 C307.38441421 71.44175979 307.38918325 72.83418516 307.39513266 74.22660488 C307.4075802 78.02485207 307.40150104 81.82287122 307.39217401 85.6211189 C307.38535812 89.72819155 307.39587724 93.83522626 307.40411377 97.94229126 C307.41742594 105.97668549 307.41458471 114.01099546 307.40587585 122.04539294 C307.39909026 128.57680256 307.39818636 135.10818862 307.4014473 141.63960075 C307.401907 142.57051987 307.40236669 143.50143899 307.40284032 144.46056778 C307.40379953 146.3519226 307.40477217 148.24327742 307.4057581 150.13463222 C307.4143045 167.8530077 307.40448939 185.57133655 307.388357 203.28970437 C307.37495229 218.48246623 307.37728463 233.67515931 307.39111328 248.86791992 C307.40717853 266.52608574 307.41348292 284.18421074 307.40427649 301.84238285 C307.40332088 303.7263269 307.40237776 305.61027095 307.4014473 307.49421501 C307.40098447 308.42106819 307.40052164 309.34792136 307.40004479 310.30286099 C307.39745791 316.82454776 307.40181935 323.34620857 307.40888596 329.86789131 C307.41731156 337.81824421 307.41499844 345.76850828 307.39904372 353.71885104 C307.39117561 357.77277447 307.38804445 361.82654995 307.39799118 365.88047218 C307.40696883 369.59569225 307.40195512 373.31062803 307.38605852 377.02582251 C307.38115105 378.99725882 307.39087963 380.96871505 307.40123022 382.94013029 C307.32017321 395.23901931 304.66995778 404.87974971 296.1484375 413.9765625 C288.47740351 421.15860628 280.12415689 424.11965978 269.69673634 424.13142776 C268.4180253 424.13526891 267.13931427 424.13911005 265.82185441 424.1430676 C264.40498398 424.1422874 262.9881136 424.14140862 261.57124329 424.14044189 C260.06437723 424.14302623 258.55751186 424.14603958 257.05064744 424.1494453 C252.90827086 424.15751055 248.76591162 424.1593046 244.62352812 424.16004276 C240.15643895 424.16189414 235.68935876 424.16944191 231.22227478 424.17617798 C221.45361716 424.18975846 211.68496364 424.19578557 201.91629815 424.20018864 C195.81632605 424.20295154 189.71635554 424.20718898 183.61638451 424.21169281 C166.72627137 424.2238851 149.8361595 424.2341845 132.94604206 424.2375679 C131.32461032 424.23789725 131.32461032 424.23789725 129.67042239 424.23823325 C128.04511858 424.23856067 128.04511858 424.23856067 126.38698035 424.2388947 C124.19133651 424.23933817 121.99569267 424.23978473 119.80004883 424.24023438 C118.16637724 424.24056652 118.16637724 424.24056652 116.49970218 424.24090537 C98.8531394 424.24485318 81.20661792 424.26230686 63.56007109 424.2855939 C45.44124403 424.30931112 27.32243769 424.32176992 9.20359486 424.32293582 C-0.96889896 424.32385237 -11.14133898 424.32959969 -21.31381798 424.34775543 C-29.97613037 424.3631614 -38.63837231 424.36827394 -47.3006958 424.36001733 C-51.71912888 424.3561126 -56.13742012 424.3570318 -60.55583572 424.37107468 C-64.60435088 424.38382408 -68.65261777 424.38260701 -72.70113263 424.37048396 C-74.16212285 424.36852877 -75.62313072 424.37159721 -77.08409616 424.38032833 C-90.49570084 424.45537539 -100.9746229 422.51784337 -110.9765625 413.1484375 C-117.99266621 405.65464162 -121.11621421 397.3745717 -121.13422108 387.15802002 C-121.14090784 385.39425632 -121.14090784 385.39425632 -121.14772969 383.59486103 C-121.14754533 382.30704322 -121.14736097 381.01922541 -121.14717102 379.69238281 C-121.15047187 378.30727377 -121.15419791 376.92216569 -121.1583125 375.53705883 C-121.16831556 371.73112171 -121.17204657 367.92520036 -121.17470181 364.11925197 C-121.17860993 360.01406992 -121.18818795 355.9089003 -121.19691467 351.8037262 C-121.21666534 341.88946057 -121.22674378 331.97519394 -121.23564246 322.06091356 C-121.24002788 317.38943446 -121.24539406 312.71795648 -121.25063133 308.04647827 C-121.26764265 292.51261124 -121.28213596 276.97874491 -121.28938007 261.44487 C-121.2912899 257.41490681 -121.29321024 253.38494363 -121.29516602 249.35498047 C-121.29564976 248.35338083 -121.2961335 247.3517812 -121.2966319 246.31983006 C-121.30492899 230.10114679 -121.33026093 213.88253735 -121.36274669 197.66388631 C-121.39584376 181.00389094 -121.41383125 164.34393306 -121.41702431 147.68390465 C-121.41918702 138.33345333 -121.42790052 128.98310966 -121.45348549 119.63269043 C-121.47522871 111.66800188 -121.48322514 103.70344714 -121.47351871 95.73873228 C-121.4689844 91.67834811 -121.47080919 87.6182398 -121.49028015 83.55789375 C-121.50798754 79.8329718 -121.50685353 76.10852539 -121.49138286 72.38359785 C-121.48790706 70.41407232 -121.50397638 68.44454135 -121.52098733 66.47508621 C-121.44055969 55.25852332 -119.46494127 44.64493695 -111.984375 35.93359375 C-104.1091904 28.25993946 -95.38078827 24.65763931 -84.47033691 24.66011047 C-83.41793823 24.67559433 -82.36553955 24.69107819 -81.28125 24.70703125 C-80.18276733 24.71127609 -79.08428467 24.71552094 -77.95251465 24.71989441 C-74.4680864 24.73659339 -70.98425139 24.77423004 -67.5 24.8125 C-65.12761256 24.82755815 -62.75521599 24.84124457 -60.3828125 24.85351562 C-54.58834164 24.88646812 -48.79421322 24.93657965 -43 25 C-43.00475845 24.38008682 -43.00951691 23.76017365 -43.01441956 23.12147522 C-43.01997108 21.90324318 -43.01997108 21.90324318 -43.02563477 20.66040039 C-43.03039322 19.85486221 -43.03515167 19.04932404 -43.04005432 18.21937561 C-42.91302223 11.18063608 -39.72132355 5.64824932 -34.92578125 0.6640625 C-25.92239204 -7.11574237 -9.66786268 -6.18020381 0 0 Z M-25.0625 12.375 C-27.98975383 15.79719084 -27.98975383 15.79719084 -27 25 C-20.4 25 -13.8 25 -7 25 C-6.30274915 16.85749865 -6.30274915 16.85749865 -8.3125 13.5 C-11.66333066 10.52148385 -15.5082031 10.64791051 -19.76953125 10.73828125 C-22.21423161 10.91189581 -22.21423161 10.91189581 -25.0625 12.375 Z M80 14 C78.57836298 17.73786479 78.57836298 17.73786479 79 25 C85.93 25 92.86 25 100 25 C100.50012544 18.24008318 100.50012544 18.24008318 98 13 C92.30192594 9.57621146 85.16649232 9.64077211 80 14 Z M194 14 C192.32917961 16.96896279 192.32917961 16.96896279 193 25 C199.6 25 206.2 25 213 25 C213.98975383 15.79719084 213.98975383 15.79719084 211.0625 12.375 C205.14454681 9.71795979 199.17744922 9.79332251 194 14 Z " fill="#E8F1F8" transform="translate(163,46)"/>
<path d="M0 0 C4.12448729 3.63368192 5.93936598 6.84841496 8 12 C8 16.29 8 20.58 8 25 C26.48 25 44.96 25 64 25 C64 21.04 64 17.08 64 13 C66.88027993 5.009546 70.32131676 0.72258168 78 -3 C84.7425435 -5.35339313 94.87183975 -5.10236468 101.625 -2.8125 C107.36356416 0.26932149 110.6956567 4.45342374 114 10 C115 14 115 14 115 25 C135.79 25 156.58 25 178 25 C178 20.71 178 16.42 178 12 C180.67792957 4.58419503 184.38788189 0.90457137 191.4375 -2.8125 C198.987951 -5.33899706 208.56057375 -5.37113363 216 -2.5 C221.22982694 0.30769537 225.46226684 4.51950574 227.875 9.98046875 C228.90693638 13.57074741 229.06597423 17.03177903 229.03515625 20.75390625 C229.02754272 21.95188843 229.02754272 21.95188843 229.01977539 23.17407227 C229.01324951 23.77662842 229.00672363 24.37918457 229 25 C229.60419769 24.99111755 230.20839539 24.98223511 230.8309021 24.9730835 C237.15816726 24.88412083 243.48525277 24.82406399 249.81298828 24.78027344 C252.16983261 24.76024268 254.52662778 24.73301008 256.88330078 24.69824219 C260.28430362 24.64934828 263.6846455 24.62694498 267.0859375 24.609375 C268.12801361 24.58872986 269.17008972 24.56808472 270.2437439 24.54681396 C280.55736838 24.54369885 289.50439602 27.76876379 297 35 C317.52687097 58.45339274 307 99.77431658 307 125 C165.76 125 24.52 125 -121 125 C-121 46.43255876 -121 46.43255876 -111.984375 35.93359375 C-104.1091904 28.25993946 -95.38078827 24.65763931 -84.47033691 24.66011047 C-83.41793823 24.67559433 -82.36553955 24.69107819 -81.28125 24.70703125 C-80.18276733 24.71127609 -79.08428467 24.71552094 -77.95251465 24.71989441 C-74.4680864 24.73659339 -70.98425139 24.77423004 -67.5 24.8125 C-65.12761256 24.82755815 -62.75521599 24.84124457 -60.3828125 24.85351562 C-54.58834164 24.88646812 -48.79421322 24.93657965 -43 25 C-43.00475845 24.38008682 -43.00951691 23.76017365 -43.01441956 23.12147522 C-43.01997108 21.90324318 -43.01997108 21.90324318 -43.02563477 20.66040039 C-43.03039322 19.85486221 -43.03515167 19.04932404 -43.04005432 18.21937561 C-42.91302223 11.18063608 -39.72132355 5.64824932 -34.92578125 0.6640625 C-25.92239204 -7.11574237 -9.66786268 -6.18020381 0 0 Z M-25.0625 12.375 C-27.98975383 15.79719084 -27.98975383 15.79719084 -27 25 C-20.4 25 -13.8 25 -7 25 C-6.30274915 16.85749865 -6.30274915 16.85749865 -8.3125 13.5 C-11.66333066 10.52148385 -15.5082031 10.64791051 -19.76953125 10.73828125 C-22.21423161 10.91189581 -22.21423161 10.91189581 -25.0625 12.375 Z M80 14 C78.57836298 17.73786479 78.57836298 17.73786479 79 25 C85.93 25 92.86 25 100 25 C100.50012544 18.24008318 100.50012544 18.24008318 98 13 C92.30192594 9.57621146 85.16649232 9.64077211 80 14 Z M194 14 C192.32917961 16.96896279 192.32917961 16.96896279 193 25 C199.6 25 206.2 25 213 25 C213.98975383 15.79719084 213.98975383 15.79719084 211.0625 12.375 C205.14454681 9.71795979 199.17744922 9.79332251 194 14 Z " fill="#FA4B35" transform="translate(163,46)"/>
<path d="M0 0 C0.33 0 0.66 0 1 0 C1.0697676 9.34527298 1.12294634 18.69045515 1.15543652 28.03593254 C1.17103675 32.37626271 1.1921708 36.7164136 1.22631836 41.05664062 C1.25911455 45.25175849 1.27689536 49.44670481 1.28463173 53.64194107 C1.29013912 55.23578717 1.30089293 56.82962477 1.31719017 58.42339706 C1.45336353 72.30287367 -0.01419815 83.47507228 -9.8515625 93.9765625 C-17.52259649 101.15860628 -25.87584311 104.11965978 -36.30326366 104.13142776 C-37.5819747 104.13526891 -38.86068573 104.13911005 -40.17814559 104.1430676 C-41.59501602 104.1422874 -43.0118864 104.14140862 -44.42875671 104.14044189 C-45.93562277 104.14302623 -47.44248814 104.14603958 -48.94935256 104.1494453 C-53.09172914 104.15751055 -57.23408838 104.1593046 -61.37647188 104.16004276 C-65.84356105 104.16189414 -70.31064124 104.16944191 -74.77772522 104.17617798 C-84.54638284 104.18975846 -94.31503636 104.19578557 -104.08370185 104.20018864 C-110.18367395 104.20295154 -116.28364446 104.20718898 -122.38361549 104.21169281 C-139.27372863 104.2238851 -156.1638405 104.2341845 -173.05395794 104.2375679 C-174.67538968 104.23789725 -174.67538968 104.23789725 -176.32957761 104.23823325 C-177.95488142 104.23856067 -177.95488142 104.23856067 -179.61301965 104.2388947 C-181.80866349 104.23933817 -184.00430733 104.23978473 -186.19995117 104.24023438 C-187.83362276 104.24056652 -187.83362276 104.24056652 -189.50029782 104.24090537 C-207.1468606 104.24485318 -224.79338208 104.26230686 -242.43992891 104.2855939 C-260.55875597 104.30931112 -278.67756231 104.32176992 -296.79640514 104.32293582 C-306.96889896 104.32385237 -317.14133898 104.32959969 -327.31381798 104.34775543 C-335.97613037 104.3631614 -344.63837231 104.36827394 -353.3006958 104.36001733 C-357.71912888 104.3561126 -362.13742012 104.3570318 -366.55583572 104.37107468 C-370.60435088 104.38382408 -374.65261777 104.38260701 -378.70113263 104.37048396 C-380.16212285 104.36852877 -381.62313072 104.37159721 -383.08409616 104.38032833 C-396.49570084 104.45537539 -406.9746229 102.51784337 -416.9765625 93.1484375 C-424.42164266 85.19645826 -427.1434873 76.71951441 -427.09765625 65.94921875 C-427.0962413 65.29041214 -427.09482635 64.63160553 -427.09336853 63.95283508 C-427.087805 61.86434238 -427.07525947 59.77595989 -427.0625 57.6875 C-427.05748028 56.26497551 -427.0529182 54.84244934 -427.04882812 53.41992188 C-427.03784757 49.94657923 -427.02060835 46.47330039 -427 43 C-425.36207198 46.20853805 -424.04499218 49.44983698 -422.75 52.8125 C-418.79532473 62.24640652 -413.37542945 67.71067463 -404 72 C-397.11586989 74.10374636 -390.48050224 74.46698576 -383.31155396 74.73846436 C-382.04202657 74.79238508 -380.77249918 74.84630579 -379.46450126 74.90186048 C-375.95446257 75.04940977 -372.44405095 75.18476367 -368.93340182 75.31690073 C-366.68469807 75.4022332 -364.43613554 75.49067936 -362.18758392 75.57992554 C-333.48247266 76.71388283 -304.76855308 77.41640277 -276.04640407 77.9462692 C-271.32694483 78.03344896 -266.60754844 78.12367847 -261.88818359 78.21582031 C-260.94914062 78.23410028 -260.01009765 78.25238025 -259.04259883 78.27121416 C-244.92325789 78.55342541 -230.82399493 79.06135396 -216.71630859 79.69238281 C-194.94109161 80.65384163 -173.18040024 81.26200252 -151.3828125 81.296875 C-150.50563682 81.29902 -149.62846114 81.301165 -148.72470438 81.30337501 C-104.90927182 81.36177294 -69.04451247 79.47170818 -36.31588745 47.18829346 C-23.23174758 33.63025777 -11.79805905 18.74161522 -1.81843376 2.77736282 C-1.21835062 1.86083309 -0.61826748 0.94430336 0 0 Z " fill="#B9D3E4" transform="translate(469,366)"/>
<path d="M0 0 C0.33 0 0.66 0 1 0 C3.18496205 14.37148027 -3.21789139 22.90208901 -11.35858274 34.0522182 C-32.40712879 62.26561943 -57.68788896 87.90469952 -93.60873295 93.4077258 C-112.89334434 96.12056894 -132.40382463 96.47690002 -151.84765625 96.46484375 C-152.72891755 96.46464881 -153.61017884 96.46445386 -154.51814502 96.46425301 C-176.47745717 96.43636144 -198.4012174 95.72974479 -220.3366106 94.75299545 C-234.53558701 94.12088173 -248.72711541 93.68383633 -262.93774414 93.42163086 C-264.35138655 93.39546689 -264.35138655 93.39546689 -265.79358739 93.36877435 C-269.58425688 93.29933682 -273.3749467 93.23120297 -277.16567004 93.16476935 C-306.80385031 92.64460577 -336.43515914 91.92195596 -366.05447471 90.73257363 C-368.28538872 90.64535656 -370.51644681 90.56476141 -372.74768066 90.4861908 C-376.83350477 90.34121764 -380.91741187 90.165649 -385.00184631 89.98570251 C-386.18222617 89.9461949 -387.36260602 89.90668729 -388.57875496 89.86598247 C-400.08611598 89.29998192 -409.72791427 85.73668468 -417.6875 77.1875 C-424.19409678 69.11932 -427.1574133 60.00063693 -427.0625 49.75 C-427.05347656 48.48671875 -427.04445313 47.2234375 -427.03515625 45.921875 C-427.02355469 44.95765625 -427.01195312 43.9934375 -427 43 C-425.32580441 46.18858159 -424.04347219 49.45378389 -422.75 52.8125 C-418.79532473 62.24640652 -413.37542945 67.71067463 -404 72 C-397.11586989 74.10374636 -390.48050224 74.46698576 -383.31155396 74.73846436 C-382.04202657 74.79238508 -380.77249918 74.84630579 -379.46450126 74.90186048 C-375.95446257 75.04940977 -372.44405095 75.18476367 -368.93340182 75.31690073 C-366.68469807 75.4022332 -364.43613554 75.49067936 -362.18758392 75.57992554 C-333.48247266 76.71388283 -304.76855308 77.41640277 -276.04640407 77.9462692 C-271.32694483 78.03344896 -266.60754844 78.12367847 -261.88818359 78.21582031 C-260.94914062 78.23410028 -260.01009765 78.25238025 -259.04259883 78.27121416 C-244.92325789 78.55342541 -230.82399493 79.06135396 -216.71630859 79.69238281 C-194.94109161 80.65384163 -173.18040024 81.26200252 -151.3828125 81.296875 C-150.50563682 81.29902 -149.62846114 81.301165 -148.72470438 81.30337501 C-104.90927182 81.36177294 -69.04451247 79.47170818 -36.31588745 47.18829346 C-23.23174758 33.63025777 -11.79805905 18.74161522 -1.81843376 2.77736282 C-1.21835062 1.86083309 -0.61826748 0.94430336 0 0 Z " fill="#97C0DD" transform="translate(469,366)"/>
<path d="M0 0 C1.047892 -0.00619858 2.095784 -0.01239716 3.1754303 -0.01878357 C5.3903002 -0.0258836 7.60522346 -0.02270459 9.82006836 -0.01000977 C13.20721843 0.00384311 16.59159946 -0.03019902 19.97851562 -0.06835938 C22.13151109 -0.06931069 24.28451002 -0.06745107 26.4375 -0.0625 C27.44908676 -0.07575821 28.46067352 -0.08901642 29.50291443 -0.10267639 C33.91778847 -0.04429118 36.58297424 0.14614646 40.42163086 2.44360352 C43.13910175 6.99740544 43.00273069 10.94399371 42.94921875 16.16015625 C42.95400238 17.18443726 42.95878601 18.20871826 42.9637146 19.26403809 C42.96711139 21.42587829 42.95792453 23.58777 42.93701172 25.74951172 C42.91024432 29.05552885 42.93676842 32.35815078 42.96875 35.6640625 C42.96544586 37.76693457 42.95903956 39.86980452 42.94921875 41.97265625 C42.9593399 42.95923218 42.96946106 43.94580811 42.97988892 44.96228027 C42.90583523 49.30594306 42.67742787 51.90905708 40.42163086 55.68920898 C35.79751659 58.45676675 31.73547726 58.26474964 26.4375 58.1953125 C24.86422691 58.19893044 24.86422691 58.19893044 23.25917053 58.20262146 C21.04603283 58.20164357 18.8328705 58.1882639 16.61987305 58.16333008 C13.23076453 58.12898841 9.84425869 58.14268361 6.45507812 58.16210938 C4.30337431 58.15521183 2.15167723 58.14554028 0 58.1328125 C-1.01361099 58.13777237 -2.02722198 58.14273224 -3.07154846 58.14784241 C-6.95693836 58.0827003 -9.86624848 58.00088011 -13.35131836 56.21655273 C-15.60219879 51.84174395 -15.28387181 47.44358498 -15.24609375 42.59765625 C-15.24992065 41.52519653 -15.25374756 40.45273682 -15.25769043 39.34777832 C-15.26041091 37.08161479 -15.25304028 34.81541994 -15.23632812 32.54931641 C-15.21492169 29.07904097 -15.2361265 25.61083598 -15.26171875 22.140625 C-15.2590755 19.93879751 -15.25395058 17.73697131 -15.24609375 15.53515625 C-15.25419067 14.49653442 -15.2622876 13.4579126 -15.27062988 12.38781738 C-15.21913965 8.43557205 -15.17388884 5.4586058 -13.35131836 1.91625977 C-9.04634291 -0.28785258 -4.76693009 -0.02332586 0 0 Z " fill="#68AAE6" transform="translate(384.71484375,205.43359375)"/>
<path d="M0 0 C1.02428101 -0.00241196 2.04856201 -0.00482391 3.10388184 -0.00730896 C5.26574583 -0.00633109 7.42763505 0.00704816 9.58935547 0.03198242 C12.89507259 0.06629025 16.19811592 0.05263737 19.50390625 0.03320312 C21.60678219 0.04010177 23.70965125 0.04977432 25.8125 0.0625 C26.79907593 0.05754013 27.78565186 0.05258026 28.80212402 0.04747009 C32.82994954 0.11646826 35.80721128 0.36996753 39.52905273 1.97875977 C42.54837256 6.24130583 42.10022215 10.50052264 42.03515625 15.59765625 C42.03756821 16.67011597 42.03998016 17.74257568 42.04246521 18.84753418 C42.04148624 21.11372579 42.02808083 23.37994115 42.00317383 25.64599609 C41.96887375 29.11638562 41.98251147 32.58422848 42.00195312 36.0546875 C41.99505462 38.25652127 41.98538221 40.45834845 41.97265625 42.66015625 C41.97761612 43.69877808 41.98257599 44.7373999 41.98768616 45.80749512 C41.92319364 49.74881848 41.85892759 52.74017135 40.05639648 56.27905273 C35.67899119 58.50868644 31.27858642 58.21843079 26.4375 58.1953125 C24.82881042 58.20461037 24.82881042 58.20461037 23.18762207 58.21409607 C20.92147733 58.22119606 18.65528046 58.21801717 16.38916016 58.20532227 C12.91862212 58.19145568 9.45077905 58.22552848 5.98046875 58.26367188 C3.77864517 58.26462304 1.57681821 58.26276438 -0.625 58.2578125 C-2.18293274 58.27769981 -2.18293274 58.27769981 -3.77233887 58.29798889 C-10.77723364 58.20727514 -10.77723364 58.20727514 -14.24389648 55.75170898 C-16.22488017 51.16882557 -16.185024 46.9816412 -16.16015625 42.03515625 C-16.16635483 41.01087524 -16.17255341 39.98659424 -16.17893982 38.93127441 C-16.18603182 36.76945952 -16.18287485 34.60758995 -16.17016602 32.44580078 C-16.15629624 29.13992806 -16.19038694 25.83688395 -16.22851562 22.53125 C-16.22946681 20.42838472 -16.22760802 18.32551591 -16.22265625 16.22265625 C-16.23591446 15.23608032 -16.24917267 14.24950439 -16.26283264 13.23303223 C-16.2037568 8.8755184 -15.99268727 6.29255648 -13.71655273 2.50610352 C-9.16105919 -0.23232115 -5.225485 -0.07022326 0 0 Z " fill="#5FD3F2" transform="translate(100.59375,276.37109375)"/>
<path d="M0 0 C1.02428101 -0.00241196 2.04856201 -0.00482391 3.10388184 -0.00730896 C5.26574583 -0.00633109 7.42763505 0.00704816 9.58935547 0.03198242 C12.89507259 0.06629025 16.19811592 0.05263737 19.50390625 0.03320312 C21.60678219 0.04010177 23.70965125 0.04977432 25.8125 0.0625 C26.79907593 0.05754013 27.78565186 0.05258026 28.80212402 0.04747009 C32.82994954 0.11646826 35.80721128 0.36996753 39.52905273 1.97875977 C42.54837256 6.24130583 42.10022215 10.50052264 42.03515625 15.59765625 C42.03756821 16.67011597 42.03998016 17.74257568 42.04246521 18.84753418 C42.04148624 21.11372579 42.02808083 23.37994115 42.00317383 25.64599609 C41.96887375 29.11638562 41.98251147 32.58422848 42.00195312 36.0546875 C41.99505462 38.25652127 41.98538221 40.45834845 41.97265625 42.66015625 C41.97761612 43.69877808 41.98257599 44.7373999 41.98768616 45.80749512 C41.92319364 49.74881848 41.85892759 52.74017135 40.05639648 56.27905273 C35.67899119 58.50868644 31.27858642 58.21843079 26.4375 58.1953125 C24.82881042 58.20461037 24.82881042 58.20461037 23.18762207 58.21409607 C20.92147733 58.22119606 18.65528046 58.21801717 16.38916016 58.20532227 C12.91862212 58.19145568 9.45077905 58.22552848 5.98046875 58.26367188 C3.77864517 58.26462304 1.57681821 58.26276438 -0.625 58.2578125 C-2.18293274 58.27769981 -2.18293274 58.27769981 -3.77233887 58.29798889 C-10.77723364 58.20727514 -10.77723364 58.20727514 -14.24389648 55.75170898 C-16.22488017 51.16882557 -16.185024 46.9816412 -16.16015625 42.03515625 C-16.16635483 41.01087524 -16.17255341 39.98659424 -16.17893982 38.93127441 C-16.18603182 36.76945952 -16.18287485 34.60758995 -16.17016602 32.44580078 C-16.15629624 29.13992806 -16.19038694 25.83688395 -16.22851562 22.53125 C-16.22946681 20.42838472 -16.22760802 18.32551591 -16.22265625 16.22265625 C-16.23591446 15.23608032 -16.24917267 14.24950439 -16.26283264 13.23303223 C-16.2037568 8.8755184 -15.99268727 6.29255648 -13.71655273 2.50610352 C-9.16105919 -0.23232115 -5.225485 -0.07022326 0 0 Z " fill="#BAD4E5" transform="translate(100.59375,347.37109375)"/>
<path d="M0 0 C1.02428101 -0.00241196 2.04856201 -0.00482391 3.10388184 -0.00730896 C5.26574583 -0.00633109 7.42763505 0.00704816 9.58935547 0.03198242 C12.89507259 0.06629025 16.19811592 0.05263737 19.50390625 0.03320312 C21.60678219 0.04010177 23.70965125 0.04977432 25.8125 0.0625 C26.79907593 0.05754013 27.78565186 0.05258026 28.80212402 0.04747009 C32.82994954 0.11646826 35.80721128 0.36996753 39.52905273 1.97875977 C42.54837256 6.24130583 42.10022215 10.50052264 42.03515625 15.59765625 C42.03756821 16.67011597 42.03998016 17.74257568 42.04246521 18.84753418 C42.04148624 21.11372579 42.02808083 23.37994115 42.00317383 25.64599609 C41.96887375 29.11638562 41.98251147 32.58422848 42.00195312 36.0546875 C41.99505462 38.25652127 41.98538221 40.45834845 41.97265625 42.66015625 C41.97761612 43.69877808 41.98257599 44.7373999 41.98768616 45.80749512 C41.92319364 49.74881848 41.85892759 52.74017135 40.05639648 56.27905273 C35.67899119 58.50868644 31.27858642 58.21843079 26.4375 58.1953125 C24.82881042 58.20461037 24.82881042 58.20461037 23.18762207 58.21409607 C20.92147733 58.22119606 18.65528046 58.21801717 16.38916016 58.20532227 C12.91862212 58.19145568 9.45077905 58.22552848 5.98046875 58.26367188 C3.77864517 58.26462304 1.57681821 58.26276438 -0.625 58.2578125 C-2.18293274 58.27769981 -2.18293274 58.27769981 -3.77233887 58.29798889 C-10.77723364 58.20727514 -10.77723364 58.20727514 -14.24389648 55.75170898 C-16.22488017 51.16882557 -16.185024 46.9816412 -16.16015625 42.03515625 C-16.16635483 41.01087524 -16.17255341 39.98659424 -16.17893982 38.93127441 C-16.18603182 36.76945952 -16.18287485 34.60758995 -16.17016602 32.44580078 C-16.15629624 29.13992806 -16.19038694 25.83688395 -16.22851562 22.53125 C-16.22946681 20.42838472 -16.22760802 18.32551591 -16.22265625 16.22265625 C-16.23591446 15.23608032 -16.24917267 14.24950439 -16.26283264 13.23303223 C-16.2037568 8.8755184 -15.99268727 6.29255648 -13.71655273 2.50610352 C-9.16105919 -0.23232115 -5.225485 -0.07022326 0 0 Z " fill="#BAD4E5" transform="translate(171.59375,276.37109375)"/>
<path d="M0 0 C1.02806763 0.00091644 2.05613525 0.00183289 3.11535645 0.0027771 C5.28740052 0.00881491 7.4594362 0.02456619 9.63134766 0.04931641 C12.95636674 0.08580162 16.28027047 0.09033586 19.60546875 0.08984375 C21.71615546 0.09967589 23.82683463 0.11133332 25.9375 0.125 C26.93237427 0.12722565 27.92724854 0.12945129 28.95227051 0.13174438 C30.34391418 0.15088394 30.34391418 0.15088394 31.76367188 0.17041016 C32.9846759 0.18184555 32.9846759 0.18184555 34.23034668 0.19351196 C36.75581782 0.49523394 38.32857929 1.09409769 40.46875 2.4609375 C42.57229635 5.61625703 42.72788215 6.42417665 42.77514648 10.03662109 C42.79113388 10.96123138 42.80712128 11.88584167 42.82359314 12.83847046 C42.82895584 13.83536896 42.83431854 14.83226746 42.83984375 15.859375 C42.85338646 17.40004135 42.85338646 17.40004135 42.86720276 18.97183228 C42.88171559 21.14557984 42.89059455 23.31937119 42.89428711 25.49316406 C42.90618046 28.81650534 42.95535488 32.13798837 43.00585938 35.4609375 C43.01532385 37.5729076 43.02255877 39.68488911 43.02734375 41.796875 C43.04687607 42.78972504 43.06640839 43.78257507 43.08653259 44.80551147 C43.05800187 49.17551045 42.87340553 51.77947119 40.61181641 55.58813477 C35.98229271 58.3466462 31.91984185 58.15929099 26.62109375 58.08984375 C25.04782066 58.09346169 25.04782066 58.09346169 23.44276428 58.09715271 C21.22962658 58.09617482 19.01646425 58.08279515 16.8034668 58.05786133 C13.41435828 58.02351966 10.02785244 58.03721486 6.63867188 58.05664062 C4.48696806 58.04974308 2.33527098 58.04007153 0.18359375 58.02734375 C-0.83001724 58.03230362 -1.84362823 58.03726349 -2.88795471 58.04237366 C-6.77334461 57.97723155 -9.68265473 57.89541136 -13.16772461 56.11108398 C-15.41860504 51.7362752 -15.10027806 47.33811623 -15.0625 42.4921875 C-15.0663269 41.41972778 -15.07015381 40.34726807 -15.07409668 39.24230957 C-15.07681716 36.97614604 -15.06944653 34.70995119 -15.05273438 32.44384766 C-15.03132794 28.97357222 -15.05253275 25.50536723 -15.078125 22.03515625 C-15.07548175 19.83332876 -15.07035683 17.63150256 -15.0625 15.4296875 C-15.07059692 14.39106567 -15.07869385 13.35244385 -15.08703613 12.28234863 C-15.035428 8.32105359 -14.99175796 5.35071867 -13.15625 1.80419922 C-8.89832279 -0.37466197 -4.7114945 -0.06805789 0 0 Z " fill="#68AAE6" transform="translate(313.53125,205.5390625)"/>
<path d="M0 0 C1.3569976 -0.01925285 1.3569976 -0.01925285 2.7414093 -0.03889465 C3.72159531 -0.04628159 4.70178131 -0.05366852 5.71166992 -0.0612793 C7.22116463 -0.07338692 7.22116463 -0.07338692 8.76115417 -0.08573914 C10.89381179 -0.09958522 13.02649161 -0.11030502 15.15917969 -0.11816406 C18.41864087 -0.13537398 21.67708714 -0.17925558 24.9362793 -0.22338867 C27.00723537 -0.23351572 29.07820008 -0.24203178 31.14916992 -0.2487793 C32.12328323 -0.26628738 33.09739655 -0.28379547 34.10102844 -0.30183411 C38.11640482 -0.28898324 41.03080122 -0.08074872 44.74536133 1.51806641 C47.7703049 5.78661531 47.32371602 10.04037698 47.25854492 15.14575195 C47.26095688 16.21821167 47.26336884 17.29067139 47.26585388 18.39562988 C47.26487491 20.66182149 47.2514695 22.92803686 47.2265625 25.1940918 C47.19226242 28.66448133 47.20590014 32.13232418 47.2253418 35.6027832 C47.21844329 37.80461697 47.20877088 40.00644416 47.19604492 42.20825195 C47.20100479 43.24687378 47.20596466 44.28549561 47.21107483 45.35559082 C47.14658231 49.29691418 47.08231627 52.28826705 45.27978516 55.82714844 C40.90237986 58.05678214 36.50197509 57.76652649 31.66088867 57.7434082 C30.0521991 57.75270607 30.0521991 57.75270607 28.41101074 57.76219177 C26.14486601 57.76929177 23.87866913 57.76611287 21.61254883 57.75341797 C18.1420108 57.73955139 14.67416772 57.77362419 11.20385742 57.81176758 C9.00203384 57.81271875 6.80020689 57.81086008 4.59838867 57.8059082 C3.04045593 57.82579552 3.04045593 57.82579552 1.4510498 57.84608459 C-5.55917347 57.75530184 -5.55917347 57.75530184 -9.02270508 55.28613281 C-10.98182384 50.76631807 -10.94256744 46.68168879 -10.90161133 41.80200195 C-10.90543823 40.79991699 -10.90926514 39.79783203 -10.91320801 38.76538086 C-10.91592515 36.65062452 -10.9085779 34.53583447 -10.8918457 32.42114258 C-10.87043388 29.18795701 -10.89165476 25.95699357 -10.91723633 22.72387695 C-10.91459302 20.66658039 -10.90946797 18.60928521 -10.90161133 16.55200195 C-10.90970825 15.5872998 -10.91780518 14.62259766 -10.92614746 13.62866211 C-10.86572455 9.29442795 -10.78253903 6.84357388 -8.4621582 3.09106445 C-5.50563005 0.38574458 -3.90557763 0.04819996 0 0 Z " fill="#BAD4E5" transform="translate(166.370361328125,347.822998046875)"/>
<path d="M0 0 C1.49956993 -0.00929787 1.49956993 -0.00929787 3.0294342 -0.01878357 C5.13997424 -0.02587542 7.2505703 -0.02271886 9.36108398 -0.01000977 C12.5835715 0.00384569 15.80314867 -0.03021323 19.02539062 -0.06835938 C21.07942779 -0.06931072 23.13346858 -0.06745092 25.1875 -0.0625 C26.14704086 -0.07575821 27.10658173 -0.08901642 28.09519958 -0.10267639 C32.24314082 -0.04519216 35.73991639 0.10640668 39.26708984 2.44360352 C42.71906728 6.94821924 42.50766467 10.62190314 42.421875 16.16015625 C42.42524368 17.18443726 42.42861237 18.20871826 42.43208313 19.26403809 C42.43178462 21.4259138 42.41656741 23.58783206 42.38745117 25.74951172 C42.34778496 29.05567799 42.36674434 32.35783051 42.39257812 35.6640625 C42.38501863 37.76694262 42.37406479 39.86981385 42.359375 41.97265625 C42.36985115 43.45252014 42.36985115 43.45252014 42.38053894 44.96228027 C42.29138898 49.30256633 42.05024443 51.91348583 39.79443359 55.68920898 C35.17192993 58.4577423 31.10947883 58.26473655 25.8125 58.1953125 C24.23922691 58.19893044 24.23922691 58.19893044 22.63417053 58.20262146 C20.42103283 58.20164357 18.2078705 58.1882639 15.99487305 58.16333008 C12.60576453 58.12898841 9.21925869 58.14268361 5.83007812 58.16210938 C3.67837431 58.15521183 1.52667723 58.14554028 -0.625 58.1328125 C-1.63861099 58.13777237 -2.65222198 58.14273224 -3.69654846 58.14784241 C-7.58114644 58.08271358 -10.49031914 58.00171872 -13.97412109 56.21655273 C-16.22761427 51.84371247 -15.92939374 47.44407225 -15.90625 42.59765625 C-15.91244858 41.52519653 -15.91864716 40.45273682 -15.92503357 39.34777832 C-15.93213356 37.08163358 -15.92895467 34.81543671 -15.91625977 32.54931641 C-15.90239318 29.07877837 -15.93646598 25.6109353 -15.97460938 22.140625 C-15.97556054 19.93880142 -15.97370188 17.73697446 -15.96875 15.53515625 C-15.98200821 14.49653442 -15.99526642 13.4579126 -16.00892639 12.38781738 C-15.91812236 5.37595156 -15.91812236 5.37595156 -13.44677734 1.91625977 C-8.94083564 -0.04141363 -4.86748404 -0.02510707 0 0 Z " fill="#BAD4E5" transform="translate(314.33984375,276.43359375)"/>
<path d="M0 0 C1.00208496 -0.0038269 2.00416992 -0.00765381 3.03662109 -0.01159668 C5.15137743 -0.01431382 7.26616749 -0.00696657 9.38085938 0.00976562 C12.61404494 0.03117745 15.84500838 0.00995657 19.078125 -0.015625 C21.13542156 -0.01298169 23.19271674 -0.00785665 25.25 0 C26.21470215 -0.00809692 27.1794043 -0.01619385 28.17333984 -0.02453613 C32.14442321 0.03082415 35.06097346 0.2898215 38.73632812 1.86303711 C41.80098836 6.19262238 41.29848268 10.58129753 41.21875 15.75390625 C41.21879028 16.85093369 41.21883057 17.94796112 41.21887207 19.07823181 C41.21351346 21.39571873 41.19591641 23.71320497 41.16699219 26.03051758 C41.12511421 29.58405867 41.12592492 33.13570677 41.1328125 36.68945312 C41.12232115 38.94011738 41.10938335 41.19077184 41.09375 43.44140625 C41.09354858 44.50706314 41.09334717 45.57272003 41.09313965 46.67066956 C41.07722778 47.65856979 41.06131592 48.64647003 41.04492188 49.66430664 C41.03650269 50.53382462 41.0280835 51.40334259 41.01940918 52.29920959 C40.625 54.53125 40.625 54.53125 39.40393066 56.31117249 C37.06347776 57.91636937 35.57095901 57.91169561 32.7421875 57.91943359 C31.75105957 57.92889008 30.75993164 57.93834656 29.73876953 57.9480896 C28.66997559 57.94201691 27.60118164 57.93594421 26.5 57.9296875 C24.85233643 57.93399277 24.85233643 57.93399277 23.17138672 57.93838501 C20.84797653 57.94042736 18.52454922 57.93488563 16.20117188 57.92236328 C12.63893288 57.90631278 9.07782858 57.92220698 5.515625 57.94140625 C3.26041415 57.93942385 1.00520402 57.93558024 -1.25 57.9296875 C-2.31879395 57.93576019 -3.38758789 57.94183289 -4.48876953 57.9480896 C-5.47989746 57.93863312 -6.47102539 57.92917664 -7.4921875 57.91943359 C-8.36472168 57.91704681 -9.23725586 57.91466003 -10.13623047 57.91220093 C-12.375 57.53125 -12.375 57.53125 -14.15393066 56.31117249 C-15.75397107 53.97883327 -15.76762071 52.48391978 -15.79492188 49.66430664 C-15.81083374 48.6764064 -15.82674561 47.68850616 -15.84313965 46.67066956 C-15.84334106 45.60501266 -15.84354248 44.53935577 -15.84375 43.44140625 C-15.85136353 42.34533554 -15.85897705 41.24926483 -15.86682129 40.11997986 C-15.87763204 37.80079427 -15.88047146 35.48155995 -15.87597656 33.16235352 C-15.87500463 29.61066609 -15.91660996 26.06114074 -15.9609375 22.50976562 C-15.96614457 20.25781701 -15.96883269 18.00586088 -15.96875 15.75390625 C-15.98514526 14.69027359 -16.00154053 13.62664093 -16.01843262 12.53077698 C-15.95096166 5.3449373 -15.95096166 5.3449373 -13.48632812 1.86303711 C-8.964071 -0.0726905 -4.87392944 -0.04090779 0 0 Z " fill="#BAD4E5" transform="translate(243.375,347.46875)"/>
<path d="M0 0 C1.02569595 -0.0038269 2.05139191 -0.00765381 3.10816956 -0.01159668 C5.27598045 -0.01431697 7.4438241 -0.00694768 9.61157227 0.00976562 C12.92603999 0.03115086 16.23833459 0.00997833 19.55273438 -0.015625 C21.66016103 -0.01298132 23.76758633 -0.0078555 25.875 0 C26.86471298 -0.00809692 27.85442596 -0.01619385 28.87413025 -0.02453613 C32.90438624 0.03024103 35.89740046 0.27277429 39.62890625 1.86303711 C42.67298642 6.19490588 42.19720486 10.58806409 42.1328125 15.75390625 C42.13522446 16.85093369 42.13763641 17.94796112 42.14012146 19.07823181 C42.13914249 21.3956972 42.12573726 23.71318583 42.10083008 26.03051758 C42.06649754 29.58430064 42.08017598 33.13560161 42.09960938 36.68945312 C42.09271192 38.94011478 42.08304046 41.19077001 42.0703125 43.44140625 C42.07527237 44.50706314 42.08023224 45.57272003 42.08534241 46.67066956 C42.06158791 48.15251991 42.06158791 48.15251991 42.03735352 49.66430664 C42.03115494 50.53382462 42.02495636 51.40334259 42.01856995 52.29920959 C41.50390625 54.53125 41.50390625 54.53125 39.77709961 56.31117249 C37.15868849 57.71653667 35.55829919 57.91114982 32.59936523 57.91943359 C31.14281776 57.93361832 31.14281776 57.93361832 29.65684509 57.9480896 C28.61508621 57.94201691 27.57332733 57.93594421 26.5 57.9296875 C24.88775291 57.93399277 24.88775291 57.93399277 23.24293518 57.93838501 C20.97257968 57.9404252 18.70220658 57.9348985 16.43188477 57.92236328 C12.95093653 57.906294 9.47114671 57.92222225 5.99023438 57.94140625 C3.78515368 57.93942412 1.58007371 57.93558107 -0.625 57.9296875 C-2.19067467 57.93879654 -2.19067467 57.93879654 -3.78797913 57.9480896 C-5.23979836 57.93390488 -5.23979836 57.93390488 -6.72094727 57.91943359 C-7.57270035 57.91704681 -8.42445343 57.91466003 -9.30201721 57.91220093 C-11.49609375 57.53125 -11.49609375 57.53125 -13.26928711 56.31117249 C-14.87849051 53.97644653 -14.88258454 52.490602 -14.90014648 49.66430664 C-14.91283066 48.6764064 -14.92551483 47.68850616 -14.93858337 46.67066956 C-14.93564774 45.60501266 -14.9327121 44.53935577 -14.9296875 43.44140625 C-14.93492935 42.34533554 -14.9401712 41.24926483 -14.9455719 40.11997986 C-14.95199856 37.8007797 -14.95064682 35.48154697 -14.94213867 33.16235352 C-14.93363482 29.61090083 -14.96237328 26.06105906 -14.99414062 22.50976562 C-14.99575282 20.25781298 -14.99517476 18.00585749 -14.9921875 15.75390625 C-15.00342148 14.69027359 -15.01465546 13.62664093 -15.02622986 12.53077698 C-14.95901218 5.42955175 -14.95901218 5.42955175 -13.12109375 1.86303711 C-8.87209966 -0.29267929 -4.69715374 -0.03834937 0 0 Z " fill="#BAD4E5" transform="translate(242.49609375,276.46875)"/>
<path d="M0 0 C1.05026367 -0.0038269 2.10052734 -0.00765381 3.18261719 -0.01159668 C5.40170247 -0.01431696 7.62081974 -0.00694777 9.83984375 0.00976562 C13.23770595 0.03117255 16.63345361 0.00996675 20.03125 -0.015625 C22.18750467 -0.01298175 24.34375802 -0.00785682 26.5 0 C27.51674805 -0.00809692 28.53349609 -0.01619385 29.58105469 -0.02453613 C33.47647807 0.02728585 36.39260659 0.09335107 39.88867188 1.87890625 C42.13522553 6.25597923 41.81903112 10.65367832 41.78125 15.5 C41.7850769 16.57245972 41.78890381 17.64491943 41.79284668 18.74987793 C41.79556716 21.01604146 41.78819653 23.28223631 41.77148438 25.54833984 C41.75007794 29.01861528 41.77128275 32.48682027 41.796875 35.95703125 C41.79423175 38.15885874 41.78910683 40.36068494 41.78125 42.5625 C41.78934692 43.60112183 41.79744385 44.63974365 41.80578613 45.70983887 C41.75430174 49.66163585 41.70743263 52.6400111 39.88867188 56.18359375 C35.57147458 58.38852797 31.27688286 58.10054095 26.5 58.0625 C24.92460449 58.06824036 24.92460449 58.06824036 23.31738281 58.07409668 C21.09829753 58.07681696 18.87918026 58.06944777 16.66015625 58.05273438 C13.26229405 58.03132745 9.86654639 58.05253325 6.46875 58.078125 C4.31249533 58.07548175 2.15624198 58.07035682 0 58.0625 C-1.01674805 58.07059692 -2.03349609 58.07869385 -3.08105469 58.08703613 C-6.97647807 58.03521415 -9.89260659 57.96914893 -13.38867188 56.18359375 C-15.63522553 51.80652077 -15.31903112 47.40882168 -15.28125 42.5625 C-15.2850769 41.49004028 -15.28890381 40.41758057 -15.29284668 39.31262207 C-15.29556716 37.04645854 -15.28819653 34.78026369 -15.27148438 32.51416016 C-15.25007794 29.04388472 -15.27128275 25.57567973 -15.296875 22.10546875 C-15.29423175 19.90364126 -15.28910683 17.70181506 -15.28125 15.5 C-15.28934692 14.46137817 -15.29744385 13.42275635 -15.30578613 12.35266113 C-15.25430174 8.40086415 -15.20743263 5.4224889 -13.38867188 1.87890625 C-9.07147458 -0.32602797 -4.77688286 -0.03804095 0 0 Z " fill="#BAD4E5" transform="translate(242.75,205.46875)"/>
<path d="M0 0 C5.46226292 3.92841536 9.49222886 8.57469449 10.734375 15.29296875 C11.08772381 19.01352387 11.05032384 22.65526206 10.93359375 26.390625 C5.65359375 26.390625 0.37359375 26.390625 -5.06640625 26.390625 C-5.19661458 23.88411458 -5.32682292 21.37760417 -5.45703125 18.87109375 C-5.86908948 16.28627866 -5.86908948 16.28627866 -7.83203125 14.5859375 C-10.31589665 13.25715636 -11.77015733 13.01587973 -14.56640625 13.078125 C-15.31921875 13.08199219 -16.07203125 13.08585937 -16.84765625 13.08984375 C-19.31615482 13.42448176 -20.9549306 14.08021358 -23.06640625 15.390625 C-24.29721134 17.85223517 -24.18684602 19.45559493 -24.17993164 22.20751953 C-24.17985611 23.20840607 -24.17978058 24.2092926 -24.17970276 25.24050903 C-24.17454147 26.32387543 -24.16938019 27.40724182 -24.1640625 28.5234375 C-24.16194008 30.18389603 -24.16194008 30.18389603 -24.15977478 31.87789917 C-24.15416397 35.42383493 -24.14160962 38.96970823 -24.12890625 42.515625 C-24.12389264 44.91536367 -24.1193295 47.31510333 -24.11523438 49.71484375 C-24.10419103 55.60679225 -24.08744235 61.49870416 -24.06640625 67.390625 C-19.83120066 68.8023602 -15.6386115 68.66981277 -11.1953125 68.81640625 C-7.50508334 69.49363932 -6.25926397 70.3842009 -4.06640625 73.390625 C-4.06640625 77.033372 -4.09245841 79.37903667 -6.68359375 82.0703125 C-11.88281091 84.95119021 -18.33936919 84.10577785 -24.06640625 83.390625 C-30.43696064 81.02905643 -34.94256531 77.50814684 -38.06640625 71.390625 C-39.70329982 67.81126427 -40.32387312 65.01500393 -40.35693359 61.0847168 C-40.3696933 60.04981613 -40.382453 59.01491547 -40.39559937 57.94865417 C-40.39782501 56.84024673 -40.40005066 55.73183929 -40.40234375 54.58984375 C-40.40900055 53.4395015 -40.41565735 52.28915924 -40.42251587 51.10395813 C-40.43263156 48.67226762 -40.43733322 46.24054942 -40.43701172 43.80883789 C-40.44137824 40.10190689 -40.47769325 36.39617308 -40.515625 32.68945312 C-40.52149478 30.32292072 -40.52546309 27.95638268 -40.52734375 25.58984375 C-40.54171478 24.487509 -40.55608582 23.38517426 -40.57089233 22.24943542 C-40.52248762 14.03398316 -39.12314951 8.5168397 -33.31640625 2.578125 C-23.7706005 -3.84693656 -10.47577694 -5.6240466 0 0 Z " fill="#413F41" transform="translate(381.06640625,44.609375)"/>
<path d="M0 0 C3.89945363 3.43542679 6.43218336 7.02326094 8 12 C8.2550648 16.35140556 8.08815924 20.6361174 8 25 C3.05 25 -1.9 25 -7 25 C-7.1953125 22.75390625 -7.390625 20.5078125 -7.5859375 18.26171875 C-7.89564426 15.72775559 -7.89564426 15.72775559 -10 13 C-12.74429996 12.08523335 -14.59033094 11.80761556 -17.4375 11.75 C-18.19933594 11.72421875 -18.96117187 11.6984375 -19.74609375 11.671875 C-22.61969863 12.09021609 -23.86092723 13.05942617 -26 15 C-26.69397513 16.82882668 -26.69397513 16.82882668 -26.73046875 18.9765625 C-26.78509277 19.86375977 -26.8397168 20.75095703 -26.89599609 21.66503906 C-26.94747803 23.31584473 -26.94747803 23.31584473 -27 25 C-27.02161194 25.68042358 -27.04322388 26.36084717 -27.06549072 27.06188965 C-27.2090188 31.96472361 -27.27241136 36.86523001 -27.29516602 41.77001953 C-27.30679403 43.51749702 -27.32741191 45.26493613 -27.35668945 47.01220703 C-27.39920406 49.55785846 -27.41549788 52.10247611 -27.42578125 54.6484375 C-27.44328934 55.42762543 -27.46079742 56.20681335 -27.47883606 57.00961304 C-27.46455684 60.56388561 -27.29941881 62.59624967 -25.15307617 65.49047852 C-22.34157386 67.4616225 -20.40915867 67.49857827 -17 67.5625 C-12.675754 67.65439023 -10.11062239 67.83068663 -7 71 C-6.44393694 74.82293352 -6.2823156 77.0034135 -8.578125 80.19140625 C-13.45248737 83.83145428 -20.20256258 82.59257263 -26 82 C-32.21840188 80.39064331 -36.53267705 76.31140873 -40 71 C-41.57657885 67.55284466 -42.26692459 64.76683807 -42.36645508 60.98535156 C-42.39600784 60.01374084 -42.42556061 59.04213013 -42.45600891 58.04107666 C-42.47697128 57.00142761 -42.49793365 55.96177856 -42.51953125 54.890625 C-42.54601242 53.80924255 -42.57249359 52.72786011 -42.59977722 51.6137085 C-42.65239471 49.32754086 -42.69999019 47.04125288 -42.74291992 44.75488281 C-42.81198427 41.27597844 -42.90803809 37.79851205 -43.00585938 34.3203125 C-43.05373727 32.09378495 -43.10001294 29.86722226 -43.14453125 27.640625 C-43.17561478 26.60907288 -43.2066983 25.57752075 -43.23872375 24.51470947 C-43.3713694 15.04887629 -41.59652511 7.59721657 -34.92578125 0.6640625 C-25.92239204 -7.11574237 -9.66786268 -6.18020381 0 0 Z " fill="#3E3F41" transform="translate(163,46)"/>
<path d="M0 0 C4.70757747 3.95864469 8.87887172 8.81714405 10 15 C10.12820882 18.67190052 10.04375738 22.32438021 10 26 C5.05 26 0.1 26 -5 26 C-5.66 22.04 -6.32 18.08 -7 14 C-10.12902268 13.21774433 -12.35675958 12.8394113 -15.5 12.8125 C-16.62921875 12.79123047 -16.62921875 12.79123047 -17.78125 12.76953125 C-20.31456665 13.03267506 -21.87642471 13.59825403 -24 15 C-24.94862105 17.84586316 -25.13651469 19.65368273 -25.16113281 22.60742188 C-25.17554413 24.00402039 -25.17554413 24.00402039 -25.19024658 25.42883301 C-25.1966214 26.93359192 -25.1966214 26.93359192 -25.203125 28.46875 C-25.20882507 29.50060425 -25.21452515 30.5324585 -25.22039795 31.59558105 C-25.2298447 33.77774022 -25.23638064 35.95991363 -25.24023438 38.14208984 C-25.24996191 41.48690446 -25.28099758 44.8311103 -25.3125 48.17578125 C-25.31902791 50.29426718 -25.32427921 52.41275751 -25.328125 54.53125 C-25.3404718 55.53442261 -25.3528186 56.53759521 -25.36553955 57.57116699 C-25.36253845 58.50223267 -25.35953735 59.43329834 -25.35644531 60.39257812 C-25.36009094 61.21181763 -25.36373657 62.03105713 -25.36749268 62.87512207 C-24.90843543 65.52943514 -24.14456514 66.40896993 -22 68 C-18.69453581 68.40941212 -15.45769099 68.43928855 -12.12890625 68.49609375 C-8.40608723 69.09564887 -7.24554547 70.02573184 -5 73 C-4.4375 76 -4.4375 76 -5 79 C-7.79016228 81.88981093 -9.49368085 82.91778692 -13.48828125 83.56640625 C-22.30156367 83.55740392 -28.06267062 82.86097893 -34.515625 76.5078125 C-38.5764494 72.00356475 -40.20927638 67.7134703 -40.39819336 61.72583008 C-40.43420151 60.6973848 -40.47020966 59.66893951 -40.50730896 58.60932922 C-40.54816368 56.95612923 -40.54816368 56.95612923 -40.58984375 55.26953125 C-40.62106827 54.12393234 -40.65229279 52.97833344 -40.6844635 51.79801941 C-40.7458542 49.3748331 -40.80182965 46.95150441 -40.8527832 44.52807617 C-40.93681846 40.8423916 -41.05863291 37.15917116 -41.18164062 33.47460938 C-41.2367171 31.11463683 -41.28952425 28.75461002 -41.33984375 26.39453125 C-41.38124985 25.30251907 -41.42265594 24.2105069 -41.46531677 23.08540344 C-41.56466638 15.64501847 -40.13813127 10.23833355 -36 4 C-33.68359375 1.74609375 -33.68359375 1.74609375 -31.4375 0.4375 C-30.69371094 -0.01753906 -29.94992188 -0.47257812 -29.18359375 -0.94140625 C-20.71320874 -5.04780042 -8.18328527 -4.39472728 0 0 Z " fill="#3F4041" transform="translate(268,45)"/>
<path d="M0 0 C-2.40077204 1.6005147 -4.69531084 2.87889174 -7.25 4.1875 C-16.11916047 9.11961851 -20.92267687 15.61869673 -24.02563477 25.15063477 C-25.68291913 31.91555122 -25.3605134 38.95114714 -25.4140625 45.875 C-25.43279795 47.41057346 -25.45237309 48.94613687 -25.4727478 50.48168945 C-25.52382426 54.49943086 -25.56358007 58.51720555 -25.60089111 62.53509521 C-25.64108533 66.64457264 -25.69210691 70.75391452 -25.7421875 74.86328125 C-25.83865646 82.90876788 -25.92215075 90.95431164 -26 99 C-30.62 99 -35.24 99 -40 99 C-40.09067735 89.78508839 -40.16393182 80.57047724 -40.20724869 71.35521889 C-40.22804759 67.07534723 -40.2562227 62.79579891 -40.30175781 58.51611328 C-40.34549267 54.37933589 -40.36919487 50.24286782 -40.37950897 46.10587692 C-40.38685112 44.53433748 -40.40118766 42.96281333 -40.42292023 41.39140701 C-40.58823563 28.93284717 -39.05747564 18.31797826 -30 9 C-27.14601625 6.7032722 -24.18068787 4.81028512 -21 3 C-19.948125 2.38125 -18.89625 1.7625 -17.8125 1.125 C-11.92981258 -0.61087498 -6.08898414 -0.22802021 0 0 Z " fill="#C5DEF3" transform="translate(410,342)"/>
<path d="M0 0 C6.4595299 3.82249335 10.11788415 8.95049262 12.5234375 16.046875 C13.44401796 23.066301 11.56153216 28.24635054 7.5234375 34.046875 C2.61539278 38.85773071 -1.85084022 41.14847812 -8.7265625 41.296875 C-14.50707349 41.18316003 -19.10033448 40.20793277 -23.4609375 36.2421875 C-26.53111767 32.88021335 -29.44044335 29.57989629 -30.4765625 25.046875 C-29.9815625 23.561875 -29.9815625 23.561875 -29.4765625 22.046875 C-28.4659375 22.706875 -27.4553125 23.366875 -26.4140625 24.046875 C-20.3283938 27.12254569 -13.1166501 26.92119258 -6.4765625 26.046875 C-4.48135603 24.88205168 -4.48135603 24.88205168 -3.4765625 23.046875 C-2.97648456 19.50473515 -2.97648456 19.50473515 -3.4765625 16.046875 C-6.90047602 13.76426599 -8.32675244 13.82972586 -12.3515625 13.734375 C-19.06911718 13.27025304 -19.06911718 13.27025304 -21.7890625 10.796875 C-23.4765625 8.046875 -23.4765625 8.046875 -23.7265625 5.484375 C-22.27109214 2.6462078 -20.68274688 1.21542446 -17.83203125 -0.21875 C-12.09999548 -2.00585236 -5.63303101 -2.1679173 0 0 Z " fill="#DA2E26" transform="translate(158.4765625,100.953125)"/>
<path d="M0 0 C5.39963501 3.19570235 9.80068835 7.55057672 11.62109375 13.69921875 C12.92324636 19.93341843 12.53957533 25.36360412 9.40234375 30.95703125 C6.2694761 35.29555059 2.03407725 38.79997612 -2.9375 40.8125 C-11.11903877 41.777245 -16.71275967 40.46524393 -23.625 36.125 C-26.6091415 33.1408585 -28.714989 29.87695217 -29.9375 25.8125 C-29.5390625 23.5625 -29.5390625 23.5625 -28.9375 21.8125 C-27.6690625 22.8025 -27.6690625 22.8025 -26.375 23.8125 C-20.6979637 27.0832205 -13.24491949 26.7906175 -6.9375 25.8125 C-4.16653393 23.67858883 -3.09096021 22.7113384 -2.5 19.25 C-3.03128282 16.28999574 -3.52799499 15.57947034 -5.9375 13.8125 C-9.24296419 13.40308788 -12.47980901 13.37321145 -15.80859375 13.31640625 C-19.53141761 12.71685035 -20.71646323 11.81171024 -22.9375 8.8125 C-23.1875 5.5625 -23.1875 5.5625 -22.9375 2.8125 C-16.12082583 -2.14508122 -7.98972915 -3.0420413 0 0 Z " fill="#DA2E26" transform="translate(378.9375,101.1875)"/>
<path d="M0 0 C5.02312391 3.16024352 9.03618523 6.93061672 10.80859375 12.7421875 C12.13613151 19.34333857 11.81355191 25.22706185 8.43359375 31.109375 C5.21885931 35.80058356 1.61494624 39.00063221 -3.765625 40.859375 C-9.88966309 41.55877768 -15.93583908 41.89197184 -21.16796875 38.25390625 C-29.86770502 30.66024892 -29.86770502 30.66024892 -30.703125 24.859375 C-30.72375 23.869375 -30.744375 22.879375 -30.765625 21.859375 C-29.755 22.519375 -28.744375 23.179375 -27.703125 23.859375 C-21.59449837 26.94110585 -14.42734398 26.71127685 -7.765625 25.859375 C-5.3238645 24.67032237 -5.3238645 24.67032237 -3.765625 22.859375 C-3.31643326 19.77920306 -3.1078217 17.83009167 -4.890625 15.19921875 C-8.31979658 12.74878989 -12.55321105 13.43296568 -16.63671875 13.36328125 C-20.35954261 12.76372535 -21.54458823 11.85858524 -23.765625 8.859375 C-24.015625 5.609375 -24.015625 5.609375 -23.765625 2.859375 C-16.92128576 -2.35535966 -8.0277096 -3.31086328 0 0 Z " fill="#DA2E26" transform="translate(265.765625,101.140625)"/>
<path d="M0 0 C0.66 0.33 1.32 0.66 2 1 C-1.63 4.63 -5.26 8.26 -9 12 C-9 8.47601214 -8.44884893 7.98495633 -6.1875 5.4375 C-5.40439453 4.53837891 -5.40439453 4.53837891 -4.60546875 3.62109375 C-3 2 -3 2 0 0 Z " fill="#EE8378" transform="translate(58,76)"/>
<path d="M0 0 C1.64350079 3.28700157 2.41321669 5.47930015 3 9 C2.34 9 1.68 9 1 9 C1 10.65 1 12.3 1 14 C0.67 14 0.34 14 0 14 C0 9.38 0 4.76 0 0 Z " fill="#A4C8E0" transform="translate(42,409)"/>
</svg>
