<?xml version="1.0" encoding="UTF-8"?>
<svg version="1.1" xmlns="http://www.w3.org/2000/svg" width="512" height="512">
<path d="M0 0 C0.74459473 0.00563965 1.48918945 0.0112793 2.25634766 0.01708984 C16.19694353 0.32350991 26.93374885 6.78095386 37.37109375 15.64453125 C41.33219268 18.95618685 45.51607428 21.96105773 49.6875 25 C56.08355907 29.66957746 62.39600967 34.42226544 68.625 39.3125 C74.71406563 44.09023875 80.87620583 48.74568142 87.125 53.3125 C94.13782969 58.43770016 101.0220494 63.70107816 107.85546875 69.0625 C113.20723868 73.24678085 118.64050373 77.30414709 124.125 81.3125 C131.20384934 86.48720328 138.16096899 91.79464969 145.06420898 97.20092773 C150.53341962 101.47943126 156.05254692 105.68299974 161.6328125 109.81567383 C165.21720382 112.47663634 168.74413776 115.19086155 172.2265625 117.984375 C172.99218506 118.59144287 173.75780762 119.19851074 174.54663086 119.82397461 C176.02610144 120.99993135 177.49619998 122.18780419 178.95532227 123.38891602 C179.62362061 123.91670654 180.29191895 124.44449707 180.98046875 124.98828125 C181.56465576 125.46177002 182.14884277 125.93525879 182.75073242 126.4230957 C185.42543214 127.69233252 186.84659556 127.22450146 189.625 126.3125 C191.84735927 125.00306045 191.84735927 125.00306045 193.96875 123.27734375 C194.79221924 122.64086914 195.61568848 122.00439453 196.46411133 121.34863281 C197.34220459 120.65608398 198.22029785 119.96353516 199.125 119.25 C201.01415237 117.78493631 202.90348029 116.32009897 204.79296875 114.85546875 C205.75895996 114.10185059 206.72495117 113.34823242 207.72021484 112.57177734 C212.2672022 109.03523162 216.85225073 105.54919997 221.4375 102.0625 C222.31535156 101.393396 223.19320313 100.72429199 224.09765625 100.03491211 C229.88667006 95.62436388 235.6993189 91.24681697 241.52856445 86.88964844 C247.08592051 82.73019785 252.60712526 78.52413466 258.125 74.3125 C264.90217039 69.13968128 271.69838188 63.99481827 278.52734375 58.890625 C284.08503048 54.73074681 289.60671072 50.52445107 295.125 46.3125 C301.89723913 41.14344517 308.6843604 35.99659027 315.51416016 30.90380859 C319.34384787 28.04243636 323.1452201 25.1475507 326.9296875 22.2265625 C327.85265625 21.51628906 328.775625 20.80601563 329.7265625 20.07421875 C331.51905468 18.69324238 333.30835236 17.30810516 335.09375 15.91796875 C350.36702378 4.16747793 363.30277386 -1.21856617 382.625 0.3125 C395.14076699 2.65744054 406.2970514 9.9379207 413.625 20.3125 C419.74558774 30.76793607 421.92587102 39.1973723 421.89242554 51.17243958 C421.89695665 52.36376218 421.90148776 53.55508479 421.90615618 54.78250808 C421.91660452 58.07671864 421.9181298 61.37071037 421.91576743 64.66492188 C421.9153584 68.22263971 421.92640661 71.78032526 421.93588257 75.33802795 C421.95247455 82.30346125 421.95799129 89.26886069 421.95910732 96.23431209 C421.96005861 101.89768011 421.96417295 107.56103698 421.97050858 113.22440147 C421.98811575 129.29095176 421.99734822 145.35747535 421.99584763 161.42403535 C421.99576772 162.289653 421.9956878 163.15527065 421.99560547 164.04711914 C421.99552371 164.91379704 421.99544195 165.78047494 421.99535771 166.6734158 C421.99454486 180.71802321 422.01368347 194.76252335 422.0418822 208.80709974 C422.07062662 223.23763563 422.08442165 237.66811924 422.08269465 252.09868449 C422.08203131 260.19648469 422.08749922 268.29417242 422.10905075 276.39194679 C422.12728303 283.28656699 422.13159312 290.18102374 422.1180319 297.07565764 C422.11151261 300.59089714 422.11134696 304.10582325 422.1287384 307.62103271 C422.14418066 311.43817083 422.13488785 315.25448895 422.11947632 319.0716095 C422.12976344 320.17386315 422.14005057 321.2761168 422.15064943 322.41177207 C422.05178798 333.5123604 418.63329478 341.16932245 411.00390625 349.17578125 C388.24796805 369.61502295 321.48625933 356.3125 314.625 356.3125 C314.13 266.7175 314.13 266.7175 313.625 175.3125 C300.34311092 185.27135911 300.34311092 185.27135911 287.125 195.3125 C280.97773517 200.00547721 274.81973027 204.68234437 268.625 209.3125 C262.51370566 213.88035682 256.43926522 218.49491137 250.375 223.125 C242.6686324 229.00823565 234.9297895 234.84562317 227.1652832 240.65185547 C221.85850671 244.6247368 216.57574778 248.62756492 211.30859375 252.65283203 C208.64576339 254.68641247 205.9775592 256.71276327 203.30859375 258.73828125 C200.52583709 260.8521541 197.76477948 262.9860113 195.03515625 265.16796875 C194.07480469 265.91691406 193.11445313 266.66585938 192.125 267.4375 C190.96484375 268.36949219 190.96484375 268.36949219 189.78125 269.3203125 C187.625 270.3125 187.625 270.3125 185.3515625 269.8828125 C181.43904434 267.62947109 178.01542484 264.88581605 174.5 262.0625 C168.12747763 257.02084839 161.69058133 252.10004433 155.125 247.3125 C148.1115784 242.18813355 141.22792264 236.9238999 134.39453125 231.5625 C129.04276388 227.37822115 123.60954606 223.32078162 118.125 219.3125 C111.87619333 214.74567229 105.71432537 210.08991923 99.625 205.3125 C91.96770352 199.306893 84.17653045 193.5038745 76.3203125 187.76171875 C70.72569155 183.65185994 65.17856307 179.4776723 59.625 175.3125 C59.295 235.0425 58.965 294.7725 58.625 356.3125 C-30.03833693 356.3125 -30.03833693 356.3125 -39.55078125 347.37890625 C-45.10450689 341.08785515 -48.49211132 334.70224178 -48.50922108 326.29355621 C-48.51367892 325.2758409 -48.51813676 324.25812558 -48.52272969 323.20957041 C-48.52254533 322.09325031 -48.52236097 320.97693021 -48.52217102 319.82678223 C-48.52584771 318.63943403 -48.5295244 317.45208583 -48.5333125 316.22875738 C-48.54243141 312.93168866 -48.5470473 309.63466968 -48.54970181 306.33759308 C-48.55360863 302.78183724 -48.56318682 299.22609577 -48.57191467 295.67034912 C-48.59167014 287.08160125 -48.60174489 278.49285222 -48.61064246 269.90408731 C-48.61502755 265.85709319 -48.62039385 261.81010038 -48.62563133 257.7631073 C-48.64264397 244.30524212 -48.65713683 230.84737776 -48.66438007 217.38950348 C-48.6662899 213.89768981 -48.66821024 210.40587614 -48.67016602 206.9140625 C-48.67064976 206.04621272 -48.6711335 205.17836294 -48.6716319 204.28421468 C-48.67992728 190.23430641 -48.70525571 176.18448343 -48.73774669 162.13461238 C-48.77085014 147.70190771 -48.78883187 133.26924633 -48.79202431 118.83650351 C-48.79418655 110.73635159 -48.802893 102.63632396 -48.82848549 94.53620911 C-48.85023757 87.63572628 -48.85822089 80.73539793 -48.84851871 73.8348847 C-48.84398676 70.31738663 -48.84579497 66.80020699 -48.86528015 63.28275299 C-48.8830109 59.45959775 -48.87588565 55.63724327 -48.86274719 51.81408691 C-48.87371644 50.71561259 -48.88468568 49.61713826 -48.89598733 48.48537683 C-48.78768312 35.37691555 -44.12566489 23.80314162 -35.34375 14.05859375 C-25.55037972 4.70876379 -13.42991444 -0.10748845 0 0 Z " fill="#D74F3F" transform="translate(69.375,77.6875)"/>
<path d="M0 0 C0.09131621 30.27693656 0.16207265 60.55386606 0.20426132 90.8309093 C0.20926394 94.40810643 0.21444125 97.98530328 0.21972656 101.5625 C0.2207758 102.27463383 0.22182505 102.98676765 0.22290608 103.72048129 C0.24029544 115.24035158 0.27182499 126.76014174 0.30861118 138.27996455 C0.34606158 150.10671762 0.3682445 161.93342883 0.37635398 173.76023877 C0.3813425 180.40051855 0.3938062 187.04064948 0.42292023 193.68087387 C0.45011279 199.93364279 0.45843706 206.18615576 0.45243073 212.4389782 C0.45352923 214.73107355 0.46145992 217.02317765 0.4768219 219.31522179 C0.49680941 222.45182299 0.49190674 225.58746584 0.48101807 228.72409058 C0.49266943 229.6248988 0.5043208 230.52570703 0.51632524 231.45381248 C0.41914967 241.85493296 -3.53120126 249.42298222 -10.62109375 256.86328125 C-17.33046271 262.88959459 -24.23775155 264.15530749 -32.98144531 264.11352539 C-33.7818222 264.11367142 -34.5821991 264.11381744 -35.40682983 264.1139679 C-38.04728931 264.1132723 -40.68767788 264.1054964 -43.328125 264.09765625 C-45.16086793 264.09579082 -46.99361137 264.09436751 -48.82635498 264.09336853 C-53.64649842 264.08955322 -58.46661165 264.07973133 -63.28674316 264.06866455 C-68.20678295 264.05842925 -73.12682763 264.05386637 -78.046875 264.04882812 C-87.69792993 264.03810819 -97.34896245 264.02104359 -107 264 C-107.44465575 240.25207019 -107.77928039 216.50476762 -107.98443127 192.75350761 C-108.08223846 181.72406403 -108.21546536 170.69721262 -108.43334961 159.66943359 C-108.6232634 150.05270523 -108.74542631 140.4378542 -108.7876814 130.81930268 C-108.81237138 125.72925957 -108.86997787 120.6445846 -109.00887108 115.5562706 C-109.88770073 82.09132491 -109.88770073 82.09132491 -102.86782837 74.49078369 C-98.98802093 71.25208063 -94.90248626 69.00584041 -90.26543617 67.03491592 C-86.9400588 65.5157886 -84.43544152 63.45231772 -81.625 61.125 C-69.20212623 51.50320732 -56.69313181 41.99260916 -44.10717773 32.58520508 C-37.55094711 27.67816379 -31.04361116 22.70740001 -24.53344727 17.73950195 C-18.04750171 12.79208581 -11.53810522 7.87834609 -5 3 C-4.25878906 2.42894531 -3.51757812 1.85789063 -2.75390625 1.26953125 C-1 0 -1 0 0 0 Z " fill="#58A35B" transform="translate(491,170)"/>
<path d="M0 0 C1.4161235 0.93406762 2.83089635 1.87018308 4.24511719 2.80712891 C5.03311707 3.32820221 5.82111694 3.84927551 6.63299561 4.38613892 C10.30118861 6.887171 13.77025602 9.62076866 17.25 12.375 C18.8248098 13.61028201 20.40036184 14.8446182 21.9765625 16.078125 C22.79415039 16.71814453 23.61173828 17.35816406 24.45410156 18.01757812 C35.49756738 26.61682462 46.68346989 35.03601984 57.89404297 43.41577148 C64.4545287 48.32578409 70.96651235 53.29904185 77.47973633 58.27148438 C83.00573441 62.48817078 88.54919201 66.67755198 94.13671875 70.8125 C95.08160156 71.534375 96.02648437 72.25625 97 73 C97.80097799 73.44256638 98.60195599 73.88513275 99.42720604 74.34111023 C103.95182202 77.19164834 106.58712014 79.34482318 107.91122818 84.65298462 C108.36508732 89.33397899 108.23807983 94.01170871 108.13525391 98.70703125 C108.13243071 100.5111424 108.13402131 102.31526502 108.13967896 104.11936951 C108.14254179 109.00198557 108.08386259 113.88213211 108.01393938 118.76417542 C107.95131462 123.87162666 107.94554344 128.97913812 107.9336853 134.08691406 C107.90263617 143.75220968 107.82062006 153.41637067 107.72019041 163.08116722 C107.60831441 174.08702861 107.55340863 185.09294494 107.50323606 196.09923363 C107.39878341 218.73345083 107.22295548 241.36666177 107 264 C96.48131132 264.09295796 85.96272145 264.16389547 75.44370461 264.20724869 C70.55851282 264.22806323 65.67360349 264.25626803 60.78857422 264.30175781 C56.06825383 264.34543535 51.34820397 264.36918316 46.62769699 264.37950897 C44.8328768 264.3868612 43.03807028 264.40121788 41.24336624 264.42292023 C28.67526544 264.56876148 18.47061151 264.12579742 8.82421875 255.06640625 C3.59783333 249.14615382 -0.127235 242.76438672 -0.12304783 234.77525711 C-0.1260344 233.51451351 -0.1260344 233.51451351 -0.12908131 232.22830033 C-0.12616847 231.31001506 -0.12325563 230.39172978 -0.12025452 229.44561768 C-0.12110894 228.46623096 -0.12196337 227.48684425 -0.12284368 226.47777915 C-0.12449428 223.18731609 -0.11898393 219.8969037 -0.11352539 216.60644531 C-0.1132434 214.25120546 -0.11340148 211.89596551 -0.1139679 209.54072571 C-0.11425542 203.13826653 -0.10836597 196.735826 -0.10139394 190.33337116 C-0.09530879 184.32283861 -0.09477134 178.31230384 -0.09374207 172.30176875 C-0.09155339 160.3966509 -0.08489828 148.49153991 -0.07543945 136.58642578 C-0.06626058 125.02164748 -0.05918207 113.45687105 -0.05493164 101.89208984 C-0.05466892 101.17924879 -0.05440619 100.46640775 -0.05413551 99.73196545 C-0.05283047 96.15585497 -0.05156676 92.57974448 -0.05032361 89.00363398 C-0.03995673 59.33575144 -0.02226907 29.66787605 0 0 Z " fill="#4E84EA" transform="translate(21,170)"/>
<path d="M0 0 C0.74459473 0.00563965 1.48918945 0.0112793 2.25634766 0.01708984 C16.00626341 0.31931868 27.15316863 6.57317933 37.23709106 15.67671204 C39.70750859 17.75434483 42.16682738 19.13016187 45.08053589 20.50944519 C51.47748856 23.79108332 57.32019441 27.2860473 59.6341629 34.42663956 C61.08864635 43.26057441 60.75224557 52.18701468 60.45009089 61.10262322 C60.33666969 65.01911684 60.32692651 68.93592313 60.30563354 72.85380554 C60.24993715 80.2540945 60.10261032 87.64953098 59.92134273 95.04769343 C59.71933146 103.47761659 59.62098357 111.90778616 59.5308249 120.33953154 C59.34325349 137.66665005 59.02718006 154.9890603 58.625 172.3125 C54.0467376 170.61612922 50.71666975 168.16812151 47 165.0625 C41.22813345 160.33934396 35.34018022 155.8291132 29.3125 151.4375 C22.99945401 146.830717 16.77255775 142.13795152 10.625 137.3125 C4.53588681 132.53481631 -1.62623752 127.87936926 -7.875 123.3125 C-15.03660775 118.077802 -22.07672068 112.70910228 -29.06030273 107.23950195 C-34.41498103 103.04719088 -39.82419259 98.93936805 -45.28515625 94.88671875 C-47.375 93.3125 -47.375 93.3125 -48.375 92.3125 C-48.48928165 90.7193936 -48.53459323 89.12127519 -48.55200195 87.52416992 C-48.56483719 86.5018779 -48.57767242 85.47958588 -48.59089661 84.42631531 C-48.59828354 83.30981094 -48.60567047 82.19330658 -48.61328125 81.04296875 C-48.621353 79.8964534 -48.62942474 78.74993805 -48.63774109 77.56867981 C-48.65161085 75.12986778 -48.66231997 72.69103611 -48.67016602 70.25219727 C-48.68725141 66.55381113 -48.73109701 62.85634866 -48.77539062 59.15820312 C-48.78552844 56.7864649 -48.79404112 54.41471907 -48.80078125 52.04296875 C-48.81828934 50.94873093 -48.83579742 49.8544931 -48.85383606 48.72709656 C-48.8172272 35.50083962 -44.20956316 23.89623642 -35.34375 14.05859375 C-25.55037972 4.70876379 -13.42991444 -0.10748845 0 0 Z " fill="#B4332A" transform="translate(69.375,77.6875)"/>
<path d="M0 0 C9.54054443 7.40898982 16.09569908 18.09522132 18.53515625 29.96875 C19.33407875 37.43650993 19.37276487 44.97846591 19.51000977 52.48168945 C19.56824925 54.92336747 19.65693336 57.36451651 19.77661133 59.80395508 C20.80882669 81.16287295 20.80882669 81.16287295 15.44799805 87.07714844 C12.3534567 89.81036494 8.99835184 91.9403757 5.38870239 93.92874146 C2.93185176 95.30725888 0.76340734 96.97782964 -1.453125 98.7109375 C-2.89261924 99.7578424 -4.33401138 100.80214296 -5.77734375 101.84375 C-12.09238188 106.44771596 -18.3173839 111.14337533 -24.46484375 115.96875 C-30.5539579 120.74643444 -36.71610435 125.40184877 -42.96484375 129.96875 C-49.27309903 134.58014201 -55.498682 139.27789856 -61.65234375 144.09375 C-67.56185899 148.71446031 -73.48499013 153.31423654 -79.46484375 157.84375 C-80.48034302 158.62129639 -80.48034302 158.62129639 -81.51635742 159.41455078 C-86.23229507 162.96875 -86.23229507 162.96875 -88.46484375 162.96875 C-88.90998531 144.82737764 -89.24434665 126.68743388 -89.44927502 108.54176903 C-89.54698773 100.11484929 -89.68000826 91.69133425 -89.89819336 83.26660156 C-90.08842747 75.91758898 -90.21033924 68.57104193 -90.25252515 61.21963561 C-90.27716983 57.33051396 -90.33440716 53.44844013 -90.47371483 49.56159592 C-91.28574303 26.00396259 -91.28574303 26.00396259 -86.62005997 19.32984161 C-82.23308862 14.94068053 -77.29058121 11.96921925 -71.77158546 9.20682144 C-68.32587581 7.35744459 -65.56485249 4.99970938 -62.58984375 2.46875 C-43.65455676 -12.22910064 -19.94563906 -13.5458153 0 0 Z " fill="#F1BB41" transform="translate(472.46484375,87.03125)"/>
</svg>
