<?xml version="1.0" encoding="UTF-8"?>
<svg version="1.1" xmlns="http://www.w3.org/2000/svg" width="512" height="512">
<path d="M0 0 C0.78671082 0.35031281 1.57342163 0.70062561 2.38397217 1.06155396 C4.08885843 1.82204639 5.79152611 2.58752787 7.4921875 3.35742188 C11.15871521 5.01697997 14.83590123 6.65225267 18.51281738 8.28863525 C20.43480003 9.14404746 22.35626144 10.00063169 24.27722168 10.8583374 C33.25388639 14.86138354 42.28204269 18.73834877 51.32479858 22.58926392 C66.21054 28.92883603 81.05329882 35.35941321 95.859375 41.8828125 C108.24980929 47.34139143 120.65696459 52.75455488 133.109375 58.0703125 C165.13396304 71.74315704 197.027313 85.72245677 228.921875 99.6953125 C228.921875 110.9153125 228.921875 122.1353125 228.921875 133.6953125 C210.78209805 141.82693665 192.56387818 149.74519257 174.28173828 157.55029297 C173.39923401 157.92721283 172.51672974 158.30413269 171.60748291 158.69247437 C169.95702643 159.39713743 168.30629264 160.1011515 166.6552124 160.80435181 C161.99510371 162.79303088 157.36798388 164.83872191 152.76541138 166.9576416 C150.921875 167.6953125 150.921875 167.6953125 148.921875 167.6953125 C148.93201472 168.38000484 148.94215445 169.06469719 148.95260143 169.77013779 C149.19611516 186.47282892 149.37783717 203.17495389 149.49180889 219.87900925 C149.54839835 227.95726236 149.6254674 236.03432669 149.75170898 244.11181641 C149.86176103 251.15681997 149.93241066 258.20096229 149.95684844 265.24680161 C149.97112307 268.97398732 150.00436946 272.69871053 150.08490562 276.42510223 C150.61960483 302.14359148 150.61960483 302.14359148 145.08817005 308.86830521 C142.87273695 311.06768553 140.4624371 312.88847919 137.921875 314.6953125 C136.68214161 315.99950127 135.46586551 317.32735475 134.296875 318.6953125 C98.15363127 354.24604403 41.17278868 365.11063925 -7.47998047 365.01098633 C-10.67841071 365.00783684 -13.87590253 365.0313507 -17.07421875 365.05664062 C-67.59032869 365.21171173 -122.04767277 351.87674201 -159.078125 315.6953125 C-159.90183594 314.89867187 -160.72554688 314.10203125 -161.57421875 313.28125 C-170.87205097 304.14705962 -170.87205097 304.14705962 -171.44726849 300.09477615 C-171.44450311 299.1029269 -171.44173773 298.11107765 -171.43888855 297.08917236 C-171.44301254 295.94776291 -171.44713654 294.80635345 -171.4513855 293.63035583 C-171.44059967 292.38238724 -171.42981384 291.13441864 -171.41870117 289.84863281 C-171.41913925 288.53131668 -171.41957733 287.21400055 -171.42002869 285.85676575 C-171.42088942 282.24749072 -171.40325129 278.63851479 -171.38230681 275.02930927 C-171.3635529 271.256351 -171.36179059 267.48338587 -171.35823059 263.71038818 C-171.34890633 256.56705466 -171.32428745 249.42385888 -171.29418212 242.280586 C-171.26064993 234.14765655 -171.24415508 226.01472051 -171.22909582 217.88173914 C-171.19773818 201.15284963 -171.14497034 184.42409864 -171.078125 167.6953125 C-171.67442435 167.500806 -172.27072371 167.3062995 -172.88509274 167.10589886 C-176.87654241 165.79207605 -180.82879338 164.48462308 -184.67993164 162.79418945 C-185.46006119 162.45406326 -186.24019073 162.11393707 -187.04396057 161.76350403 C-187.8505864 161.40713364 -188.65721222 161.05076324 -189.48828125 160.68359375 C-190.34119247 160.31050583 -191.1941037 159.93741791 -192.07286072 159.55302429 C-194.76374316 158.37495946 -197.45220679 157.19148842 -200.140625 156.0078125 C-201.97835761 155.20211345 -203.81624685 154.39677155 -205.65429688 153.59179688 C-210.13072604 151.63042288 -214.60499614 149.66420088 -219.078125 147.6953125 C-219.1096202 156.60582458 -219.10352627 165.51529234 -219.04965878 174.42570019 C-219.02582082 178.56343206 -219.01485282 182.70035874 -219.03344727 186.83813477 C-219.05092237 190.83275291 -219.03439445 194.82592563 -218.99444771 198.82036781 C-218.98516524 200.34293437 -218.98806296 201.86562625 -219.00343132 203.38814354 C-219.43300993 211.49941831 -219.43300993 211.49941831 -216.52745056 218.68925476 C-214.45672707 220.24532593 -214.45672707 220.24532593 -211.078125 221.6953125 C-209.15234375 223.94140625 -209.15234375 223.94140625 -207.765625 226.1328125 C-207.29511719 226.85339844 -206.82460937 227.57398438 -206.33984375 228.31640625 C-203.70319974 233.28766385 -202.82394734 237.73965263 -202.77172852 243.33984375 C-202.75574112 244.64139404 -202.73975372 245.94294434 -202.72328186 247.28393555 C-202.71690592 248.69189051 -202.71151294 250.09985023 -202.70703125 251.5078125 C-202.69805492 252.9646005 -202.68893291 254.42138761 -202.67967224 255.87817383 C-202.66322812 258.92433913 -202.65549 261.97039508 -202.65258789 265.01660156 C-202.64719561 268.91064377 -202.60946292 272.80365284 -202.56384373 276.69740295 C-202.53404079 279.70352909 -202.52686372 282.70940672 -202.52586174 285.71566772 C-202.52166909 287.15095778 -202.50927299 288.58624923 -202.48834419 290.02139282 C-202.31908513 302.62613765 -202.31908513 302.62613765 -205.45678711 306.50683594 C-207.92886502 308.57069981 -210.27981933 310.35377615 -213.078125 311.9453125 C-213.903125 312.42484375 -214.728125 312.904375 -215.578125 313.3984375 C-226.13193217 318.87322497 -238.77652757 319.20456648 -250.078125 315.6953125 C-256.595273 312.75844485 -263.27069404 308.91879632 -267.078125 302.6953125 C-267.46580505 299.77597046 -267.46580505 299.77597046 -267.48217773 296.34130859 C-267.49486191 295.05251801 -267.50754608 293.76372742 -267.52061462 292.43588257 C-267.51856196 291.03017008 -267.51557291 289.6244587 -267.51171875 288.21875 C-267.51628357 286.76868445 -267.52159004 285.31862106 -267.52760315 283.86856079 C-267.53653681 280.82716091 -267.53411202 277.7860235 -267.52416992 274.74462891 C-267.51273461 270.87119665 -267.53280521 266.99868347 -267.56208706 263.12537193 C-267.58056092 260.12763826 -267.58013364 257.1301197 -267.57444954 254.13234329 C-267.57429739 252.70597681 -267.58025274 251.27959474 -267.59274101 249.85328293 C-267.66719948 239.94700294 -266.90060858 231.37984117 -260.703125 223.3203125 C-258.078125 220.6953125 -258.078125 220.6953125 -254.95840454 219.16934204 C-251.97211685 217.07578218 -251.97211685 217.07578218 -251.53037643 214.63975143 C-251.32478753 211.90533114 -251.31686755 209.227686 -251.36865234 206.48583984 C-251.36444778 205.44793304 -251.36024323 204.41002625 -251.35591125 203.34066772 C-251.34819112 199.90360704 -251.38182958 196.46814763 -251.4140625 193.03125 C-251.4129687 190.63953299 -251.40866105 188.24781547 -251.40127563 185.85610962 C-251.38784589 179.55014242 -251.40672519 173.24474339 -251.43572998 166.93884277 C-251.48101782 156.86714603 -251.49665233 146.79576201 -251.47618484 136.72398758 C-251.47655649 133.21300936 -251.50228908 129.70284127 -251.52987671 126.19198608 C-251.53056211 124.02170825 -251.53025746 121.8514298 -251.52880859 119.68115234 C-251.54326523 118.71350952 -251.55772186 117.7458667 -251.57261658 116.74890137 C-251.52128297 107.7716842 -248.98599474 99.87002656 -242.78125 93.2265625 C-237.79735801 88.74563209 -231.92538285 85.35852136 -225.21166992 84.43994141 C-215.99725827 83.06514103 -207.73158319 78.95498884 -199.265625 75.2578125 C-197.49812398 74.4948088 -195.73012691 73.73295332 -193.96166992 72.97216797 C-191.18110368 71.77571714 -188.4009069 70.57846691 -185.62220764 69.37768555 C-176.33450989 65.36431252 -167.01537889 61.42694889 -157.69091797 57.49990845 C-153.91931313 55.9111569 -150.14886005 54.31968127 -146.37835693 52.72831726 C-140.65715791 50.31376334 -134.93538801 47.90056242 -129.21374512 45.48706055 C-109.0798265 36.9939891 -88.94673232 28.49923756 -68.83700562 19.94900513 C-66.36029872 18.89648528 -63.8829832 17.84541025 -61.40551758 16.79467773 C-54.20488219 13.73893165 -47.0094649 10.67296338 -39.83557129 7.55485535 C-36.76779637 6.22237292 -33.69674728 4.89753997 -30.62536621 3.57339478 C-29.1956496 2.95432628 -27.76761404 2.33135847 -26.34143066 1.70419312 C-24.39054619 0.84641225 -22.43437582 0.00197584 -20.4765625 -0.83984375 C-19.38005371 -1.3181665 -18.28354492 -1.79648926 -17.15380859 -2.28930664 C-10.47759748 -4.49333601 -6.08577029 -2.79636149 0 0 Z " fill="#707D92" transform="translate(275.078125,75.3046875)"/>
<path d="M0 0 C1.41842077 0.46493306 2.83615959 0.93194691 4.25361633 1.39981079 C5.43798263 1.78957061 5.43798263 1.78957061 6.64627552 2.18720436 C10.14873352 3.39668432 13.52709991 4.84666878 16.91796875 6.3359375 C17.64373611 6.65096725 18.36950348 6.96599701 19.11726379 7.29057312 C21.47556574 8.31517925 23.8315168 9.34507482 26.1875 10.375 C27.86246653 11.10381053 29.53759928 11.83223915 31.21289062 12.56030273 C34.58462402 14.02616015 37.95552405 15.49390677 41.32568359 16.96337891 C46.42022086 19.18418033 51.51980344 21.39315736 56.62036133 23.60009766 C65.0750169 27.2585089 73.52565257 30.9262084 81.9765625 34.59326172 C83.04980774 35.05896072 84.12305298 35.52465973 85.2288208 36.00447083 C87.48832628 36.98509194 89.74772421 37.96596092 92.00701904 38.94706726 C97.82686465 41.47403264 103.64837146 43.99701638 109.47363281 46.51147461 C119.2784766 50.74785534 129.07062395 54.99360547 138.765625 59.4765625 C140.8078317 60.40881101 142.85089802 61.33914537 144.89428711 62.26879883 C146.68485648 63.09494365 148.46096712 63.95220707 150.23632812 64.81054688 C151.28755859 65.28814453 152.33878906 65.76574219 153.421875 66.2578125 C154.29424805 66.6717627 155.16662109 67.08571289 156.06542969 67.51220703 C160.53184076 68.25462711 163.88362242 66.68416299 168 65 C168.70419067 64.71266998 169.40838135 64.42533997 170.13391113 64.12930298 C172.30790668 63.21224554 174.46330379 62.26017924 176.6171875 61.296875 C177.41856644 60.94269501 178.21994537 60.58851501 179.04560852 60.22360229 C180.76287174 59.4643317 182.47937055 58.70333022 184.19515991 57.94073486 C188.8070865 55.89151491 193.42522204 53.85637524 198.04296875 51.8203125 C198.97673843 51.40828583 199.91050812 50.99625916 200.87257385 50.57174683 C209.28590692 46.86377433 217.73016332 43.23123538 226.1875 39.625 C238.95758362 34.17616463 251.69969228 28.66528767 264.42922974 23.12237549 C294.32055148 10.10695259 294.32055148 10.10695259 304.94558716 5.52841187 C306.70102245 4.7711286 308.45490498 4.01024911 310.20874023 3.24926758 C311.22782471 2.81122803 312.24690918 2.37318848 313.296875 1.921875 C314.16666992 1.54643555 315.03646484 1.17099609 315.93261719 0.78417969 C318 0 318 0 320 0 C320.2575947 17.39427406 320.45124275 34.78794836 320.56993389 52.18369675 C320.62652335 60.26194986 320.7035924 68.33901419 320.82983398 76.41650391 C320.93988603 83.46150747 321.01053566 90.50564979 321.03497344 97.55148911 C321.04924807 101.27867482 321.08249446 105.00339803 321.16303062 108.72978973 C321.69772983 134.44827898 321.69772983 134.44827898 316.16629505 141.17299271 C313.95086195 143.37237303 311.5405621 145.19316669 309 147 C307.76026661 148.30418877 306.54399051 149.63204225 305.375 151 C269.23175627 186.55073153 212.25091368 197.41532675 163.59814453 197.31567383 C160.39971429 197.31252434 157.20222247 197.3360382 154.00390625 197.36132812 C103.48779631 197.51639923 49.03045223 184.18142951 12 148 C11.17628906 147.20335937 10.35257813 146.40671875 9.50390625 145.5859375 C0.20607403 136.45174712 0.20607403 136.45174712 -0.36914349 132.39946365 C-0.36637811 131.4076144 -0.36361273 130.41576515 -0.36076355 129.39385986 C-0.36694954 127.68174568 -0.36694954 127.68174568 -0.3732605 125.93504333 C-0.35708176 124.06309044 -0.35708176 124.06309044 -0.34057617 122.15332031 C-0.34101425 120.83600418 -0.34145233 119.51868805 -0.34190369 118.16145325 C-0.34276442 114.55217822 -0.32512629 110.94320229 -0.30418181 107.33399677 C-0.2854279 103.5610385 -0.28366559 99.78807337 -0.28010559 96.01507568 C-0.27078133 88.87174216 -0.24616245 81.72854638 -0.21605712 74.5852735 C-0.18252493 66.45234405 -0.16603008 58.31940801 -0.15097082 50.18642664 C-0.11961318 33.45753713 -0.06684534 16.72878614 0 0 Z " fill="#3F4F65" transform="translate(104,243)"/>
<path d="M0 0 C0.89927467 -0.00382555 1.79854935 -0.00765109 2.72507477 -0.01159257 C5.73279192 -0.02189609 8.74031722 -0.01793545 11.74804688 -0.01396179 C13.9066587 -0.01830968 16.06526897 -0.02349308 18.22387695 -0.02944946 C24.08325917 -0.04284114 29.9425769 -0.04341803 35.80197144 -0.04088616 C40.69283823 -0.03981676 45.58369197 -0.04469894 50.47455597 -0.04949158 C62.01104204 -0.06058694 73.54749555 -0.06102373 85.08398438 -0.05497742 C96.98896056 -0.048934 108.89381868 -0.06125796 120.79877472 -0.08254749 C131.01887008 -0.10015256 141.23892781 -0.10616665 151.45903778 -0.10290974 C157.56362621 -0.10109531 163.66813037 -0.10374931 169.77270508 -0.11762428 C175.51173033 -0.13018046 181.25057115 -0.12827938 186.98959351 -0.11521339 C189.09630393 -0.11284341 191.20302725 -0.11559735 193.3097229 -0.12383652 C196.18456165 -0.13426962 199.05877757 -0.12623084 201.93359375 -0.11352539 C202.76803261 -0.12089968 203.60247147 -0.12827396 204.46219635 -0.13587171 C210.04649682 -0.08391733 214.36870005 0.83539463 218.61132812 4.79585266 C222.80044239 10.27392516 223.58832089 13.4469516 222.96679688 20.26069641 C221.14145096 25.53391794 218.35960484 28.05760727 213.96679688 31.26069641 C210.13880051 32.5366952 206.54574038 32.39518441 202.55769348 32.38095093 C201.68941711 32.38180535 200.82114073 32.38265978 199.92655295 32.38354009 C197.00610896 32.38519217 194.08572193 32.37967794 191.1652832 32.3742218 C189.07619732 32.37393985 186.98711134 32.37409783 184.89802551 32.37466431 C179.21655754 32.37495195 173.53511055 32.36906051 167.85364747 32.36209035 C161.91990403 32.35585136 155.98616015 32.35525258 150.05241394 32.35406494 C138.81148117 32.35095324 127.5705581 32.34274201 116.3296296 32.33271545 C103.53415785 32.32154933 90.73868565 32.3160426 77.94321024 32.31102002 C51.61773374 32.30055928 25.29226585 32.28296293 -1.03320312 32.26069641 C-1.06466523 45.212947 -1.05866331 58.16458523 -1.0047369 71.11677837 C-0.980876 77.13099022 -0.96995567 83.14464738 -0.98852539 89.15888977 C-1.00596955 94.96233589 -0.98953089 100.76478495 -0.94952583 106.56810951 C-0.94022657 108.78287346 -0.94316848 110.99772351 -0.95850945 113.21245384 C-0.97790793 116.31388021 -0.95391457 119.41214856 -0.91967773 122.51338196 C-0.93549393 123.43047943 -0.95131012 124.3475769 -0.96760559 125.29246521 C-0.93371764 130.0351128 -0.93371764 130.0351128 1.51649284 133.89301491 C3.35964746 135.24779752 3.35964746 135.24779752 5.27864742 136.29028034 C7.64659711 137.65147287 8.8342099 139.41455193 10.27929688 141.69819641 C10.74980469 142.41878235 11.2203125 143.13936829 11.70507812 143.88179016 C14.34172214 148.85304776 15.22097453 153.30503654 15.27319336 158.90522766 C15.28918076 160.20677795 15.30516815 161.50832825 15.32164001 162.84931946 C15.32801595 164.25727443 15.33340893 165.66523414 15.33789062 167.07319641 C15.34686695 168.52998441 15.35598897 169.98677152 15.36524963 171.44355774 C15.38169375 174.48972304 15.38943187 177.53577899 15.39233398 180.58198547 C15.39772627 184.47602768 15.43545895 188.36903675 15.48107815 192.26278687 C15.51088108 195.268913 15.51805815 198.27479063 15.51906013 201.28105164 C15.52325279 202.71634169 15.53564889 204.15163315 15.55657768 205.58677673 C15.72583675 218.19152157 15.72583675 218.19152157 12.58813477 222.07221985 C10.11605685 224.13608372 7.76510255 225.91916006 4.96679688 227.51069641 C4.14179687 227.99022766 3.31679688 228.46975891 2.46679688 228.96382141 C-8.08701029 234.43860888 -20.7316057 234.76995039 -32.03320312 231.26069641 C-38.55035113 228.32382876 -45.22577217 224.48418023 -49.03320312 218.26069641 C-49.42088318 215.34135437 -49.42088318 215.34135437 -49.43725586 211.9066925 C-49.44994003 210.61790192 -49.46262421 209.32911133 -49.47569275 208.00126648 C-49.47364008 206.59555399 -49.47065104 205.18984261 -49.46679688 203.78413391 C-49.4713617 202.33406836 -49.47666817 200.88400497 -49.48268127 199.4339447 C-49.49161494 196.39254483 -49.48919015 193.35140741 -49.47924805 190.31001282 C-49.46781274 186.43658056 -49.48788333 182.56406738 -49.51716518 178.69075584 C-49.53563904 175.69302217 -49.53521177 172.69550361 -49.52952766 169.6977272 C-49.52937551 168.27136073 -49.53533087 166.84497866 -49.54781914 165.41866684 C-49.62227761 155.51238685 -48.85568671 146.94522508 -42.65820312 138.88569641 C-40.03320312 136.26069641 -40.03320312 136.26069641 -36.91348267 134.73472595 C-33.92719497 132.64116609 -33.92719497 132.64116609 -33.48545456 130.20513535 C-33.27986565 127.47071505 -33.27194568 124.79306991 -33.32373047 122.05122375 C-33.31952591 121.01331696 -33.31532135 119.97541016 -33.31098938 118.90605164 C-33.30326925 115.46899095 -33.3369077 112.03353154 -33.36914062 108.59663391 C-33.36804682 106.2049169 -33.36373918 103.81319939 -33.35635376 101.42149353 C-33.34292401 95.11552633 -33.36180331 88.8101273 -33.39080811 82.50422668 C-33.43609594 72.43252994 -33.45173046 62.36114592 -33.43126297 52.28937149 C-33.43163462 48.77839327 -33.45736721 45.26822518 -33.48495483 41.75737 C-33.48564024 39.58709216 -33.48533559 37.41681371 -33.48388672 35.24653625 C-33.49834335 34.27889343 -33.51279999 33.31125061 -33.5276947 32.31428528 C-33.4763611 23.33706811 -30.94107286 15.43541048 -24.73632812 8.79194641 C-17.35044345 2.15142624 -9.75484099 -0.04418143 0 0 Z " fill="#F8BA3D" transform="translate(57.033203125,159.7393035888672)"/>
<path d="M0 0 C9.03060079 2.73904197 17.55450351 6.60105949 26.1875 10.375 C27.86246653 11.10381053 29.53759928 11.83223915 31.21289062 12.56030273 C34.58462402 14.02616015 37.95552405 15.49390677 41.32568359 16.96337891 C46.42022086 19.18418033 51.51980344 21.39315736 56.62036133 23.60009766 C65.0750169 27.2585089 73.52565257 30.9262084 81.9765625 34.59326172 C83.04980774 35.05896072 84.12305298 35.52465973 85.2288208 36.00447083 C87.48832628 36.98509194 89.74772421 37.96596092 92.00701904 38.94706726 C97.82686465 41.47403264 103.64837146 43.99701638 109.47363281 46.51147461 C119.2784766 50.74785534 129.07062395 54.99360547 138.765625 59.4765625 C140.8078317 60.40881101 142.85089802 61.33914537 144.89428711 62.26879883 C146.68485648 63.09494365 148.46096712 63.95220707 150.23632812 64.81054688 C151.28755859 65.28814453 152.33878906 65.76574219 153.421875 66.2578125 C154.29424805 66.6717627 155.16662109 67.08571289 156.06542969 67.51220703 C160.53184076 68.25462711 163.88362242 66.68416299 168 65 C168.70419067 64.71266998 169.40838135 64.42533997 170.13391113 64.12930298 C172.30790668 63.21224554 174.46330379 62.26017924 176.6171875 61.296875 C177.41856644 60.94269501 178.21994537 60.58851501 179.04560852 60.22360229 C180.76287174 59.4643317 182.47937055 58.70333022 184.19515991 57.94073486 C188.8070865 55.89151491 193.42522204 53.85637524 198.04296875 51.8203125 C198.97673843 51.40828583 199.91050812 50.99625916 200.87257385 50.57174683 C209.28590692 46.86377433 217.73016332 43.23123538 226.1875 39.625 C238.95758362 34.17616463 251.69969228 28.66528767 264.42922974 23.12237549 C294.32055148 10.10695259 294.32055148 10.10695259 304.94558716 5.52841187 C306.70102245 4.7711286 308.45490498 4.01024911 310.20874023 3.24926758 C311.22782471 2.81122803 312.24690918 2.37318848 313.296875 1.921875 C314.16666992 1.54643555 315.03646484 1.17099609 315.93261719 0.78417969 C318 0 318 0 320 0 C320.22427135 5.2283977 320.38660029 10.45393717 320.49438477 15.68603516 C320.53935398 17.46127134 320.60055658 19.23617967 320.67895508 21.01025391 C321.39475379 37.63736915 321.39475379 37.63736915 315.62109375 44.0625 C314.11639724 45.4157434 312.58045356 46.7360594 311 48 C310.175 48.86625 309.35 49.7325 308.5 50.625 C306 53 306 53 303.81347656 54.36010742 C299.46661454 57.37934562 297.28192437 59.54462081 296.25390625 64.8515625 C295.96340407 69.46537455 296.09346707 74.0707159 296.25 78.6875 C296.30932957 81.07925345 296.35518683 83.46908185 296.37176514 85.86152649 C296.38403961 87.34227925 296.42151785 88.82310786 296.48809814 90.30241394 C296.54281382 94.22615504 296.13118096 95.8342696 293.66308594 98.95239258 C291 101 291 101 288 101.625 C283.76733091 100.74319394 282.58014023 99.49278488 280 96 C279.24205104 92.06734479 279.2094729 88.18412636 279.1875 84.1875 C279.14979492 82.57584961 279.14979492 82.57584961 279.11132812 80.93164062 C279.05256705 78.28739229 279.01620624 75.64479512 279 73 C277.59427734 73.81791016 277.59427734 73.81791016 276.16015625 74.65234375 C246.00328787 91.67152879 209.5552412 100.37718956 175 101 C173.95537598 101.02046387 172.91075195 101.04092773 171.83447266 101.06201172 C155.11447016 101.33670558 138.60965515 100.99963362 122 99 C121.21222168 98.90879883 120.42444336 98.81759766 119.61279297 98.72363281 C74.90711179 93.32370947 33.88637032 75.03388891 3 42 C2.47164551 41.47736572 1.94329102 40.95473145 1.39892578 40.41625977 C-0.67368008 36.83640283 -0.36973093 33.31526908 -0.29296875 29.296875 C-0.28872391 28.45908508 -0.28447906 27.62129517 -0.28010559 26.75811768 C-0.26334408 24.08841498 -0.22569711 21.41947363 -0.1875 18.75 C-0.17244987 16.93751092 -0.15876203 15.12500998 -0.14648438 13.3125 C-0.11344889 8.87470769 -0.06168443 4.43748283 0 0 Z " fill="#324254" transform="translate(104,243)"/>
<path d="M0 0 C0 10.89 0 21.78 0 33 C-16.19462772 40.2596607 -32.44039701 47.37838854 -48.75 54.375 C-49.64265564 54.75863708 -50.53531128 55.14227417 -51.45501709 55.53753662 C-61.11281144 59.68609658 -70.7907767 63.75166134 -80.56298828 67.62304688 C-86.10316118 69.84257914 -91.58265895 72.19871822 -97.0625 74.5625 C-98.85034912 75.33122437 -98.85034912 75.33122437 -100.67431641 76.11547852 C-112.56798121 81.23169707 -124.44687013 86.38224681 -136.32389832 91.53694153 C-142.59050732 94.25666104 -148.85868233 96.97276115 -155.12701416 99.68850708 C-158.25140816 101.04218716 -161.37569884 102.39610566 -164.5 103.75 C-165.74999951 104.29166781 -166.99999951 104.83333448 -168.25 105.375 C-168.86875 105.643125 -169.4875 105.91125 -170.125 106.1875 C-175.75 108.625 -175.75 108.625 -177.62467957 109.43734741 C-178.87576104 109.97949188 -180.12682914 110.52166722 -181.37788391 111.06387329 C-184.48622889 112.41098196 -187.59479796 113.75756841 -190.70385742 115.10302734 C-196.52763865 117.62394939 -202.34901404 120.15004723 -208.16287231 122.69378662 C-210.88922033 123.88628075 -213.61680377 125.0759341 -216.34448242 126.26538086 C-217.63611653 126.82955946 -218.9271536 127.39510729 -220.2175293 127.9621582 C-222.01456088 128.75175221 -223.81388846 129.53611432 -225.61328125 130.3203125 C-226.63204346 130.76648926 -227.65080566 131.21266602 -228.70043945 131.67236328 C-229.78929443 132.1104834 -230.87814941 132.54860352 -232 133 C-232.69186401 133.31119781 -233.38372803 133.62239563 -234.09655762 133.94302368 C-238.18323004 135.60235987 -240.9840242 136.41429087 -245.22998047 134.92626953 C-246.70584808 134.27480661 -248.16800567 133.59165745 -249.6171875 132.8828125 C-250.41888367 132.52000687 -251.22057983 132.15720123 -252.04656982 131.78340149 C-254.66893779 130.59004933 -257.2708882 129.35761292 -259.875 128.125 C-261.7151545 127.28070322 -263.55681372 126.43967892 -265.39990234 125.60180664 C-269.14981726 123.89532273 -272.89396659 122.17705064 -276.63476562 120.45068359 C-283.53946989 117.27907928 -290.51903039 114.29237567 -297.51583862 111.33093262 C-301.07280294 109.82421626 -304.62432571 108.30480224 -308.17578125 106.78515625 C-308.88694595 106.481008 -309.59811066 106.17685974 -310.33082581 105.86349487 C-319.17611064 102.07558684 -327.99411712 98.22501604 -336.8125 94.375 C-337.62967499 94.01828217 -338.44684998 93.66156433 -339.28878784 93.29403687 C-342.52552557 91.88107721 -345.76223058 90.46804266 -348.99885559 89.05482483 C-356.25581777 85.88681207 -363.51657842 82.72761075 -370.78109741 79.57696533 C-372.6086529 78.78420254 -374.43580535 77.99051085 -376.26293945 77.19677734 C-385.46216744 73.20926916 -394.66001825 69.24514525 -404.04296875 65.70703125 C-412.92091155 62.32098201 -421.603426 58.4813435 -430.3125 54.6875 C-432.03570019 53.93920644 -433.75900679 53.19115788 -435.48242188 52.44335938 C-439.65638063 50.63217016 -443.82811737 48.81599597 -448 47 C-448 36.77 -448 26.54 -448 16 C-442.00184798 17.99938401 -436.28089393 20.04951469 -430.515625 22.5625 C-429.71907501 22.90587906 -428.92252502 23.24925812 -428.10183716 23.6030426 C-426.38288116 24.34434897 -424.66460817 25.08724078 -422.94696045 25.83157349 C-418.25722857 27.86334487 -413.56195777 29.88224831 -408.8671875 31.90234375 C-407.40274704 32.53292946 -407.40274704 32.53292946 -405.90872192 33.17625427 C-395.41879495 37.68890961 -384.89868179 42.12926854 -374.375 46.5625 C-370.59102215 48.15725877 -366.8071814 49.75234249 -363.0234375 51.34765625 C-362.09696411 51.73825226 -361.17049072 52.12884827 -360.21594238 52.53128052 C-350.80250749 56.5017788 -341.40062244 60.49928362 -332 64.5 C-321.47636717 68.97804342 -310.94935829 73.44789103 -300.4140625 77.8984375 C-299.4384436 78.31074615 -298.46282471 78.72305481 -297.4576416 79.14785767 C-292.59832675 81.20054428 -287.73712751 83.24855563 -282.87207031 85.28759766 C-274.77087612 88.68691365 -266.68904369 92.10413896 -258.6953125 95.75 C-257.49696777 96.2877002 -256.29862305 96.82540039 -255.06396484 97.37939453 C-252.94631852 98.33509671 -250.83854007 99.31318196 -248.74462891 100.31982422 C-247.37830322 100.93108154 -247.37830322 100.93108154 -245.984375 101.5546875 C-245.22866211 101.91030762 -244.47294922 102.26592773 -243.69433594 102.63232422 C-236.98744594 103.5475631 -229.6788348 99.1181412 -223.64453125 96.4453125 C-222.87323883 96.1075882 -222.10194641 95.76986389 -221.30728149 95.42190552 C-218.80745367 94.32647043 -216.31001078 93.22570607 -213.8125 92.125 C-212.05952303 91.35599641 -210.30634675 90.58744701 -208.55297852 89.81933594 C-205.02529755 88.27378185 -201.49827653 86.72673698 -197.97167969 85.17871094 C-191.13639195 82.18063986 -184.2879033 79.21333024 -177.4375 76.25 C-176.20749719 75.71749953 -174.97751674 75.18494739 -173.74755859 74.65234375 C-171.33308374 73.60692099 -168.9185343 72.56167045 -166.50390625 71.51660156 C-160.81453004 69.05405941 -155.1259367 66.5897115 -149.4375 64.125 C-148.25857178 63.61420898 -147.07964355 63.10341797 -145.86499023 62.57714844 C-132.74101204 56.89010187 -119.62073087 51.19453329 -106.5 45.5 C-89.91349416 38.30128442 -73.32663151 31.10342137 -56.734375 23.91796875 C-51.88926831 21.81951956 -47.04584198 19.71723639 -42.203125 17.61328125 C-19.81204199 7.88778321 -19.81204199 7.88778321 -8.6875 3.1875 C-7.90479736 2.85580811 -7.12209473 2.52411621 -6.31567383 2.18237305 C-1.12242872 0 -1.12242872 0 0 0 Z " fill="#52637B" transform="translate(504,176)"/>
<path d="M0 0 C0.08636719 0.72445313 0.17273438 1.44890625 0.26171875 2.1953125 C1.20186619 8.66421693 2.1651826 12.5105267 7 17 C11.26233151 19.55387632 15.15072322 19.53974559 20 19 C24.70064745 17.31486224 27.47733616 15.32456659 30 11 C30.90334507 7.36095649 31.5055358 3.71498764 32 0 C39.49128156 3.36343254 44.08689434 9.09992572 47.07337952 16.74926758 C48.05578913 20.19571716 48.27302905 23.06605145 48.30639648 26.64453125 C48.32238388 27.94608154 48.33837128 29.24763184 48.35484314 30.58862305 C48.36121908 31.99657801 48.36661206 33.40453773 48.37109375 34.8125 C48.38007008 36.269288 48.38919209 37.72607511 48.39845276 39.18286133 C48.41489688 42.22902663 48.422635 45.27508258 48.42553711 48.32128906 C48.43092939 52.21533127 48.46866208 56.10834034 48.51428127 60.00209045 C48.54408421 63.00821659 48.55126128 66.01409422 48.55226326 69.02035522 C48.55645591 70.45564528 48.56885201 71.89093673 48.58978081 73.32608032 C48.75903987 85.93082515 48.75903987 85.93082515 45.62133789 89.81152344 C43.14925998 91.87538731 40.79830567 93.65846365 38 95.25 C37.175 95.72953125 36.35 96.2090625 35.5 96.703125 C24.94619283 102.17791247 12.30159743 102.50925398 1 99 C-5.517148 96.06313235 -12.19256904 92.22348382 -16 86 C-16.38768005 83.08065796 -16.38768005 83.08065796 -16.40405273 79.64599609 C-16.41673691 78.35720551 -16.42942108 77.06841492 -16.44248962 75.74057007 C-16.44043696 74.33485758 -16.43744791 72.9291462 -16.43359375 71.5234375 C-16.43815857 70.07337195 -16.44346504 68.62330856 -16.44947815 67.17324829 C-16.45841181 64.13184841 -16.45598702 61.090711 -16.44604492 58.04931641 C-16.43460961 54.17588415 -16.45468021 50.30337097 -16.48396206 46.43005943 C-16.50243592 43.43232576 -16.50200864 40.4348072 -16.49632454 37.43703079 C-16.49617239 36.01066431 -16.50212774 34.58428224 -16.51461601 33.15797043 C-16.58907448 23.25169044 -15.82248358 14.68452867 -9.625 6.625 C-3 0 -3 0 0 0 Z " fill="#E89837" transform="translate(24,292)"/>
<path d="M0 0 C3.73491016 0.93778783 7.20113495 2.26774472 10.73291016 3.7746582 C11.44837006 4.0739624 12.16382996 4.3732666 12.90097046 4.68164062 C15.23047157 5.65816277 17.55593336 6.64391703 19.88134766 7.63012695 C21.4918366 8.30790164 23.10251551 8.98522513 24.71337891 9.66210938 C29.56530273 11.70392883 34.41145168 13.75919732 39.25634766 15.81762695 C39.98946167 16.12877441 40.72257568 16.43992187 41.47790527 16.76049805 C61.5401175 25.2763849 61.5401175 25.2763849 67.25634766 27.81762695 C67.98337891 28.13304443 68.71041016 28.44846191 69.45947266 28.7734375 C71.25634766 29.81762695 71.25634766 29.81762695 73.25634766 32.81762695 C73.87055475 36.853845 73.59989888 38.33873736 71.19384766 41.69262695 C68.25436487 43.81906131 66.93937544 44.30119573 63.38745117 44.17895508 C58.71911222 43.38743925 54.51377445 41.12234528 50.25634766 39.13012695 C48.03626455 38.12081603 45.81484347 37.11444433 43.59228516 36.1105957 C42.4124707 35.57611816 41.23265625 35.04164063 40.01708984 34.4909668 C32.71381645 31.21659612 25.30095604 28.19176779 17.90917969 25.12417603 C14.82100588 23.84194525 11.7361375 22.55313675 8.65576172 21.25219727 C6.44542398 20.31942331 4.22884553 19.40125556 2.00537109 18.50024414 C1.02342773 18.08677734 0.04148437 17.67331055 -0.97021484 17.24731445 C-1.82437988 16.89652832 -2.67854492 16.54574219 -3.55859375 16.18432617 C-6.30722255 14.46512796 -7.32053924 12.69924839 -8.74365234 9.81762695 C-9.30615234 7.31762695 -9.30615234 7.31762695 -8.74365234 4.81762695 C-4.09633927 -0.27228737 -4.09633927 -0.27228737 0 0 Z " fill="#8C97A8" transform="translate(293.74365234375,110.182373046875)"/>
<path d="M0 0 C4.16177099 0.86703562 5.42790056 2.24458005 8 5.625 C8.68103665 8.93257164 8.58320728 12.15466757 8.48828125 15.51953125 C8.48120651 16.46688644 8.47413177 17.41424164 8.46684265 18.39030457 C8.43892334 21.40685021 8.37618915 24.4215184 8.3125 27.4375 C8.28741396 29.48630126 8.26460133 31.5351317 8.24414062 33.58398438 C8.18910459 38.59837621 8.10284856 43.61137014 8 48.625 C5.05173237 49.60775588 3.07347496 49.75914725 0 49.75 C-1.299375 49.75386719 -1.299375 49.75386719 -2.625 49.7578125 C-5 49.625 -5 49.625 -8 48.625 C-8.12374395 42.59276797 -8.21440813 36.56127715 -8.2746582 30.52807617 C-8.29977806 28.47651294 -8.33388036 26.42503899 -8.37719727 24.3737793 C-8.43796002 21.42213909 -8.46623492 18.4716835 -8.48828125 15.51953125 C-8.51408768 14.60476517 -8.5398941 13.68999908 -8.56648254 12.74751282 C-8.56847297 8.21218804 -8.48157193 6.25791307 -5.65698242 2.5456543 C-3 0.625 -3 0.625 0 0 Z " fill="#D68022" transform="translate(40,343.375)"/>
<path d="M0 0 C4.0743356 0.84881992 5.54405875 2.30225596 8 5.625 C8.625 8.625 8.625 8.625 8 11.625 C5.54405875 14.94774404 4.0743356 16.40118008 0 17.25 C-4.0743356 16.40118008 -5.54405875 14.94774404 -8 11.625 C-8.625 8.625 -8.625 8.625 -8 5.625 C-5.54405875 2.30225596 -4.0743356 0.84881992 0 0 Z " fill="#324254" transform="translate(392,359.375)"/>
<path d="M0 0 C1.91015625 0.4453125 1.91015625 0.4453125 4.47265625 2.5078125 C6.3464113 6.33679022 6.03978326 8.37865526 4.91015625 12.4453125 C3.84765625 14.3828125 3.84765625 14.3828125 1.91015625 15.4453125 C-4.88229658 16.20002948 -4.88229658 16.20002948 -8.58984375 13.8828125 C-10.67377193 10.49642921 -10.64786472 8.35145932 -10.08984375 4.4453125 C-7.53315462 0.29069266 -4.61630624 -0.25885829 0 0 Z " fill="#8C97A8" transform="translate(268.08984375,98.5546875)"/>
</svg>
