<?xml version="1.0" encoding="UTF-8"?>
<svg version="1.1" xmlns="http://www.w3.org/2000/svg" width="512" height="512">
<path d="M0 0 C8.98855052 8.6221626 11.18895091 22.61032809 14.42578125 34.16796875 C15.00124095 36.20291558 15.57702698 38.23777016 16.15312195 40.27253723 C17.35448294 44.52613898 18.54756245 48.78196432 19.7355957 53.03930664 C21.24967904 58.46016151 22.79078192 63.87291435 24.33912373 69.28406811 C25.5356907 73.48169646 26.71423317 77.68423417 27.88796043 81.88829994 C28.44821807 83.8844819 29.01466316 85.87893915 29.58773232 87.87148094 C37.37373541 115.01723179 37.37373541 115.01723179 32.1875 126.875 C26.09387456 137.12643065 15.60922144 143.73114147 6.30810547 150.86425781 C4.41014591 152.3215769 2.51755291 153.7856707 0.625 155.25 C0.04548584 155.68989258 -0.53402832 156.12978516 -1.13110352 156.58300781 C-5.97961779 160.33844664 -10.11962756 163.97139822 -11.0234375 170.28515625 C-11.79881739 186.71724547 5.35999104 202.64614515 15.25 214.375 C15.69811035 214.90802734 16.1462207 215.44105469 16.60791016 215.99023438 C18.08813721 217.74747177 19.57419798 219.49959792 21.0625 221.25 C21.49949219 221.76643066 21.93648437 222.28286133 22.38671875 222.81494141 C31.92646199 233.95474751 42.1509395 244.44001924 52.53320312 254.78857422 C54.51550244 256.7654601 56.49232633 258.74771039 58.46875 260.73046875 C64.55819283 266.82344048 70.64106587 272.83992127 77.25 278.375 C78.36869323 279.34722848 79.48590408 280.3211655 80.6015625 281.296875 C91.62044991 290.84269362 102.9995414 299.80863029 114.75 308.4375 C115.5037793 308.99816162 116.25755859 309.55882324 117.03417969 310.13647461 C123.14895902 314.5763183 128.28767944 317.19475541 135.96484375 316.015625 C144.77135329 313.54679156 149.70704018 305.20666626 154.85546875 298.23388672 C157.33210651 294.93257021 159.91737159 291.71861878 162.5 288.5 C162.98307617 287.89422119 163.46615234 287.28844238 163.96386719 286.66430664 C165.38258597 284.89285028 166.81483346 283.1331459 168.25 281.375 C168.75442627 280.74295654 169.25885254 280.11091309 169.77856445 279.4597168 C172.54414818 276.08297375 174.76126717 273.53283512 178.9375 271.9375 C179.68386719 271.62941406 180.43023437 271.32132812 181.19921875 271.00390625 C192.92310252 268.5870749 203.62596801 272.27563946 214.828125 275.44921875 C216.72671895 275.97644951 218.6256308 276.50253668 220.52484131 277.02754211 C224.49442338 278.12790901 228.4613116 279.23733544 232.42626953 280.35424805 C237.46673114 281.77406069 242.51133108 283.17837495 247.55778885 284.57670879 C252.42021791 285.92473085 257.28051171 287.28037563 262.140625 288.63671875 C263.04733192 288.88914526 263.95403885 289.14157177 264.88822174 289.40164757 C273.52326069 291.81076829 282.14735549 294.2542211 290.68261719 296.99926758 C292.40844025 297.55243401 292.40844025 297.55243401 294.16912842 298.11677551 C301.63935546 301.16760783 306.48762321 306.46030305 309.59375 313.80859375 C311.44319474 321.04124373 311.30908231 327.67308579 310.125 335 C309.98666748 335.87100342 309.84833496 336.74200684 309.70581055 337.6394043 C305.42077799 362.87502825 292.7942286 383.25216506 272.25 398.375 C244.2610203 417.73866294 210.51071708 421.8200796 177.53369141 415.88623047 C141.90825427 408.84421242 109.42376625 393.27697709 79.25 373.375 C78.45029785 372.8500293 77.6505957 372.32505859 76.82666016 371.78417969 C66.05956897 364.68105548 55.86921592 357.11092921 45.98681641 348.82373047 C43.49621507 346.74624546 40.96410715 344.7209363 38.4375 342.6875 C33.83226644 338.91895302 29.42126466 334.96711696 25.05078125 330.9296875 C22.916973 328.98336868 20.76114553 327.08887437 18.57324219 325.20532227 C14.30660092 321.47548771 10.27748022 317.54719234 6.27734375 313.53515625 C5.1872274 312.44647499 5.1872274 312.44647499 4.0750885 311.33580017 C2.55037704 309.81176444 1.0269085 308.28648431 -0.49536133 306.76000977 C-2.80633891 304.44367537 -5.12260771 302.13272922 -7.43945312 299.82226562 C-8.9300082 298.33104966 -10.420253 296.83952347 -11.91015625 295.34765625 C-12.93388084 294.326968 -12.93388084 294.326968 -13.97828674 293.28565979 C-18.43368379 288.8088002 -22.63915503 284.16888944 -26.75 279.375 C-27.72321649 278.2571662 -28.69705075 277.13986951 -29.671875 276.0234375 C-75.59103777 223.01269757 -116.9893223 157.01791298 -112.75 84.375 C-112.26874911 78.56615985 -111.26632638 72.99941715 -109.75 67.375 C-109.55664062 66.65199707 -109.36328125 65.92899414 -109.1640625 65.18408203 C-102.223238 40.24317178 -87.26340931 18.86919214 -64.76831055 5.55126953 C-46.49813438 -4.70256302 -18.20090324 -13.74832176 0 0 Z " fill="#FFC100" transform="translate(125.75,81.625)"/>
<path d="M0 0 C0.53866699 0.42152344 1.07733398 0.84304687 1.63232422 1.27734375 C17.50756749 13.78965384 32.21575193 28.56984702 44 45 C45.15822266 46.59328125 45.15822266 46.59328125 46.33984375 48.21875 C68.61260922 79.59098718 82.96259051 115.02476379 89 153 C89.12842285 153.74411133 89.2568457 154.48822266 89.38916016 155.25488281 C93.52374209 179.7154165 92.068404 206.67103992 88 231 C87.88253418 231.72912598 87.76506836 232.45825195 87.64404297 233.20947266 C86.49133384 240.07371288 85.32406502 245.30975224 80 250 C76.37762227 252.25174832 73.19851064 252.27667749 68.99609375 251.609375 C64.94203249 250.37173595 62.03460468 247.73022626 59.85546875 244.0859375 C56.88541205 236.84388144 59.55392772 227.65562902 60.84448242 220.21655273 C69.85195825 167.78702016 56.04388652 110.74451034 25.48046875 67.40234375 C24.65761831 66.26534367 23.83077648 65.13122167 23 64 C22.57928223 63.42523926 22.15856445 62.85047852 21.72509766 62.25830078 C-12.30262043 16.31256944 -62.98331763 -12.63904737 -119.2355957 -21.59472656 C-128.88044459 -23.00870247 -138.45587274 -23.23724786 -148.1875 -23.25 C-148.9317926 -23.25200409 -149.67608521 -23.25400818 -150.44293213 -23.256073 C-164.04005542 -23.26500528 -177.87486046 -22.79148676 -191.12988281 -19.46557617 C-196.00326225 -18.252321 -200.69825874 -18.51787361 -205.375 -20.25 C-209.08256388 -22.72170925 -210.59952944 -24.79858832 -212 -29 C-212.50171564 -35.12093081 -212.08833623 -38.1167095 -208 -43 C-205.25585913 -45.35206945 -203.15073585 -46.44373376 -199.60546875 -47.09765625 C-198.7441333 -47.2584668 -197.88279785 -47.41927734 -196.99536133 -47.58496094 C-196.06876709 -47.74254883 -195.14217285 -47.90013672 -194.1875 -48.0625 C-192.73283325 -48.31628418 -192.73283325 -48.31628418 -191.2487793 -48.57519531 C-123.51050074 -59.87670349 -53.86556675 -42.70842667 0 0 Z " fill="#FFC100" transform="translate(408,64)"/>
<path d="M0 0 C0.6595166 0.20431641 1.3190332 0.40863281 1.99853516 0.61914062 C36.56293543 11.65312703 66.62561919 35.01410277 88 64 C88.4228125 64.56783203 88.845625 65.13566406 89.28125 65.72070312 C116.34973506 102.55921951 125.67104318 150.24207254 119 195 C116.81996803 207.89959747 116.81996803 207.89959747 112 213 C107.90496476 215.67067515 103.7392585 215.65823035 99 215 C95.28984719 213.21363013 93.4721022 211.67667982 91.125 208.3125 C89.09041908 202.32178951 89.77277219 196.94496838 90.9375 190.8125 C97.25998314 155.01541922 89.32362811 116.06242832 68.65576172 86.04785156 C59.28841544 72.78564459 49.04925268 60.79587736 36 51 C35.03835938 50.27296875 34.07671875 49.5459375 33.0859375 48.796875 C7.83514845 30.51402521 -21.47855807 20.79595035 -52.625 20.8125 C-54.50251953 20.8115332 -54.50251953 20.8115332 -56.41796875 20.81054688 C-63.81967458 20.8529967 -70.80313391 21.26872788 -78.09375 22.5390625 C-84.50689115 23.55620048 -90.54524461 24.0766471 -96.5625 21.4375 C-99.96293892 18.03706108 -101.76140893 14.88581584 -102.1640625 10.015625 C-101.9274896 5.32056289 -100.3512232 1.85307496 -97.09765625 -1.53125 C-92.60365349 -4.67788881 -87.32311896 -5.20683852 -82 -6 C-80.74058594 -6.20367187 -79.48117188 -6.40734375 -78.18359375 -6.6171875 C-52.01551024 -10.48492822 -25.17714934 -7.88750649 0 0 Z " fill="#FFC100" transform="translate(312,86)"/>
<path d="M0 0 C18.15096358 15.93837613 29.92953125 35.70119688 36 59 C36.36931641 60.39992187 36.36931641 60.39992187 36.74609375 61.828125 C39.90810338 76.74408769 40.6826843 98.05344779 33.96875 112.16796875 C31.49140007 115.69149685 28.22278188 117.18545345 24.12109375 117.9453125 C20.31176837 118.04352715 17.24356185 116.94901388 14 115 C9.72300761 110.61334114 8.89140849 107.29782605 8.8671875 101.23046875 C9 99 9 99 9.48828125 96.3203125 C12.74736941 75.17355729 8.11482771 54.23375239 -4.2734375 36.80078125 C-6.42891377 34.10459677 -8.66241924 31.53880108 -11 29 C-11.53882813 28.36964844 -12.07765625 27.73929688 -12.6328125 27.08984375 C-24.75463674 13.71928888 -44.61339726 5.17900196 -62.39599609 3.81640625 C-71.64422148 3.44446877 -80.8358941 3.96681305 -90.01953125 5.07421875 C-93.72118024 4.98204138 -95.8577496 3.91112825 -99 2 C-102.26331306 -1.52094303 -103.28814732 -4.30393216 -103.5 -9 C-103.28064922 -13.70542792 -102.32280992 -16.50678957 -99 -20 C-70.48824394 -37.35498195 -22.64879469 -18.84799118 0 0 Z " fill="#FFC100" transform="translate(327,170)"/>
</svg>
