<?xml version="1.0" encoding="UTF-8"?>
<svg version="1.1" xmlns="http://www.w3.org/2000/svg" width="512" height="512">
<path d="M0 0 C3.11699237 1.48286347 6.11389935 3.10220041 9.12329102 4.79248047 C10.77397583 5.68604248 10.77397583 5.68604248 12.45800781 6.59765625 C14.68176952 7.80186401 16.90134487 9.01383786 19.11645508 10.23388672 C23.21278781 12.48080928 27.35368386 14.63647756 31.49829102 16.79248047 C36.82299255 19.58954291 42.12866198 22.42083596 47.42407227 25.27294922 C49.71950988 26.50887763 52.01508746 27.74454611 54.31079102 28.97998047 C55.18548538 29.45073502 55.18548538 29.45073502 56.07785034 29.93099976 C66.01317581 35.27235164 76.02185614 40.46145542 86.06079102 45.60498047 C95.67464648 50.53299562 105.26124531 55.4977209 114.74829102 60.66748047 C115.60342285 61.1324292 116.45855469 61.59737793 117.33959961 62.07641602 C130.66604572 69.39773518 130.66604572 69.39773518 134.18579102 72.91748047 C134.96912759 79.21614601 132.98204468 83.30248576 130.06079102 88.66748047 C129.68180664 89.42158203 129.30282227 90.17568359 128.91235352 90.95263672 C126.41646047 95.636596 124.43002881 98.15286532 119.18579102 99.91748047 C115.1056441 99.67267165 112.90036481 98.77476737 109.18579102 96.91748047 C109.18579102 112.75748047 109.18579102 128.59748047 109.18579102 144.91748047 C112.48579102 144.91748047 115.78579102 144.91748047 119.18579102 144.91748047 C122.1853765 146.16730775 123.60690629 146.97089982 125.29199219 149.72631836 C126.94086825 153.76856437 126.5129774 158.04599645 126.49829102 162.35498047 C126.5144043 163.29664063 126.53051758 164.23830078 126.54711914 165.20849609 C126.55327214 173.9273021 126.55327214 173.9273021 123.18579102 177.91748047 C121.18579102 178.91748047 121.18579102 178.91748047 111.18579102 178.91748047 C111.18579102 189.47748047 111.18579102 200.03748047 111.18579102 210.91748047 C115.22933838 210.93206299 119.27288574 210.94664551 123.43896484 210.96166992 C136.77427159 211.01192699 150.10945621 211.0783546 163.44464588 211.15319538 C171.53258271 211.19818983 179.62047516 211.23759597 187.70849609 211.26391602 C194.75678427 211.28686666 201.80493238 211.32023156 208.85310954 211.36618203 C212.58621002 211.3901541 216.31917145 211.40885664 220.05234718 211.41509438 C224.21657778 211.42224726 228.38032341 211.4526471 232.54443359 211.48510742 C233.78664673 211.48367233 235.02885986 211.48223724 236.30871582 211.48075867 C237.44033646 211.49329681 238.57195709 211.50583496 239.73786926 211.51875305 C240.72326596 211.52336202 241.70866266 211.52797098 242.72391987 211.53271961 C245.18579102 211.91748047 245.18579102 211.91748047 247.00202465 213.26344585 C248.8440255 215.83720809 248.57494019 218.10556316 248.58422852 221.22998047 C248.5880957 222.47005859 248.59196289 223.71013672 248.59594727 224.98779297 C248.57854492 226.93298828 248.57854492 226.93298828 248.56079102 228.91748047 C248.57239258 230.21427734 248.58399414 231.51107422 248.59594727 232.84716797 C248.59208008 234.08724609 248.58821289 235.32732422 248.58422852 236.60498047 C248.58084473 237.74322266 248.57746094 238.88146484 248.57397461 240.05419922 C248.18579102 242.91748047 248.18579102 242.91748047 247.16088867 244.81201172 C243.98454857 246.58981988 240.7882356 245.98168678 237.18579102 245.91748047 C237.1873099 246.46361801 237.18882878 247.00975555 237.19039369 247.57244271 C237.27987824 279.93072826 237.34852317 312.2889811 237.39005233 344.64736183 C237.39505525 348.53142827 237.40023253 352.41549447 237.40551758 356.29956055 C237.40656682 357.07281822 237.40761606 357.84607589 237.4086971 358.64276562 C237.42610913 371.16832175 237.45765119 383.69380455 237.4944022 396.21931716 C237.53178947 409.06870774 237.55402217 421.91805987 237.56214499 434.76750261 C237.56763739 442.69829785 237.58499336 450.62888585 237.61745688 458.55961732 C237.64107189 464.63777682 237.64361647 470.7157575 237.63822174 476.7939682 C237.63932478 479.28973226 237.64731558 481.78550397 237.66261292 484.28122139 C237.68244202 487.6822948 237.67775529 491.08247322 237.66680908 494.48356628 C237.67846045 495.47675769 237.69011181 496.46994909 237.70211625 497.4932372 C237.66421729 501.8338796 237.59992032 504.24584829 235.28072739 508.00710011 C231.53684949 511.42115646 228.32766836 511.06114574 223.48855877 511.05170155 C222.68070644 511.05405378 221.87285411 511.05640601 221.04052141 511.05882952 C218.30440075 511.06554336 215.56832732 511.06506058 212.8321991 511.06465149 C210.86238113 511.06794862 208.89256385 511.07167387 206.92274743 511.07579297 C201.4869659 511.08583807 196.05119542 511.08953378 190.61540592 511.09218228 C184.76184357 511.09607787 178.90829002 511.10565665 173.05473328 511.11439514 C159.57668338 511.13324446 146.09863357 511.14341834 132.62057366 511.15185582 C125.29629178 511.15648112 117.97201092 511.16234314 110.64772987 511.1681118 C88.53522385 511.18521077 66.42271803 511.19964605 44.31020641 511.20686054 C42.87971134 511.2073353 41.44921626 511.20781119 40.01872118 511.2082882 C38.95460471 511.20864277 38.95460471 511.20864277 37.86899093 511.2090045 C34.27463978 511.21020572 30.68028864 511.21142116 27.0859375 511.21264648 C26.37262226 511.21288663 25.65930702 511.21312678 24.92437617 511.21337421 C1.78880172 511.22126991 -21.3467215 511.24470697 -44.48227357 511.27720243 C-68.93063577 511.31147926 -93.37896798 511.33120966 -117.82735461 511.33450478 C-131.15927996 511.33658005 -144.49113713 511.34547792 -157.8230381 511.37096596 C-169.17368005 511.3926156 -180.52422844 511.40075171 -191.8748887 511.39099918 C-197.66988268 511.3864379 -203.4646834 511.38844642 -209.25965118 511.40776062 C-214.560172 511.42527492 -219.86035685 511.42449066 -225.16088065 511.40886333 C-227.08283924 511.40646932 -229.00482039 511.41090267 -230.92674432 511.42269198 C-233.53139441 511.43768504 -236.1348346 511.42822653 -238.73945332 511.4124651 C-239.49262367 511.4226873 -240.24579403 511.43290951 -241.02178773 511.44344148 C-245.89451241 511.37870453 -248.39797105 510.39387394 -251.81420898 506.91748047 C-252.98249512 504.58090819 -252.93851425 503.22939065 -252.93725681 500.62648582 C-252.94024339 499.2672135 -252.94024339 499.2672135 -252.94329029 497.88048112 C-252.93892103 496.37758624 -252.93892103 496.37758624 -252.9344635 494.84432983 C-252.93531793 493.78498092 -252.93617235 492.72563201 -252.93705267 491.63418162 C-252.93870841 488.06111725 -252.93318453 484.48809915 -252.92773438 480.91503906 C-252.9274525 478.36305238 -252.92761025 475.81106562 -252.92817688 473.25907898 C-252.92840508 467.75280537 -252.92555661 462.24654684 -252.91993904 456.74027634 C-252.91182219 448.77907338 -252.90920863 440.81787615 -252.90795105 432.8566695 C-252.90576082 419.94106418 -252.89910153 407.02546517 -252.88964844 394.10986328 C-252.88047356 381.561361 -252.8733931 369.01286043 -252.86914062 356.46435547 C-252.8688779 355.69124906 -252.86861518 354.91814265 -252.86834449 354.12160878 C-252.86703948 350.2432756 -252.86577577 346.36494242 -252.86453259 342.48660922 C-252.85416089 310.29689505 -252.83654337 278.10718864 -252.81420898 245.91748047 C-254.0934726 245.94028076 -255.37273621 245.96308105 -256.69076538 245.98657227 C-260.56732178 246.05566406 -260.56732178 246.05566406 -262.78930664 244.81201172 C-264.29177996 242.03469087 -264.20329174 239.75173951 -264.21264648 236.60498047 C-264.21651367 235.36490234 -264.22038086 234.12482422 -264.22436523 232.84716797 C-264.21276367 231.55037109 -264.20116211 230.25357422 -264.18920898 228.91748047 C-264.20081055 227.62068359 -264.21241211 226.32388672 -264.22436523 224.98779297 C-264.22049805 223.74771484 -264.21663086 222.50763672 -264.21264648 221.22998047 C-264.2092627 220.09173828 -264.20587891 218.95349609 -264.20239258 217.78076172 C-263.81420898 214.91748047 -263.81420898 214.91748047 -262.63044262 213.26344585 C-260.13578534 211.41471765 -258.45731607 211.53321062 -255.36628723 211.51875305 C-254.2346666 211.5062149 -253.10304596 211.49367676 -251.93713379 211.48075867 C-250.07381409 211.4829113 -250.07381409 211.4829113 -248.17285156 211.48510742 C-246.86543503 211.47491577 -245.55801849 211.46472412 -244.21098328 211.45422363 C-240.62447646 211.42660334 -237.0381282 211.41736238 -233.45152879 211.41136956 C-229.70384303 211.40199889 -225.95627632 211.37579663 -222.20866394 211.35136414 C-215.11142756 211.30765932 -208.01421423 211.27913689 -200.91688412 211.25604075 C-192.83709344 211.22901036 -184.75742228 211.18509758 -176.67771685 211.13975203 C-160.05659552 211.04684869 -143.43548683 210.97742291 -126.81420898 210.91748047 C-126.81420898 200.35748047 -126.81420898 189.79748047 -126.81420898 178.91748047 C-130.11420898 178.91748047 -133.41420898 178.91748047 -136.81420898 178.91748047 C-139.3905837 177.03232824 -140.41088327 175.7241319 -141.81420898 172.91748047 C-142.08061761 169.48605663 -142.04577301 166.04559329 -142.06420898 162.60498047 C-142.08483398 161.65429688 -142.10545898 160.70361328 -142.12670898 159.72412109 C-142.17709075 150.71208354 -142.17709075 150.71208354 -138.81420898 146.91748047 C-134.81420898 144.91748047 -134.81420898 144.91748047 -124.81420898 144.91748047 C-124.81420898 129.07748047 -124.81420898 113.23748047 -124.81420898 96.91748047 C-127.12420898 97.90748047 -129.43420898 98.89748047 -131.81420898 99.91748047 C-135.29294566 99.84926995 -137.05034884 99.55793581 -139.72436523 97.31591797 C-142.35399147 94.29799178 -144.18168203 91.12251694 -146.06420898 87.60498047 C-146.42772461 86.96625 -146.79124023 86.32751953 -147.16577148 85.66943359 C-149.50242909 81.33431882 -150.73123846 77.9317506 -149.81420898 72.91748047 C-144.972861 67.40277599 -137.77673822 64.60430441 -131.31420898 61.35498047 C-128.85113848 60.10132751 -126.39114757 58.84169399 -123.93139648 57.58154297 C-123.31767181 57.2678627 -122.70394714 56.95418243 -122.07162476 56.6309967 C-116.80340843 53.93107438 -111.61524523 51.10139884 -106.43920898 48.22998047 C-96.44151272 42.70892146 -86.29260601 37.49459543 -76.12670898 32.29248047 C-75.31255524 31.87581116 -74.49840149 31.45914185 -73.65957642 31.02984619 C-70.47768126 29.40162674 -67.29570188 27.77357203 -64.11357117 26.14581299 C-58.60370283 23.32583685 -53.10440222 20.48706312 -47.62670898 17.60498047 C-46.93689941 17.2446875 -46.24708984 16.88439453 -45.53637695 16.51318359 C-41.06308746 14.15980374 -36.65660645 11.70346732 -32.25952148 9.21044922 C-30.50280078 8.22731569 -28.74472708 7.2466587 -26.9859314 6.26724243 C-25.30436132 5.322075 -23.6357988 4.35388064 -21.96777344 3.38500977 C-14.33090561 -0.86359953 -8.44809384 -3.2496615 0 0 Z " fill="#BED9FC" transform="translate(263.814208984375,1.08251953125)"/>
<path d="M0 0 C1.80725445 -0.00619874 1.80725445 -0.00619874 3.6510191 -0.0125227 C4.99332575 -0.00188229 6.33563027 0.0090314 7.67793274 0.02018738 C9.1100579 0.02110626 10.54218442 0.02070611 11.97430897 0.01909161 C15.81341959 0.01841365 19.65225034 0.03581505 23.49129486 0.05692291 C27.09221287 0.07399364 30.69306241 0.07481148 34.29402161 0.07695007 C44.82868603 0.09269908 55.36329826 0.13458246 65.89790344 0.17326355 C89.43102844 0.23513855 112.96415344 0.29701355 137.21040344 0.36076355 C137.21040344 66.03076355 137.21040344 131.70076355 137.21040344 199.36076355 C134.57040344 199.69076355 131.93040344 200.02076355 129.21040344 200.36076355 C128.88040344 210.92076355 128.55040344 221.48076355 128.21040344 232.36076355 C133.39493225 232.35552673 138.57946106 232.35028992 143.9210968 232.34489441 C161.29923511 232.32811779 178.67737379 232.3171462 196.05551815 232.30895138 C206.56328696 232.30386143 217.07104786 232.29693689 227.57881165 232.2853241 C273.8011481 232.23522076 319.99865332 232.26848806 366.21040344 233.36076355 C365.88040344 222.47076355 365.55040344 211.58076355 365.21040344 200.36076355 C362.57040344 200.03076355 359.93040344 199.70076355 357.21040344 199.36076355 C357.21040344 133.69076355 357.21040344 68.02076355 357.21040344 0.36076355 C392.51009094 0.26795105 392.51009094 0.26795105 428.52290344 0.17326355 C435.9611969 0.14595154 443.39949036 0.11863953 451.06318665 0.09049988 C460.12678528 0.07695007 460.12678528 0.07695007 464.36608887 0.07443237 C467.33519171 0.07163059 470.30413462 0.06036137 473.27319336 0.04403687 C477.0569491 0.02350756 480.84047121 0.01728106 484.62427747 0.02154672 C486.01508686 0.02065434 487.40590415 0.01467688 488.79666579 0.00311816 C490.67132088 -0.01174215 492.54610392 -0.00643008 494.42080688 0 C495.99845558 -0.00414807 495.99845558 -0.00414807 497.60797596 -0.00837994 C500.21040344 0.36076355 500.21040344 0.36076355 502.04799175 1.70435619 C503.8588062 4.28472114 503.59958587 6.56003492 503.60884094 9.67326355 C503.61270813 10.91334167 503.61657532 12.1534198 503.62055969 13.43107605 C503.60315735 15.37627136 503.60315735 15.37627136 503.58540344 17.36076355 C503.597005 18.65756042 503.60860657 19.9543573 503.62055969 21.29045105 C503.6166925 22.53052917 503.61282532 23.7706073 503.60884094 25.04826355 C503.60545715 26.18650574 503.60207336 27.32474792 503.59858704 28.4974823 C503.21040344 31.36076355 503.21040344 31.36076355 502.1855011 33.2552948 C499.00916099 35.03310296 495.81284802 34.42496986 492.21040344 34.36076355 C492.21192232 34.90690109 492.21344121 35.45303863 492.21500611 36.01572579 C492.30449066 68.37401134 492.3731356 100.73226418 492.41466476 133.09064491 C492.41966767 136.97471136 492.42484495 140.85877755 492.43013 144.74284363 C492.43117925 145.5161013 492.43222849 146.28935898 492.43330953 147.0860487 C492.45072155 159.61160483 492.48226361 172.13708763 492.51901463 184.66260024 C492.55640189 197.51199082 492.5786346 210.36134295 492.58675742 223.21078569 C492.59224981 231.14158094 492.60960579 239.07216894 492.64206931 247.0029004 C492.66568431 253.0810599 492.6682289 259.15904058 492.66283417 265.23725128 C492.6639372 267.73301534 492.671928 270.22878705 492.68722534 272.72450447 C492.70705444 276.12557789 492.70236772 279.5257563 492.69142151 282.92684937 C492.70307287 283.92004077 492.71472424 284.91323217 492.72672868 285.93652028 C492.68882971 290.27716268 492.62453275 292.68913137 490.30533981 296.45038319 C486.56146191 299.86443954 483.35228078 299.50442882 478.5131712 299.49498463 C477.70531887 299.49733686 476.89746654 299.49968909 476.06513384 299.5021126 C473.32901318 299.50882644 470.59293975 299.50834366 467.85681152 299.50793457 C465.88699356 299.51123171 463.91717628 299.51495695 461.94735986 299.51907605 C456.51157833 299.52912115 451.07580784 299.53281686 445.64001834 299.53546536 C439.78645599 299.53936095 433.93290245 299.54893973 428.0793457 299.55767822 C414.60129581 299.57652754 401.12324599 299.58670142 387.64518608 299.5951389 C380.32090421 299.59976421 372.99662335 299.60562623 365.6723423 299.61139488 C343.55983628 299.62849385 321.44733046 299.64292913 299.33481884 299.65014362 C297.90432376 299.65061838 296.47382869 299.65109427 295.04333361 299.65157128 C293.97921713 299.65192585 293.97921713 299.65192585 292.89360335 299.65228758 C289.29925221 299.6534888 285.70490106 299.65470424 282.11054993 299.65592957 C281.39723469 299.65616972 280.68391945 299.65640987 279.9489886 299.65665729 C256.81341415 299.66455299 233.67789093 299.68799005 210.54233885 299.72048551 C186.09397666 299.75476234 161.64564444 299.77449274 137.19725782 299.77778786 C123.86533247 299.77986313 110.5334753 299.788761 97.20157433 299.81424904 C85.85093237 299.83589868 74.50038399 299.84403479 63.14972373 299.83428226 C57.35472974 299.82972099 51.55992903 299.8317295 45.76496124 299.8510437 C40.46444043 299.868558 35.16425558 299.86777374 29.86373178 299.85214641 C27.94177319 299.8497524 26.01979203 299.85418575 24.09786811 299.86597506 C21.49321802 299.88096812 18.88977783 299.87150961 16.28515911 299.85574818 C15.53198875 299.86597038 14.7788184 299.87619259 14.00282469 299.88672456 C9.13010002 299.82198761 6.62664138 298.83715702 3.21040344 295.36076355 C2.0421173 293.02419127 2.08609817 291.67267373 2.08735561 289.06976891 C2.08436904 287.71049658 2.08436904 287.71049658 2.08132213 286.3237642 C2.0856914 284.82086932 2.0856914 284.82086932 2.09014893 283.28761292 C2.0892945 282.228264 2.08844008 281.16891509 2.08755976 280.0774647 C2.08590401 276.50440033 2.0914279 272.93138223 2.09687805 269.35832214 C2.09715993 266.80633546 2.09700218 264.2543487 2.09643555 261.70236206 C2.09620734 256.19608846 2.09905581 250.68982992 2.10467339 245.18355942 C2.11279024 237.22235646 2.1154038 229.26115923 2.11666138 221.29995258 C2.1188516 208.38434727 2.1255109 195.46874825 2.13496399 182.55314636 C2.14413886 170.00464408 2.15121933 157.45614351 2.1554718 144.90763855 C2.15573453 144.13453214 2.15599725 143.36142573 2.15626793 142.56489186 C2.15757294 138.68655868 2.15883666 134.8082255 2.16007984 130.9298923 C2.17045154 98.74017813 2.18806906 66.55047172 2.21040344 34.36076355 C0.93113983 34.38356384 -0.34812378 34.40636414 -1.66615295 34.42985535 C-5.54270935 34.49894714 -5.54270935 34.49894714 -7.76469421 33.2552948 C-9.26716753 30.47797395 -9.17867931 28.19502259 -9.18803406 25.04826355 C-9.19190125 23.80818542 -9.19576843 22.5681073 -9.19975281 21.29045105 C-9.18815125 19.99365417 -9.17654968 18.6968573 -9.16459656 17.36076355 C-9.17619812 16.06396667 -9.18779968 14.7671698 -9.19975281 13.43107605 C-9.19588562 12.19099792 -9.19201843 10.9509198 -9.18803406 9.67326355 C-9.18465027 8.53502136 -9.18126648 7.39677917 -9.17778015 6.2240448 C-8.78959656 3.36076355 -8.78959656 3.36076355 -7.62718487 1.70435619 C-5.03445067 -0.19137779 -3.19548442 -0.0084018 0 0 Z " fill="#4071C9" transform="translate(8.789596557617188,212.6392364501953)"/>
<path d="M0 0 C48.51 0 97.02 0 147 0 C147 10.56 147 21.12 147 32 C146.67 32.33 146.34 32.66 146 33 C143.36 33 140.72 33 138 33 C138 98.67 138 164.34 138 232 C139.98 232 141.96 232 144 232 C144.99 232.99 145.98 233.98 147 235 C147 245.23 147 255.46 147 266 C98.49 266 49.98 266 0 266 C0 234 0 234 2 232 C3.98 232 5.96 232 8 232 C8 166.66 8 101.32 8 34 C6.35 34 4.7 34 3 34 C2.01 33.01 1.02 32.02 0 31 C0 20.77 0 10.54 0 0 Z " fill="#9EC8FC" transform="translate(228,180)"/>
<path d="M0 0 C35.64 0 71.28 0 108 0 C108.08815867 32.90997109 108.16202413 65.81982774 108.20426132 98.72988136 C108.20926423 102.61394781 108.21444151 106.498014 108.21972656 110.38208008 C108.2207758 111.15533775 108.22182505 111.92859543 108.22290608 112.72528515 C108.24031811 125.25084128 108.27186017 137.77632408 108.30861118 150.30183669 C108.34599845 163.15122727 108.36823116 176.0005794 108.37635398 188.85002214 C108.38184637 196.78081739 108.39920235 204.71140539 108.43166587 212.64213685 C108.45528087 218.72029635 108.45782546 224.79827703 108.45243073 230.87648773 C108.45353376 233.37225179 108.46152456 235.8680235 108.4768219 238.36374092 C108.496651 241.76481434 108.49196428 245.16499275 108.48101807 248.56608582 C108.49266943 249.55927722 108.5043208 250.55246862 108.51632524 251.57575673 C108.47842627 255.91639913 108.41412931 258.32836782 106.09493637 262.08961964 C102.95297611 264.95478502 101.24852887 265.12376485 97.09130859 265.11352539 C96.07040131 265.11344986 95.04949402 265.11337433 93.99765015 265.11329651 C92.33978989 265.10555458 92.33978989 265.10555458 90.6484375 265.09765625 C88.95468491 265.09553383 88.95468491 265.09553383 87.22671509 265.09336853 C83.60945012 265.08775744 79.99224636 265.07520303 76.375 265.0625 C73.92708423 265.05748643 71.47916748 265.05292328 69.03125 265.04882812 C63.02081234 265.0377844 57.01041054 265.02103544 51 265 C50.9906543 264.0527002 50.98130859 263.10540039 50.97167969 262.12939453 C50.92731205 258.56910901 50.86554386 255.00996447 50.79248047 251.45019531 C50.76448925 249.91807834 50.74316754 248.38582282 50.72900391 246.85351562 C50.61618323 235.33076384 49.9428776 225.40984617 41.625 216.625 C40.84253906 215.79097656 40.06007813 214.95695313 39.25390625 214.09765625 C36.96562758 211.80392664 36.96562758 211.80392664 33.5625 210.0625 C29.94321082 207.14941359 30.14279658 204.4126714 29.546875 199.94921875 C28.2180275 192.78293401 24.168636 186.05377742 19 181 C17.27298093 180.18294509 15.54361096 179.37084923 13.8125 178.5625 C11.16015625 177.078125 11.16015625 177.078125 9 175 C8.01054072 171.25324753 7.74379955 167.71875291 7.48828125 163.85546875 C6.76442467 158.13989716 4.15582221 152.15582221 0 148 C-0.09658904 146.08905061 -0.12187192 144.17448134 -0.12025452 142.26109314 C-0.12162918 141.01442368 -0.12300385 139.76775421 -0.12442017 138.48330688 C-0.12088056 137.08905006 -0.11724574 135.69479347 -0.11352539 134.30053711 C-0.11324353 132.84228009 -0.11340124 131.38402293 -0.1139679 129.92576599 C-0.1142559 125.95486515 -0.10835877 121.98399425 -0.10139394 118.01310039 C-0.09516081 113.86774899 -0.09455663 109.72239698 -0.09336853 105.57704163 C-0.09025509 97.72180673 -0.08204154 89.86658568 -0.07201904 82.01135689 C-0.05877316 71.40040924 -0.0533581 60.78945782 -0.04751682 50.17850399 C-0.03810165 33.45232561 -0.01818282 16.72617646 0 0 Z " fill="#9EC8FB" transform="translate(393,247)"/>
<path d="M0 0 C35.64 0 71.28 0 108 0 C108.24181821 36.71158606 108.24181821 36.71158606 108.29296875 52.12109375 C108.32854086 62.75196746 108.37030956 73.38255538 108.45263672 84.01318359 C108.51257252 91.75620389 108.55118074 99.49899185 108.56453097 107.24223769 C108.57233094 111.33968544 108.5905702 115.43646875 108.63438034 119.53370285 C108.67534655 123.39655057 108.68762141 127.25846522 108.67864609 131.12150955 C108.68028611 132.53318619 108.69207884 133.94489658 108.71523285 135.35638428 C108.86118302 144.71911825 107.48658143 150.42177911 102 158 C100.64605644 161.03025463 99.99458594 163.27993056 100.01953125 166.59765625 C99.99917258 169.6229542 99.88000741 172.09858944 99 175 C96.69046427 176.95558389 94.34513838 178.13988815 91.640625 179.48828125 C84.78341083 183.41393492 80.22648638 191.56121892 78 199 C77.90407729 200.53994844 77.84126155 202.08233505 77.8125 203.625 C77.60260082 206.64754824 77.31169198 207.6830251 75.15625 209.875 C73.57468011 211.05590552 71.97218277 212.20922055 70.3515625 213.3359375 C63.31998013 218.31177486 60.07141082 224.74906975 58 233 C57.40914628 238.56512309 57.30371512 244.09550656 57.25 249.6875 C57.22177453 251.17907005 57.19183819 252.67060874 57.16015625 254.16210938 C57.08708103 257.77459263 57.03703404 261.38694612 57 265 C49.82849213 265.10146163 42.65716951 265.17149156 35.48510742 265.21972656 C33.04558393 265.23983564 30.6061086 265.26712683 28.16674805 265.30175781 C24.65922152 265.35030489 21.15233257 265.37297632 17.64453125 265.390625 C16.55477493 265.41127014 15.46501862 265.43191528 14.34223938 265.45318604 C6.75895361 265.45543071 6.75895361 265.45543071 2.8347168 263.10058594 C0.2395204 260.12931916 -0.12490824 258.56004939 -0.12304783 254.70900536 C-0.1260344 253.34973303 -0.1260344 253.34973303 -0.12908131 251.96300066 C-0.12616847 250.96107073 -0.12325563 249.9591408 -0.12025452 248.92684937 C-0.12110894 247.86750045 -0.12196337 246.80815154 -0.12284368 245.71670115 C-0.12449943 242.14363678 -0.11897555 238.57061868 -0.11352539 234.99755859 C-0.11324351 232.44557191 -0.11340126 229.89358515 -0.1139679 227.34159851 C-0.1141961 221.83532491 -0.11134763 216.32906638 -0.10573006 210.82279587 C-0.0976132 202.86159291 -0.09499965 194.90039568 -0.09374207 186.93918903 C-0.09155184 174.02358372 -0.08489254 161.1079847 -0.07543945 148.19238281 C-0.06626458 135.64388053 -0.05918411 123.09537996 -0.05493164 110.546875 C-0.05466892 109.77376859 -0.05440619 109.00066218 -0.05413551 108.20412831 C-0.0528305 104.32579513 -0.05156678 100.44746195 -0.05032361 96.56912875 C-0.0399519 64.37941358 -0.02151409 32.18971013 0 0 Z " fill="#9EC8FB" transform="translate(11,247)"/>
<path d="M0 0 C1.80725445 -0.00619874 1.80725445 -0.00619874 3.6510191 -0.0125227 C4.99332575 -0.00188229 6.33563027 0.0090314 7.67793274 0.02018738 C9.1100579 0.02110626 10.54218442 0.02070611 11.97430897 0.01909161 C15.81341959 0.01841365 19.65225034 0.03581505 23.49129486 0.05692291 C27.09221287 0.07399364 30.69306241 0.07481148 34.29402161 0.07695007 C44.82868603 0.09269908 55.36329826 0.13458246 65.89790344 0.17326355 C89.43102844 0.23513855 112.96415344 0.29701355 137.21040344 0.36076355 C137.21040344 66.03076355 137.21040344 131.70076355 137.21040344 199.36076355 C134.57040344 199.69076355 131.93040344 200.02076355 129.21040344 200.36076355 C128.88040344 210.92076355 128.55040344 221.48076355 128.21040344 232.36076355 C147.02040344 232.36076355 165.83040344 232.36076355 185.21040344 232.36076355 C185.21040344 232.69076355 185.21040344 233.02076355 185.21040344 233.36076355 C184.29442886 233.35996796 183.37845428 233.35917236 182.4347229 233.35835266 C173.79761765 233.35614383 165.16117462 233.38255983 156.52425861 233.44104195 C152.08396723 233.47010066 147.64420398 233.48813244 143.20381165 233.48088074 C138.91754061 233.47428783 134.63231323 233.496769 130.34625816 233.53931808 C128.71206058 233.5504502 127.07775716 233.55114838 125.44355202 233.54118729 C123.15154727 233.52900854 120.86272533 233.55409721 118.57099915 233.58781433 C116.61575066 233.59447617 116.61575066 233.59447617 114.6210022 233.60127258 C109.87623298 234.657864 108.8622026 236.35545648 106.21040344 240.36076355 C105.44646105 243.42809086 105.44646105 243.42809086 105.50337219 246.63420105 C105.47436829 247.78791199 105.44536438 248.94162292 105.41548157 250.1302948 C105.4067804 251.91500183 105.4067804 251.91500183 105.39790344 253.73576355 C105.37276672 254.94877136 105.34763 256.16177917 105.32173157 257.4115448 C105.26300324 260.39494395 105.22661674 263.37688048 105.21040344 266.36076355 C104.16239563 266.39814636 103.11438782 266.43552917 102.03462219 266.4740448 C100.65568039 266.5397087 99.27677574 266.6061559 97.89790344 266.67326355 C97.20761047 266.69582214 96.5173175 266.71838074 95.80610657 266.74162292 C91.9313734 266.90918134 91.9313734 266.90918134 88.51411438 268.55729675 C85.76461254 272.36077429 86.74372979 277.72180456 86.77290344 282.23576355 C86.75292297 283.32502136 86.7329425 284.41427917 86.71235657 285.5365448 C86.7130011 286.58970886 86.71364563 287.64287292 86.71430969 288.72795105 C86.71245667 289.68814148 86.71060364 290.64833191 86.70869446 291.63761902 C87.11547217 295.04991925 87.11547217 295.04991925 91.21040344 299.36076355 C80.65040344 299.36076355 70.09040344 299.36076355 59.21040344 299.36076355 C59.12790344 294.30763855 59.04540344 289.25451355 58.96040344 284.04826355 C58.92398743 282.47778259 58.88757141 280.90730164 58.85005188 279.28923035 C58.76561645 268.53937487 59.80084651 259.02193418 67.58540344 250.92326355 C68.36657532 250.10084167 69.14774719 249.2784198 69.95259094 248.43107605 C71.84844235 246.69266559 73.46832789 245.50053595 75.71040344 244.29826355 C78.34670309 242.68835783 78.34670309 242.68835783 78.58540344 240.5521698 C78.67205649 239.03303349 78.75095181 237.51344243 78.82368469 235.99357605 C79.9895163 228.05650027 85.24113045 219.6793575 91.21040344 214.36076355 C98.02162793 209.36076355 98.02162793 209.36076355 101.21040344 209.36076355 C101.16399719 208.68271667 101.11759094 208.0046698 101.06977844 207.30607605 C100.76429623 199.42899902 101.7864459 192.14050405 107.25538635 186.10328674 C110.73928621 180.85546206 109.78021132 174.14472332 109.75630188 168.09367371 C109.76504234 166.63466797 109.77552978 165.17567182 109.78762817 163.71669006 C109.81545134 159.76668159 109.81889369 155.81698647 109.81790829 151.86689425 C109.82104058 147.73484589 109.84666535 143.60293801 109.86988831 139.47096252 C109.91042769 131.65131861 109.93078415 123.83175804 109.9438622 116.01202524 C109.95973924 107.10750681 109.99815783 98.20313008 110.03845549 89.2986939 C110.12082619 70.98609526 110.17493596 52.67351007 110.21040344 34.36076355 C109.61533587 34.36352893 109.02026831 34.36629431 108.40716839 34.36914349 C93.93557174 34.43536324 79.4639886 34.48502456 64.99227428 34.51620007 C57.99388378 34.5316766 50.99559433 34.55278099 43.99726868 34.58708191 C37.24754758 34.62014861 30.49795333 34.63760099 23.74814796 34.64539528 C21.16885535 34.65095209 18.5895687 34.66180268 16.01032066 34.67795372 C12.40655816 34.6996292 8.80323397 34.70273457 5.19941711 34.70133972 C3.58856735 34.71751846 3.58856735 34.71751846 1.94517517 34.73402405 C0.96500931 34.72990005 -0.01515656 34.72577606 -1.02502441 34.7215271 C-1.87768292 34.72429248 -2.73034143 34.72705786 -3.60883808 34.72990704 C-6.29861506 34.27460047 -7.18069676 33.53365081 -8.78959656 31.36076355 C-9.17778015 28.4974823 -9.17778015 28.4974823 -9.18803406 25.04826355 C-9.19190125 23.80818542 -9.19576843 22.5681073 -9.19975281 21.29045105 C-9.18815125 19.99365417 -9.17654968 18.6968573 -9.16459656 17.36076355 C-9.17619812 16.06396667 -9.18779968 14.7671698 -9.19975281 13.43107605 C-9.19588562 12.19099792 -9.19201843 10.9509198 -9.18803406 9.67326355 C-9.18465027 8.53502136 -9.18126648 7.39677917 -9.17778015 6.2240448 C-8.78959656 3.36076355 -8.78959656 3.36076355 -7.62718487 1.70435619 C-5.03445067 -0.19137779 -3.19548442 -0.0084018 0 0 Z " fill="#80B6FB" transform="translate(8.789596557617188,212.6392364501953)"/>
<path d="M0 0 C35.2996875 -0.0928125 35.2996875 -0.0928125 71.3125 -0.1875 C78.75079346 -0.21481201 86.18908691 -0.24212402 93.8527832 -0.27026367 C102.91638184 -0.28381348 102.91638184 -0.28381348 107.15568542 -0.28633118 C110.12478827 -0.28913296 113.09373118 -0.30040218 116.06278992 -0.31672668 C119.84654566 -0.33725599 123.63006776 -0.34348249 127.41387403 -0.33921683 C128.80468341 -0.34010921 130.19550071 -0.34608667 131.58626235 -0.35764539 C133.46091743 -0.3725057 135.33570048 -0.36719363 137.21040344 -0.36076355 C138.78805213 -0.36491162 138.78805213 -0.36491162 140.39757252 -0.36914349 C143 0 143 0 144.83758831 1.34359264 C146.64840276 3.92395759 146.38918243 6.19927137 146.3984375 9.3125 C146.40230469 10.55257812 146.40617188 11.79265625 146.41015625 13.0703125 C146.39275391 15.01550781 146.39275391 15.01550781 146.375 17 C146.38660156 18.29679687 146.39820313 19.59359375 146.41015625 20.9296875 C146.40628906 22.16976562 146.40242187 23.40984375 146.3984375 24.6875 C146.39505371 25.82574219 146.39166992 26.96398437 146.38818359 28.13671875 C146 31 146 31 144.77352428 32.65640736 C142.46121656 34.40817341 141.12068294 34.37012113 138.23542786 34.36076355 C136.76517906 34.36694954 136.76517906 34.36694954 135.26522827 34.3732605 C134.19132843 34.36247467 133.11742859 34.35168884 132.01098633 34.34057617 C130.87913406 34.34101425 129.7472818 34.34145233 128.58113098 34.34190369 C124.83125701 34.33980978 121.08182734 34.31644966 117.33203125 34.29296875 C114.73557276 34.28737496 112.1391111 34.28310384 109.54264832 34.28010559 C103.40153503 34.26981243 97.26060574 34.24615625 91.11956185 34.21605712 C84.12811224 34.18253323 77.13665502 34.16603219 70.14514506 34.15097082 C55.76334404 34.11960712 41.38167771 34.06683407 27 34 C26.99043132 53.12424298 27.01513712 72.24815172 27.0802784 91.37228966 C27.10973405 100.25264993 27.12811283 109.13277154 27.12011719 118.01318359 C27.11317391 125.75635507 27.12731757 133.49915694 27.16643608 141.24223769 C27.18640887 145.33957545 27.19605703 149.43633339 27.18042374 153.53370285 C27.16601854 157.39672016 27.17997809 161.25863366 27.21495247 165.12150955 C27.22286887 166.53311451 27.22074865 167.94482031 27.20739174 169.35638428 C27.12658447 178.6916684 28.51947152 184.44547703 34 192 C36.58328964 197.51884604 36.1913737 203.02488776 36 209 C36.825 209.185625 37.65 209.37125 38.5 209.5625 C48.11300917 213.51070019 53.41034813 221.83416221 57.3125 231.125 C58 234 58 234 58.05078125 235.9296875 C58.18677625 240.19401136 58.18677625 240.19401136 60.59375 243.5625 C61.9834824 244.54600293 63.38809062 245.50872708 64.8046875 246.453125 C71.65199907 251.27792106 75.96811914 257.93245829 78 266 C78.46586562 271.72799693 78.3782619 277.37761851 78.25 283.125 C78.1675 288.36375 78.085 293.6025 78 299 C67.44 299 56.88 299 46 299 C47.98 297.02 47.98 297.02 50 295 C51.42677273 290.71968182 51.264656 286.60957758 51.3125 282.125 C51.34150391 281.22652344 51.37050781 280.32804687 51.40039062 279.40234375 C51.44145011 275.12584025 51.39879363 272.66834071 49.16796875 268.9296875 C45.66941997 265.8156639 42.33402891 265.77783013 37.8125 265.4375 C36.72582031 265.35371094 35.63914062 265.26992188 34.51953125 265.18359375 C33.68808594 265.12300781 32.85664063 265.06242187 32 265 C31.98541748 264.26885986 31.97083496 263.53771973 31.95581055 262.78442383 C31.8811709 259.45992629 31.78456199 256.13641533 31.6875 252.8125 C31.66494141 251.66201172 31.64238281 250.51152344 31.61914062 249.32617188 C31.5659668 247.65844727 31.5659668 247.65844727 31.51171875 245.95703125 C31.48553467 244.93585205 31.45935059 243.91467285 31.43237305 242.86254883 C30.93061629 239.54064144 30.032413 237.66492465 28 235 C22.50267364 231.92906459 22.50267364 231.92906459 9 232 C8.67 221.44 8.34 210.88 8 200 C5.36 199.67 2.72 199.34 0 199 C0 133.33 0 67.66 0 0 Z " fill="#80B6FB" transform="translate(366,213)"/>
<path d="M0 0 C18.48 0 36.96 0 56 0 C56.061875 5.053125 56.12375 10.10625 56.1875 15.3125 C56.22846802 17.69915894 56.22846802 17.69915894 56.27026367 20.1340332 C56.27775635 21.38531006 56.28524902 22.63658691 56.29296875 23.92578125 C56.3086792 25.20880127 56.32438965 26.49182129 56.34057617 27.8137207 C56 31 56 31 54.79418945 32.94213867 C53 34 53 34 48 34 C48 99.34 48 164.68 48 232 C49.98 232 51.96 232 54 232 C56 234 56 234 56.22705078 237.16455078 C56.22655073 238.50817958 56.21550679 239.85183538 56.1953125 241.1953125 C56.19031738 242.48969238 56.18532227 243.78407227 56.18017578 245.11767578 C56.16196777 246.77009277 56.14375977 248.42250977 56.125 250.125 C56.08375 255.36375 56.0425 260.6025 56 266 C37.52 266 19.04 266 0 266 C-0.04125 260.76125 -0.0825 255.5225 -0.125 250.125 C-0.14320801 248.47258301 -0.16141602 246.82016602 -0.18017578 245.11767578 C-0.1851709 243.8232959 -0.19016602 242.52891602 -0.1953125 241.1953125 C-0.20554443 240.51460693 -0.21577637 239.83390137 -0.22631836 239.13256836 C-0.22695569 237.42004993 -0.12255506 235.70812764 0 234 C0.99 233.01 0.99 233.01 2 232 C3.98 232 5.96 232 8 232 C8 166.66 8 101.32 8 34 C6.35 34 4.7 34 3 34 C1.20581055 32.94213867 1.20581055 32.94213867 0 31 C-0.34057617 27.8137207 -0.34057617 27.8137207 -0.29296875 23.92578125 C-0.28547607 22.67450439 -0.2779834 21.42322754 -0.27026367 20.1340332 C-0.24295166 18.54292725 -0.21563965 16.95182129 -0.1875 15.3125 C-0.125625 10.259375 -0.06375 5.20625 0 0 Z " fill="#CCE1FE" transform="translate(228,180)"/>
<path d="M0 0 C18.81 0 37.62 0 57 0 C57.020625 5.259375 57.04125 10.51875 57.0625 15.9375 C57.071604 17.599021 57.08070801 19.26054199 57.09008789 20.97241211 C57.09258545 22.26928955 57.09508301 23.56616699 57.09765625 24.90234375 C57.10277222 25.58816528 57.10788818 26.27398682 57.11315918 26.98059082 C57.11347054 28.65415231 57.06222837 30.3275958 57 32 C56.67 32.33 56.34 32.66 56 33 C53.36 33 50.72 33 48 33 C48 98.67 48 164.34 48 232 C49.98 232 51.96 232 54 232 C55.85668945 233.05786133 55.85668945 233.05786133 57 235 C57.34057617 238.1862793 57.34057617 238.1862793 57.29296875 242.07421875 C57.28172974 243.95113403 57.28172974 243.95113403 57.27026367 245.8659668 C57.24295166 247.45707275 57.21563965 249.04817871 57.1875 250.6875 C57.125625 255.740625 57.06375 260.79375 57 266 C38.19 266 19.38 266 0 266 C-0.061875 260.946875 -0.12375 255.89375 -0.1875 250.6875 C-0.21481201 249.09639404 -0.24212402 247.50528809 -0.27026367 245.8659668 C-0.27775635 244.61468994 -0.28524902 243.36341309 -0.29296875 242.07421875 C-0.3086792 240.79119873 -0.32438965 239.50817871 -0.34057617 238.1862793 C0 235 0 235 1.14331055 233.05786133 C3 232 3 232 9 232 C9 166.33 9 100.66 9 33 C6.69 33 4.38 33 2 33 C0 31 0 31 -0.22705078 27.92724609 C-0.21657715 26.63898926 -0.20610352 25.35073242 -0.1953125 24.0234375 C-0.19031738 22.76966309 -0.18532227 21.51588867 -0.18017578 20.22412109 C-0.16196777 18.62391113 -0.14375977 17.02370117 -0.125 15.375 C-0.08375 10.30125 -0.0425 5.2275 0 0 Z " fill="#CCE1FE" transform="translate(318,180)"/>
<path d="M0 0 C18.81 0 37.62 0 57 0 C57.04125 5.07375 57.0825 10.1475 57.125 15.375 C57.14320801 16.97520996 57.16141602 18.57541992 57.18017578 20.22412109 C57.1851709 21.47789551 57.19016602 22.73166992 57.1953125 24.0234375 C57.21102295 25.95582275 57.21102295 25.95582275 57.22705078 27.92724609 C57 31 57 31 55 33 C52.69 33 50.38 33 48 33 C48 98.67 48 164.34 48 232 C49.98 232 51.96 232 54 232 C55.85668945 233.0715332 55.85668945 233.0715332 57 235 C57.34057617 238.09448242 57.34057617 238.09448242 57.29296875 241.85546875 C57.28172974 243.67147583 57.28172974 243.67147583 57.27026367 245.52416992 C57.24295166 247.06306885 57.21563965 248.60196777 57.1875 250.1875 C57.125625 255.075625 57.06375 259.96375 57 265 C38.19 265 19.38 265 0 265 C-0.061875 260.111875 -0.12375 255.22375 -0.1875 250.1875 C-0.21481201 248.64860107 -0.24212402 247.10970215 -0.27026367 245.52416992 C-0.27775635 244.31349854 -0.28524902 243.10282715 -0.29296875 241.85546875 C-0.3086792 240.61434326 -0.32438965 239.37321777 -0.34057617 238.09448242 C0 235 0 235 1.14331055 233.0715332 C3 232 3 232 9 232 C9 166.33 9 100.66 9 33 C6.36 33 3.72 33 1 33 C0 32 0 32 -0.11352539 28.94897461 C-0.11327443 27.60008731 -0.10771815 26.25119355 -0.09765625 24.90234375 C-0.09515869 23.60546631 -0.09266113 22.30858887 -0.09008789 20.97241211 C-0.08098389 19.31089111 -0.07187988 17.64937012 -0.0625 15.9375 C-0.041875 10.678125 -0.02125 5.41875 0 0 Z " fill="#CCE1FE" transform="translate(137,180)"/>
<path d="M0 0 C3.11699237 1.48286347 6.11389935 3.10220041 9.12329102 4.79248047 C10.77397583 5.68604248 10.77397583 5.68604248 12.45800781 6.59765625 C14.68176952 7.80186401 16.90134487 9.01383786 19.11645508 10.23388672 C23.21278781 12.48080928 27.35368386 14.63647756 31.49829102 16.79248047 C36.82299255 19.58954291 42.12866198 22.42083596 47.42407227 25.27294922 C49.71950988 26.50887763 52.01508746 27.74454611 54.31079102 28.97998047 C55.18548538 29.45073502 55.18548538 29.45073502 56.07785034 29.93099976 C66.01317581 35.27235164 76.02185614 40.46145542 86.06079102 45.60498047 C95.67464648 50.53299562 105.26124531 55.4977209 114.74829102 60.66748047 C115.60342285 61.1324292 116.45855469 61.59737793 117.33959961 62.07641602 C130.66604572 69.39773518 130.66604572 69.39773518 134.18579102 72.91748047 C134.96912759 79.21614601 132.98204468 83.30248576 130.06079102 88.66748047 C129.68180664 89.42158203 129.30282227 90.17568359 128.91235352 90.95263672 C126.41646047 95.636596 124.43002881 98.15286532 119.18579102 99.91748047 C115.3794893 99.68910237 112.48062905 98.81834857 109.18579102 96.91748047 C109.18579102 96.25748047 109.18579102 95.59748047 109.18579102 94.91748047 C107.87421021 94.505625 107.87421021 94.505625 106.53613281 94.08544922 C103.39685832 92.99106103 100.54820226 91.72042841 97.58032227 90.22998047 C96.52466064 89.70154541 95.46899902 89.17311035 94.38134766 88.62866211 C93.26493896 88.06397217 92.14853027 87.49928223 90.99829102 86.91748047 C89.83354248 86.331521 88.66879395 85.74556152 87.46875 85.1418457 C79.3396942 81.03956677 71.26363357 76.84612536 63.22094727 72.57763672 C57.06497187 69.31445498 50.8739426 66.1190906 44.68579102 62.91748047 C37.55895992 59.22952896 30.43632148 55.53525547 23.34350586 51.78222656 C20.34472829 50.19698895 17.33899237 48.6251645 14.33374023 47.05224609 C12.14096137 45.89379688 9.9624045 44.71106082 7.78344727 43.52685547 C6.37628985 42.78131841 4.96875522 42.03649276 3.56079102 41.29248047 C2.9456665 40.94910645 2.33054199 40.60573242 1.69677734 40.25195312 C-3.19179051 37.70987132 -7.4382372 36.94947404 -12.81420898 37.91748047 C-16.43040143 39.26666343 -19.7090869 41.08278121 -23.06420898 42.97998047 C-25.12085494 44.09705553 -27.17817798 45.21288467 -29.23608398 46.32763672 C-30.85160156 47.21346436 -30.85160156 47.21346436 -32.49975586 48.1171875 C-38.05975817 51.13718286 -43.68861438 54.02208049 -49.31420898 56.91748047 C-50.51112613 57.53602512 -51.70790121 58.15484475 -52.90454102 58.77392578 C-60.15022305 62.52112416 -67.40565515 66.24911278 -74.66577148 69.96826172 C-75.51568665 70.40371307 -76.36560181 70.83916443 -77.24127197 71.28781128 C-81.40988961 73.42324884 -85.57922548 75.55726533 -89.74975586 77.68896484 C-91.31559865 78.490226 -92.88135477 79.29165656 -94.44702148 80.09326172 C-95.58841583 80.67710129 -95.58841583 80.67710129 -96.75286865 81.2727356 C-100.9012821 83.4009259 -105.03285741 85.5573739 -109.14916992 87.74707031 C-110.02233856 88.21090622 -110.8955072 88.67474213 -111.7951355 89.15263367 C-113.4798569 90.04960893 -115.16266 90.95019881 -116.84329224 91.85481262 C-117.59665863 92.25600815 -118.35002502 92.65720367 -119.1262207 93.07055664 C-119.79160858 93.42784348 -120.45699646 93.78513031 -121.14254761 94.15324402 C-122.81420898 94.91748047 -122.81420898 94.91748047 -124.81420898 94.91748047 C-124.81420898 95.57748047 -124.81420898 96.23748047 -124.81420898 96.91748047 C-129.57316418 99.29695807 -132.52106633 100.68186135 -137.81420898 98.91748047 C-141.61851439 95.72777655 -143.75779526 91.91455723 -146.06420898 87.60498047 C-146.42772461 86.96625 -146.79124023 86.32751953 -147.16577148 85.66943359 C-149.50242909 81.33431882 -150.73123846 77.9317506 -149.81420898 72.91748047 C-144.972861 67.40277599 -137.77673822 64.60430441 -131.31420898 61.35498047 C-128.85113848 60.10132751 -126.39114757 58.84169399 -123.93139648 57.58154297 C-123.31767181 57.2678627 -122.70394714 56.95418243 -122.07162476 56.6309967 C-116.80340843 53.93107438 -111.61524523 51.10139884 -106.43920898 48.22998047 C-96.44151272 42.70892146 -86.29260601 37.49459543 -76.12670898 32.29248047 C-75.31255524 31.87581116 -74.49840149 31.45914185 -73.65957642 31.02984619 C-70.47768126 29.40162674 -67.29570188 27.77357203 -64.11357117 26.14581299 C-58.60370283 23.32583685 -53.10440222 20.48706312 -47.62670898 17.60498047 C-46.93689941 17.2446875 -46.24708984 16.88439453 -45.53637695 16.51318359 C-41.06308746 14.15980374 -36.65660645 11.70346732 -32.25952148 9.21044922 C-30.50280078 8.22731569 -28.74472708 7.2466587 -26.9859314 6.26724243 C-25.30436132 5.322075 -23.6357988 4.35388064 -21.96777344 3.38500977 C-14.33090561 -0.86359953 -8.44809384 -3.2496615 0 0 Z " fill="#4172CA" transform="translate(263.814208984375,1.08251953125)"/>
<path d="M0 0 C23.47249023 -0.12715361 46.94457716 -0.20741066 70.4174118 -0.22809029 C72.60680646 -0.2300576 74.79620109 -0.23205084 76.9855957 -0.23406982 C78.0721056 -0.23507057 79.1586155 -0.23607132 80.27804995 -0.23710239 C89.27606985 -0.24696178 98.27396977 -0.2758152 107.27193475 -0.307648 C116.08364016 -0.33772892 124.89529051 -0.35260381 133.70704627 -0.35592812 C138.91194665 -0.35826495 144.11663616 -0.36706623 149.3214798 -0.3923893 C154.15202801 -0.41556687 158.98222348 -0.41994557 163.81281281 -0.40962791 C165.57773007 -0.40913187 167.34266462 -0.4154725 169.10752869 -0.42918396 C171.5147594 -0.44685067 173.92071075 -0.43982739 176.32794189 -0.426651 C177.02261385 -0.43762025 177.71728581 -0.44858949 178.43300843 -0.45989114 C183.36967631 -0.39462557 186.18742855 0.97623708 189.99243164 4.06109619 C191.4015526 6.87933811 191.10426717 9.23360901 191.09008789 12.38140869 C191.08686523 13.63824463 191.08364258 14.89508057 191.08032227 16.19000244 C191.07194336 17.50871338 191.06356445 18.82742432 191.05493164 20.18609619 C191.04991653 21.52593831 191.04535365 22.8657822 191.04125977 24.20562744 C191.0294425 27.49082825 191.01296782 30.77594016 190.99243164 34.06109619 C159.54419148 34.08401201 128.09595357 34.1016587 96.64770701 34.11216152 C92.91731898 34.11341192 89.18693097 34.11470627 85.45654297 34.11602783 C84.71403028 34.11629014 83.9715176 34.11655245 83.20650453 34.11682271 C71.25467072 34.1211493 59.30284183 34.12901992 47.35101091 34.13824899 C35.04615649 34.14766993 22.7413046 34.15316947 10.43644673 34.15518469 C3.54237319 34.15642212 -3.35169011 34.15937091 -10.24575996 34.16682625 C-66.15083964 34.22560564 -66.15083964 34.22560564 -91.00756836 33.06109619 C-91.02852664 32.15707911 -91.04948492 31.25306204 -91.0710783 30.32165051 C-91.09883752 29.13498445 -91.12659674 27.94831839 -91.15519714 26.72569275 C-91.18260074 25.54968349 -91.21000433 24.37367422 -91.23823833 23.16202831 C-91.2845123 21.30245654 -91.3345333 19.44294322 -91.39697742 17.58384418 C-91.45353907 15.87505678 -91.47615218 14.16523723 -91.49584961 12.45562744 C-91.52203369 11.35065918 -91.54821777 10.24569092 -91.57519531 9.10723877 C-90.99067201 5.97042276 -90.23490209 4.29912821 -87.89986706 2.11312962 C-83.45173927 -0.35983045 -77.8709152 0.34586848 -72.92651367 0.36505127 C-71.55784338 0.35266901 -70.18919118 0.33813302 -68.82056427 0.32163811 C-65.04362 0.28262768 -61.26716026 0.27502193 -57.49003887 0.27266669 C-53.39796412 0.26494112 -49.30611716 0.22914434 -45.21417236 0.19728088 C-37.0628359 0.13870815 -28.91160864 0.10860056 -20.7600987 0.08741385 C-13.83999444 0.06869762 -6.92002521 0.03779902 0 0 Z " fill="#30569F" transform="translate(206.007568359375,444.93890380859375)"/>
<path d="M0 0 C0.88966318 -0.00583219 1.77932635 -0.01166439 2.69594902 -0.01767331 C3.66918792 -0.01389399 4.64242682 -0.01011467 5.64515781 -0.00622082 C6.68226998 -0.01004636 7.71938215 -0.01387191 8.78792197 -0.01781338 C12.27404081 -0.02815809 15.7599954 -0.02414841 19.24612522 -0.02018261 C21.74103543 -0.02452825 24.2359443 -0.0297109 26.73085117 -0.03567028 C32.81069979 -0.04769266 38.89048349 -0.05020979 44.97033804 -0.04787002 C49.91156677 -0.0460878 54.85278208 -0.04783442 59.79400921 -0.05209446 C60.49696539 -0.05268965 61.19992157 -0.05328484 61.92417945 -0.05389806 C63.35218266 -0.0551098 64.78018587 -0.05632393 66.20818908 -0.05754044 C79.60333687 -0.06841963 92.99845949 -0.06625167 106.3936087 -0.06015559 C118.65054246 -0.05498584 130.90739676 -0.06624271 143.1643148 -0.08525381 C155.74716119 -0.10462097 168.32996997 -0.1128902 180.91283137 -0.10913056 C187.978184 -0.10721684 195.04346899 -0.1097227 202.10880947 -0.1238451 C208.75145827 -0.13698814 215.39397401 -0.13451414 222.03663158 -0.12143421 C224.47755963 -0.11906089 226.91849877 -0.12182997 229.3594141 -0.13005733 C232.68572471 -0.14046241 236.01149405 -0.13247403 239.33778477 -0.11974621 C240.30879295 -0.12712049 241.27980113 -0.13449478 242.2802338 -0.14209253 C247.17813011 -0.10253402 250.60414358 0.01099058 254.55496311 3.25447559 C257.54531811 7.61613889 256.88480569 12.60366225 256.86746311 17.69197559 C256.88357639 18.63363575 256.89968967 19.57529591 256.91629124 20.54549122 C256.92244424 29.26429722 256.92244424 29.26429722 253.55496311 33.25447559 C251.22775691 34.4180787 249.88260329 34.38275967 247.29075909 34.38869667 C246.39052773 34.39315451 245.49029637 34.39761236 244.56278527 34.40220529 C243.56747477 34.40202093 242.57216427 34.40183656 241.54669285 34.40164661 C240.49424975 34.4053233 239.44180666 34.40899999 238.35747135 34.41278809 C234.80757444 34.42385944 231.25770676 34.42767458 227.70779514 34.43147755 C225.17214966 34.43773948 222.63650509 34.44438604 220.10086155 34.45139027 C212.4753618 34.47064196 204.84986718 34.48122125 197.22434932 34.49011806 C193.63556698 34.49449914 190.04678612 34.49986636 186.45800495 34.50510693 C174.53229993 34.52211895 162.60659584 34.53661438 150.68088055 34.54385567 C147.58535988 34.54576563 144.48983922 34.54768596 141.39431858 34.54964161 C140.24022103 34.55036722 140.24022103 34.55036722 139.06280838 34.55110749 C126.59166238 34.55941252 114.12061216 34.58475748 101.64950801 34.61722229 C88.85316302 34.65026295 76.05686675 34.66830166 63.26047885 34.67149991 C56.07269247 34.67366765 48.8850458 34.68245475 41.69730091 34.70796108 C34.93891149 34.73188814 28.18081751 34.73551267 21.42237949 34.7251997 C18.9374861 34.72470199 16.45258068 34.73109114 13.9677248 34.74475574 C10.58391002 34.76232751 7.20101442 34.75544072 3.81720066 34.74222279 C2.33092708 34.75867665 2.33092708 34.75867665 0.81462777 34.77546293 C-5.82509275 34.71253849 -5.82509275 34.71253849 -9.02392673 32.34899139 C-12.18505413 27.68993575 -11.66557393 23.44049953 -11.69503689 17.94197559 C-11.71566189 16.991292 -11.73628689 16.04060841 -11.75753689 15.06111622 C-11.80791865 6.04907866 -11.80791865 6.04907866 -8.44503689 2.25447559 C-5.53491443 0.49558966 -3.38063442 0.00381861 0 0 Z " fill="#4070C8" transform="translate(133.44503688812256,145.7455244064331)"/>
<path d="M0 0 C1.73291542 -0.00856522 1.73291542 -0.00856522 3.50083923 -0.01730347 C4.7592009 -0.01842133 6.01756256 -0.01953918 7.3140564 -0.02069092 C8.65966426 -0.02532276 10.00527081 -0.03034792 11.35087585 -0.03573608 C14.99735865 -0.04881979 18.64382306 -0.0552962 22.29032564 -0.05974674 C24.56834312 -0.06268171 26.84635561 -0.06678714 29.12437057 -0.07125092 C36.25187074 -0.08491019 43.37935947 -0.09458665 50.50687182 -0.09845281 C58.73573753 -0.1029412 66.96443778 -0.1205317 75.19325316 -0.1494534 C81.55598436 -0.17104155 87.91866888 -0.18115541 94.28143632 -0.18249393 C98.08157559 -0.18354327 101.88155896 -0.18947936 105.6816597 -0.20731354 C109.2521934 -0.22374661 112.82245314 -0.22597323 116.39301109 -0.21717453 C118.33067687 -0.21603275 120.26833338 -0.22978366 122.20594788 -0.243927 C123.35558517 -0.23835785 124.50522247 -0.2327887 125.68969727 -0.22705078 C127.19123572 -0.22925062 127.19123572 -0.22925062 128.72310829 -0.2314949 C131.21786499 0.14044189 131.21786499 0.14044189 133.039114 1.48445511 C134.87309304 4.06094927 134.60701989 6.33045172 134.61630249 9.45294189 C134.62016968 10.69302002 134.62403687 11.93309814 134.62802124 13.21075439 C134.6106189 15.15594971 134.6106189 15.15594971 134.59286499 17.14044189 C134.60446655 18.43723877 134.61606812 19.73403564 134.62802124 21.07012939 C134.62415405 22.31020752 134.62028687 23.55028564 134.61630249 24.82794189 C134.6129187 25.96618408 134.60953491 27.10442627 134.60604858 28.27716064 C134.21786499 31.14044189 134.21786499 31.14044189 133.05308056 32.79684925 C130.47062656 34.6875079 128.65067286 34.50963733 125.4662323 34.50120544 C124.26729843 34.50532944 123.06836456 34.50945343 121.83309937 34.51370239 C120.51608032 34.50291656 119.19906128 34.49213074 117.84213257 34.48101807 C116.44269326 34.48017194 115.04325262 34.48064665 113.64381409 34.48234558 C109.84234376 34.48320754 106.0411565 34.46554961 102.23975205 34.44462371 C98.26792724 34.42589015 94.29609619 34.4241091 90.32423401 34.42054749 C82.80191977 34.41121723 75.27973608 34.38659024 67.75747937 34.35649902 C59.19410868 34.32298546 50.63073181 34.30647667 42.06731188 34.29141271 C24.4507405 34.26004147 6.83434811 34.20501723 -10.78213501 34.14044189 C-10.78213501 23.25044189 -10.78213501 12.36044189 -10.78213501 1.14044189 C-6.89304958 0.36262481 -3.89107057 0.01155406 0 0 Z " fill="#30569F" transform="translate(377.7821350097656,212.85955810546875)"/>
<path d="M0 0 C1.72445595 -0.00835373 1.72445595 -0.00835373 3.48374939 -0.01687622 C5.37736458 -0.00305405 5.37736458 -0.00305405 7.30923462 0.01104736 C8.65130242 0.01025655 9.99337 0.00815946 11.33543396 0.00485229 C14.98227894 -0.00028659 18.62884224 0.01326457 22.27564192 0.0303793 C26.09165227 0.04540902 29.90765886 0.04424118 33.72369385 0.04504395 C40.13458058 0.04873813 46.54536036 0.06371056 52.95620728 0.08624268 C61.18044064 0.11508971 69.40458773 0.1254637 77.6288662 0.12992477 C84.70172951 0.13390909 91.77457414 0.14641237 98.84742403 0.16027164 C101.11929437 0.16436592 103.39116405 0.16729402 105.66303635 0.17006683 C109.23677549 0.17497157 112.81046279 0.18519474 116.38417625 0.19950485 C118.31906173 0.20616511 120.25396186 0.20802846 122.18885803 0.20974731 C123.34413498 0.21545746 124.49941193 0.2211676 125.68969727 0.22705078 C126.69147696 0.23002544 127.69325665 0.23300011 128.7253933 0.23606491 C131.47183228 0.36749268 131.47183228 0.36749268 136.47183228 1.36749268 C136.47183228 12.25749268 136.47183228 23.14749268 136.47183228 34.36749268 C118.00914094 34.43516989 99.54654978 34.49045121 81.08376598 34.52292919 C72.51149752 34.53840898 63.9393115 34.55951967 55.36709595 34.59381104 C47.89698922 34.62367944 40.42694218 34.64305959 32.95677739 34.64975816 C29.00005761 34.65367478 25.04350862 34.66290227 21.08684349 34.68468285 C17.36455197 34.70500771 13.64250203 34.71133467 9.92016029 34.70681572 C7.89894154 34.70803778 5.87774924 34.7242008 3.8565979 34.74075317 C2.65766403 34.73662918 1.45873016 34.73250519 0.22346497 34.72825623 C-1.34312221 34.73240429 -1.34312221 34.73240429 -2.94135761 34.73663616 C-5.52816772 34.36749268 -5.52816772 34.36749268 -7.36338329 33.02390003 C-9.17753474 30.44404601 -8.91734609 28.16959079 -8.92660522 25.05499268 C-8.93047241 23.81491455 -8.9343396 22.57483643 -8.93832397 21.29718018 C-8.92672241 20.0003833 -8.91512085 18.70358643 -8.90316772 17.36749268 C-8.91476929 16.0706958 -8.92637085 14.77389893 -8.93832397 13.43780518 C-8.93445679 12.19772705 -8.9305896 10.95764893 -8.92660522 9.67999268 C-8.92322144 8.54175049 -8.91983765 7.4035083 -8.91635132 6.23077393 C-8.52816772 3.36749268 -8.52816772 3.36749268 -7.34941673 1.71150589 C-4.8285007 -0.14883525 -3.1182217 -0.00456837 0 0 Z " fill="#30569F" transform="translate(8.528167724609375,212.63250732421875)"/>
<path d="M0 0 C18.57737367 9.16066512 36.99103183 18.66666811 55.1875 28.5625 C56.06486816 29.03848633 56.94223633 29.51447266 57.84619141 30.00488281 C71.45888609 37.45888609 71.45888609 37.45888609 75 41 C75.78333658 47.29866554 73.79625367 51.38500529 70.875 56.75 C70.49601562 57.50410156 70.11703125 58.25820312 69.7265625 59.03515625 C67.23066945 63.71911553 65.24423779 66.23538485 60 68 C56.19369829 67.7716219 53.29483804 66.9008681 50 65 C50 64.34 50 63.68 50 63 C49.12561279 62.72542969 48.25122559 62.45085937 47.3503418 62.16796875 C44.2110673 61.07358056 41.36241124 59.80294794 38.39453125 58.3125 C37.33758057 57.78342041 36.28062988 57.25434082 35.19165039 56.70922852 C34.07653076 56.14518311 32.96141113 55.5811377 31.8125 55 C30.65935303 54.41984131 29.50620605 53.83968262 28.31811523 53.24194336 C19.14363769 48.6117678 10.02244268 43.88859816 0.96240234 39.03857422 C-0.87279407 38.06732197 -2.71933046 37.12436309 -4.57421875 36.19140625 C-5.58097656 35.67449219 -6.58773438 35.15757813 -7.625 34.625 C-8.46289062 34.20476562 -9.30078125 33.78453125 -10.1640625 33.3515625 C-12 32 -12 32 -12.70922852 30.15039062 C-13.0560135 27.58575406 -12.6392174 26.5358157 -11.48828125 24.2421875 C-11.14418213 23.53835937 -10.80008301 22.83453125 -10.44555664 22.109375 C-10.07164795 21.37203125 -9.69773926 20.6346875 -9.3125 19.875 C-8.5654581 18.35266467 -7.82065382 16.8292292 -7.078125 15.3046875 C-6.71783203 14.56831055 -6.35753906 13.83193359 -5.98632812 13.07324219 C-4.3722606 9.6805042 -3.01501864 6.20130508 -1.69140625 2.6875 C-1 1 -1 1 0 0 Z " fill="#3A67C1" transform="translate(323,33)"/>
<path d="M0 0 C1.12474228 -0.01260864 2.24948456 -0.02521729 3.40830994 -0.03820801 C4.61878494 -0.03011108 5.82925995 -0.02201416 7.07641602 -0.01367188 C8.32407242 -0.01749878 9.57172882 -0.02132568 10.85719299 -0.02526855 C13.49634272 -0.02799121 16.13401119 -0.02262063 18.77294922 -0.00390625 C22.14700078 0.01886118 25.519778 0.00577359 28.89378262 -0.01819611 C32.12137201 -0.03617176 35.34880995 -0.02356424 38.57641602 -0.01367188 C39.78486679 -0.0217688 40.99331757 -0.02986572 42.23838806 -0.03820801 C43.3662825 -0.02559937 44.49417694 -0.01299072 45.65625 0 C46.645681 0.00318237 47.635112 0.00636475 48.65452576 0.00964355 C52.16494697 0.66080178 53.86427107 2.04167559 56.39282227 4.51757812 C57.02392578 7.203125 57.02392578 7.203125 57.02172852 10.23632812 C57.02366211 11.33332031 57.0255957 12.4303125 57.02758789 13.56054688 C57.00374023 14.70136719 56.97989258 15.8421875 56.95532227 17.01757812 C56.9662793 18.15839844 56.97723633 19.29921875 56.98852539 20.47460938 C56.91468792 28.8527005 56.91468792 28.8527005 54.71665955 31.65307617 C51.8221949 33.9754139 50.35566074 34.02356167 46.67797852 34.03515625 C44.95599243 34.05406921 44.95599243 34.05406921 43.19921875 34.07336426 C41.96373291 34.06526733 40.72824707 34.05717041 39.45532227 34.04882812 C38.18309814 34.05265503 36.91087402 34.05648193 35.60009766 34.0604248 C32.90968399 34.06314739 30.22072356 34.05777626 27.53051758 34.0390625 C24.08687481 34.01627174 20.644479 34.02939781 17.20088196 34.05335236 C13.91065099 34.07130365 10.62056952 34.05872533 7.33032227 34.04882812 C6.09483643 34.05692505 4.85935059 34.06502197 3.58642578 34.07336426 C2.43843506 34.06075562 1.29044434 34.04814697 0.10766602 34.03515625 C-0.90175049 34.03197388 -1.91116699 34.0287915 -2.95117188 34.0255127 C-6.3233522 33.38061692 -7.51276962 32.18751731 -9.60717773 29.51757812 C-10.12475586 26.83203125 -10.12475586 26.83203125 -10.13842773 23.79882812 C-10.14358398 22.70183594 -10.14874023 21.60484375 -10.15405273 20.47460938 C-10.13858398 19.33378906 -10.12311523 18.19296875 -10.10717773 17.01757812 C-10.12264648 15.87675781 -10.13811523 14.7359375 -10.15405273 13.56054688 C-10.14889648 12.46355469 -10.14374023 11.3665625 -10.13842773 10.23632812 C-10.13391602 9.23537109 -10.1294043 8.23441406 -10.12475586 7.203125 C-9.02473857 1.49548811 -5.41627277 0.01743474 0 0 Z " fill="#ECF5FE" transform="translate(410.607177734375,279.482421875)"/>
<path d="M0 0 C1.12474228 -0.01260864 2.24948456 -0.02521729 3.40830994 -0.03820801 C4.61878494 -0.03011108 5.82925995 -0.02201416 7.07641602 -0.01367188 C8.32407242 -0.01749878 9.57172882 -0.02132568 10.85719299 -0.02526855 C13.49634272 -0.02799121 16.13401119 -0.02262063 18.77294922 -0.00390625 C22.14700078 0.01886118 25.519778 0.00577359 28.89378262 -0.01819611 C32.12137201 -0.03617176 35.34880995 -0.02356424 38.57641602 -0.01367188 C39.78486679 -0.0217688 40.99331757 -0.02986572 42.23838806 -0.03820801 C43.3662825 -0.02559937 44.49417694 -0.01299072 45.65625 0 C46.645681 0.00318237 47.635112 0.00636475 48.65452576 0.00964355 C52.16494697 0.66080178 53.86427107 2.04167559 56.39282227 4.51757812 C57.02392578 7.203125 57.02392578 7.203125 57.02172852 10.23632812 C57.02366211 11.33332031 57.0255957 12.4303125 57.02758789 13.56054688 C57.00374023 14.70136719 56.97989258 15.8421875 56.95532227 17.01757812 C56.9662793 18.15839844 56.97723633 19.29921875 56.98852539 20.47460938 C56.91468792 28.8527005 56.91468792 28.8527005 54.71665955 31.65307617 C51.8221949 33.9754139 50.35566074 34.02356167 46.67797852 34.03515625 C44.95599243 34.05406921 44.95599243 34.05406921 43.19921875 34.07336426 C41.96373291 34.06526733 40.72824707 34.05717041 39.45532227 34.04882812 C38.18309814 34.05265503 36.91087402 34.05648193 35.60009766 34.0604248 C32.90968399 34.06314739 30.22072356 34.05777626 27.53051758 34.0390625 C24.08687481 34.01627174 20.644479 34.02939781 17.20088196 34.05335236 C13.91065099 34.07130365 10.62056952 34.05872533 7.33032227 34.04882812 C6.09483643 34.05692505 4.85935059 34.06502197 3.58642578 34.07336426 C2.43843506 34.06075562 1.29044434 34.04814697 0.10766602 34.03515625 C-0.90175049 34.03197388 -1.91116699 34.0287915 -2.95117188 34.0255127 C-6.3233522 33.38061692 -7.51276962 32.18751731 -9.60717773 29.51757812 C-10.12475586 26.83203125 -10.12475586 26.83203125 -10.13842773 23.79882812 C-10.14358398 22.70183594 -10.14874023 21.60484375 -10.15405273 20.47460938 C-10.13858398 19.33378906 -10.12311523 18.19296875 -10.10717773 17.01757812 C-10.12264648 15.87675781 -10.13811523 14.7359375 -10.15405273 13.56054688 C-10.14889648 12.46355469 -10.14374023 11.3665625 -10.13842773 10.23632812 C-10.13391602 9.23537109 -10.1294043 8.23441406 -10.12475586 7.203125 C-9.02473857 1.49548811 -5.41627277 0.01743474 0 0 Z " fill="#ECF5FE" transform="translate(54.607177734375,279.482421875)"/>
<path d="M0 0 C1.14799072 -0.01260864 2.29598145 -0.02521729 3.47875977 -0.03820801 C4.71424561 -0.03011108 5.94973145 -0.02201416 7.22265625 -0.01367188 C8.49488037 -0.01749878 9.76710449 -0.02132568 11.07788086 -0.02526855 C13.76829452 -0.02799114 16.45725496 -0.02262001 19.14746094 -0.00390625 C22.5911037 0.01888451 26.03349952 0.00575844 29.47709656 -0.01819611 C32.76732753 -0.0361474 36.057409 -0.02356908 39.34765625 -0.01367188 C40.58314209 -0.0217688 41.81862793 -0.02986572 43.09155273 -0.03820801 C44.81353882 -0.01929504 44.81353882 -0.01929504 46.5703125 0 C47.579729 0.00318237 48.58914551 0.00636475 49.62915039 0.00964355 C52.99908181 0.65410925 54.18780617 1.85389064 56.28515625 4.51757812 C57.10053594 8.45789583 56.88807098 12.43975589 56.84765625 16.45507812 C56.88342773 18.08219727 56.88342773 18.08219727 56.91992188 19.7421875 C56.91798828 20.79083984 56.91605469 21.83949219 56.9140625 22.91992188 C56.9147876 23.87374756 56.9155127 24.82757324 56.91625977 25.81030273 C55.96332208 29.89816578 54.7871751 31.1529581 51.28515625 33.51757812 C47.09865905 34.2618833 42.9656637 34.21792817 38.72265625 34.18164062 C37.49861084 34.18642426 36.27456543 34.19120789 35.01342773 34.19613647 C32.42788405 34.1995359 29.84229741 34.19033076 27.25683594 34.16943359 C23.29915529 34.14267278 19.34431117 34.16918437 15.38671875 34.20117188 C12.87369166 34.19786779 10.36066633 34.19146159 7.84765625 34.18164062 C6.66421631 34.19176178 5.48077637 34.20188293 4.26147461 34.21231079 C-3.85749878 34.09647138 -3.85749878 34.09647138 -7.96069336 31.32592773 C-9.9067631 28.21032018 -10.34652092 26.5649107 -10.34375 22.91992188 C-10.34568359 21.87126953 -10.34761719 20.82261719 -10.34960938 19.7421875 C-10.32576172 18.65744141 -10.30191406 17.57269531 -10.27734375 16.45507812 C-10.28830078 15.36646484 -10.29925781 14.27785156 -10.31054688 13.15625 C-10.23692582 5.18063552 -10.23692582 5.18063552 -8.03868103 2.3888092 C-5.14424106 0.05810986 -3.68238365 0.0116094 0 0 Z " fill="#ECF5FE" transform="translate(54.71484375,346.482421875)"/>
<path d="M0 0 C1.14799072 -0.01260864 2.29598145 -0.02521729 3.47875977 -0.03820801 C4.71424561 -0.03011108 5.94973145 -0.02201416 7.22265625 -0.01367188 C8.49488037 -0.01749878 9.76710449 -0.02132568 11.07788086 -0.02526855 C13.76829452 -0.02799114 16.45725496 -0.02262001 19.14746094 -0.00390625 C22.5911037 0.01888451 26.03349952 0.00575844 29.47709656 -0.01819611 C32.76732753 -0.0361474 36.057409 -0.02356908 39.34765625 -0.01367188 C40.58314209 -0.0217688 41.81862793 -0.02986572 43.09155273 -0.03820801 C44.81353882 -0.01929504 44.81353882 -0.01929504 46.5703125 0 C47.579729 0.00318237 48.58914551 0.00636475 49.62915039 0.00964355 C52.99933029 0.65415677 54.18962451 1.85180522 56.28515625 4.51757812 C56.78686523 7.11132812 56.78686523 7.11132812 56.78125 10.01757812 C56.78189453 11.06945312 56.78253906 12.12132812 56.78320312 13.20507812 C56.76322266 14.29820312 56.74324219 15.39132812 56.72265625 16.51757812 C56.72974609 17.61070312 56.73683594 18.70382812 56.74414062 19.83007812 C56.6709943 29.01275532 56.6709943 29.01275532 53.28515625 32.51757812 C50.25627145 33.52720639 48.14614867 33.66776116 44.97509766 33.71044922 C43.3479332 33.73454361 43.3479332 33.73454361 41.68789673 33.75912476 C36.73692475 33.80358628 31.78608573 33.84462121 26.83496094 33.86767578 C24.22191474 33.8842552 21.60891425 33.9115708 18.99609375 33.94970703 C15.23022924 34.00438814 11.46542642 34.02633568 7.69921875 34.04101562 C6.53137848 34.063685 5.36353821 34.08635437 4.16030884 34.10971069 C-3.86797082 34.08873984 -3.86797082 34.08873984 -7.95141602 31.3347168 C-9.90528074 28.21334824 -10.3465271 26.57304748 -10.34375 22.91992188 C-10.34568359 21.87126953 -10.34761719 20.82261719 -10.34960938 19.7421875 C-10.32576172 18.65744141 -10.30191406 17.57269531 -10.27734375 16.45507812 C-10.28830078 15.36646484 -10.29925781 14.27785156 -10.31054688 13.15625 C-10.23692582 5.18063552 -10.23692582 5.18063552 -8.03868103 2.3888092 C-5.14424106 0.05810986 -3.68238365 0.0116094 0 0 Z " fill="#ECF5FE" transform="translate(410.71484375,346.482421875)"/>
<path d="M0 0 C1.51672302 -0.01418472 1.51672302 -0.01418472 3.06408691 -0.02865601 C4.7000885 -0.01954697 4.7000885 -0.01954697 6.36914062 -0.01025391 C7.48977905 -0.01312408 8.61041748 -0.01599426 9.76501465 -0.01895142 C12.13550318 -0.02099387 14.5060085 -0.0154514 16.87646484 -0.00292969 C20.51112446 0.0131206 24.14467197 -0.00277309 27.77929688 -0.02197266 C30.08008059 -0.01999026 32.38086361 -0.01614665 34.68164062 -0.01025391 C35.77230835 -0.0163266 36.86297607 -0.02239929 37.98669434 -0.02865601 C38.99784302 -0.01919952 40.0089917 -0.00974304 41.05078125 0 C42.38622986 0.00358017 42.38622986 0.00358017 43.74865723 0.00723267 C46.50604098 0.46860768 47.40049568 1.13969837 49.02539062 3.38818359 C49.3659668 6.57446289 49.3659668 6.57446289 49.31835938 10.46240234 C49.30712036 12.33931763 49.30712036 12.33931763 49.2956543 14.25415039 C49.26834229 15.84525635 49.24103027 17.4363623 49.21289062 19.07568359 C49.15101563 24.12880859 49.08914063 29.18193359 49.02539062 34.38818359 C30.21539062 34.38818359 11.40539062 34.38818359 -7.97460938 34.38818359 C-8.03648437 29.33505859 -8.09835937 24.28193359 -8.16210938 19.07568359 C-8.18942139 17.48457764 -8.2167334 15.89347168 -8.24487305 14.25415039 C-8.25236572 13.00287354 -8.2598584 11.75159668 -8.26757812 10.46240234 C-8.28328857 9.17938232 -8.29899902 7.8963623 -8.31518555 6.57446289 C-7.97460938 3.38818359 -7.97460938 3.38818359 -6.76423645 1.71330261 C-4.39722941 -0.03933406 -2.93108702 0.00785788 0 0 Z " fill="#D9E8FB" transform="translate(325.974609375,411.61181640625)"/>
<path d="M0 0 C1.55170898 -0.00945648 1.55170898 -0.00945648 3.13476562 -0.019104 C4.81602539 -0.01303131 4.81602539 -0.01303131 6.53125 -0.00683594 C7.67787109 -0.00874939 8.82449219 -0.01066284 10.00585938 -0.01263428 C12.43359598 -0.01399715 14.86133984 -0.01029361 17.2890625 -0.00195312 C21.01579073 0.00874469 24.74203686 -0.00184525 28.46875 -0.01464844 C30.82291774 -0.01332686 33.17708517 -0.01076451 35.53125 -0.00683594 C36.65208984 -0.0108844 37.77292969 -0.01493286 38.92773438 -0.019104 C39.96220703 -0.01279968 40.99667969 -0.00649536 42.0625 0 C43.43245117 0.00238678 43.43245117 0.00238678 44.83007812 0.00482178 C47.03125 0.25878906 47.03125 0.25878906 49.03125 2.25878906 C49.20605681 4.69518245 49.26316424 7.01907743 49.2265625 9.45410156 C49.22156738 10.74848145 49.21657227 12.04286133 49.21142578 13.37646484 C49.19321777 15.02888184 49.17500977 16.68129883 49.15625 18.38378906 C49.115 23.62253906 49.07375 28.86128906 49.03125 34.25878906 C30.55125 34.25878906 12.07125 34.25878906 -6.96875 34.25878906 C-7.01 29.02003906 -7.05125 23.78128906 -7.09375 18.38378906 C-7.11195801 16.73137207 -7.13016602 15.07895508 -7.14892578 13.37646484 C-7.1539209 12.08208496 -7.15891602 10.78770508 -7.1640625 9.45410156 C-7.17429443 8.773396 -7.18452637 8.09269043 -7.19506836 7.39135742 C-7.19570569 5.67883899 -7.09130506 3.9669167 -6.96875 2.25878906 C-4.42601278 -0.28394815 -3.52435561 0.00614026 0 0 Z " fill="#DAE8FB" transform="translate(234.96875,411.7412109375)"/>
<path d="M0 0 C18.81 0 37.62 0 57 0 C57.020625 5.259375 57.04125 10.51875 57.0625 15.9375 C57.071604 17.599021 57.08070801 19.26054199 57.09008789 20.97241211 C57.09258545 22.26928955 57.09508301 23.56616699 57.09765625 24.90234375 C57.10277222 25.58816528 57.10788818 26.27398682 57.11315918 26.98059082 C57.11347054 28.65415231 57.06222837 30.3275958 57 32 C55.32264516 33.67735484 53.26260311 33.13603961 50.96118164 33.14526367 C49.88659195 33.15164352 48.81200226 33.15802338 47.70484924 33.16459656 C45.95022621 33.16626579 45.95022621 33.16626579 44.16015625 33.16796875 C42.96772812 33.17129715 41.77529999 33.17462555 40.54673767 33.17805481 C38.01887397 33.18312916 35.49100355 33.18546298 32.96313477 33.18530273 C29.08273346 33.1874886 25.20261654 33.20563757 21.32226562 33.22460938 C18.87239681 33.22754323 16.42252664 33.22952808 13.97265625 33.23046875 C12.22106956 33.24124702 12.22106956 33.24124702 10.43409729 33.25224304 C8.81748451 33.2476281 8.81748451 33.2476281 7.16821289 33.24291992 C5.74044273 33.24505745 5.74044273 33.24505745 4.28382874 33.24723816 C2 33 2 33 0 31 C-0.22705078 27.92724609 -0.22705078 27.92724609 -0.1953125 24.0234375 C-0.19031738 22.76966309 -0.18532227 21.51588867 -0.18017578 20.22412109 C-0.16196777 18.62391113 -0.14375977 17.02370117 -0.125 15.375 C-0.08375 10.30125 -0.0425 5.2275 0 0 Z " fill="#DCEAFD" transform="translate(318,180)"/>
<path d="M0 0 C18.81 0 37.62 0 57 0 C57.04125 5.07375 57.0825 10.1475 57.125 15.375 C57.14320801 16.97520996 57.16141602 18.57541992 57.18017578 20.22412109 C57.1851709 21.47789551 57.19016602 22.73166992 57.1953125 24.0234375 C57.21102295 25.95582275 57.21102295 25.95582275 57.22705078 27.92724609 C57 31 57 31 55 33 C52.71617126 33.24723816 52.71617126 33.24723816 49.83178711 33.24291992 C48.75404526 33.24599655 47.67630341 33.24907318 46.56590271 33.25224304 C45.39817825 33.24505753 44.2304538 33.23787201 43.02734375 33.23046875 C41.83395889 33.23001053 40.64057404 33.22955231 39.411026 33.2290802 C36.88492846 33.22605506 34.35883283 33.218161 31.83276367 33.20581055 C27.95029142 33.18756013 24.06805752 33.18530076 20.18554688 33.18554688 C17.73697709 33.1806317 15.28840893 33.17480338 12.83984375 33.16796875 C11.67009506 33.16685593 10.50034637 33.1657431 9.29515076 33.16459656 C7.68326622 33.15502678 7.68326622 33.15502678 6.03881836 33.14526367 C4.61224159 33.13954597 4.61224159 33.13954597 3.15684509 33.13371277 C1 33 1 33 0 32 C-0.08838648 29.62458949 -0.11537523 27.2776642 -0.09765625 24.90234375 C-0.09515869 23.60546631 -0.09266113 22.30858887 -0.09008789 20.97241211 C-0.08098389 19.31089111 -0.07187988 17.64937012 -0.0625 15.9375 C-0.041875 10.678125 -0.02125 5.41875 0 0 Z " fill="#DCEAFD" transform="translate(137,180)"/>
<path d="M0 0 C1.51672302 -0.01418472 1.51672302 -0.01418472 3.06408691 -0.02865601 C4.7000885 -0.01954697 4.7000885 -0.01954697 6.36914062 -0.01025391 C7.48977905 -0.01312408 8.61041748 -0.01599426 9.76501465 -0.01895142 C12.13550318 -0.02099387 14.5060085 -0.0154514 16.87646484 -0.00292969 C20.51112446 0.0131206 24.14467197 -0.00277309 27.77929688 -0.02197266 C30.08008059 -0.01999026 32.38086361 -0.01614665 34.68164062 -0.01025391 C35.77230835 -0.0163266 36.86297607 -0.02239929 37.98669434 -0.02865601 C38.99784302 -0.01919952 40.0089917 -0.00974304 41.05078125 0 C42.38622986 0.00358017 42.38622986 0.00358017 43.74865723 0.00723267 C46.50401895 0.46826934 47.39844566 1.14457351 49.02539062 3.38818359 C49.3659668 6.48266602 49.3659668 6.48266602 49.31835938 10.24365234 C49.30712036 12.05965942 49.30712036 12.05965942 49.2956543 13.91235352 C49.26834229 15.45125244 49.24103027 16.99015137 49.21289062 18.57568359 C49.15101563 23.46380859 49.08914062 28.35193359 49.02539062 33.38818359 C30.21539062 33.38818359 11.40539062 33.38818359 -7.97460938 33.38818359 C-8.03648437 28.50005859 -8.09835938 23.61193359 -8.16210938 18.57568359 C-8.20307739 16.26733521 -8.20307739 16.26733521 -8.24487305 13.91235352 C-8.25236572 12.70168213 -8.2598584 11.49101074 -8.26757812 10.24365234 C-8.28328857 9.00252686 -8.29899902 7.76140137 -8.31518555 6.48266602 C-7.97460938 3.38818359 -7.97460938 3.38818359 -6.76423645 1.71903992 C-4.39743415 -0.04103281 -2.93504938 0.0078685 0 0 Z " fill="#DBEAFC" transform="translate(144.974609375,411.61181640625)"/>
<path d="M0 0 C18.48 0 36.96 0 56 0 C56.04125 5.07375 56.0825 10.1475 56.125 15.375 C56.14320801 16.97520996 56.16141602 18.57541992 56.18017578 20.22412109 C56.1851709 21.47789551 56.19016602 22.73166992 56.1953125 24.0234375 C56.21102295 25.95582275 56.21102295 25.95582275 56.22705078 27.92724609 C56 31 56 31 54 33 C51.79882812 33.25396729 51.79882812 33.25396729 49.03125 33.25878906 C47.99677734 33.26509338 46.96230469 33.27139771 45.89648438 33.27789307 C44.21522461 33.27182037 44.21522461 33.27182037 42.5 33.265625 C40.78006836 33.26849518 40.78006836 33.26849518 39.02539062 33.27142334 C36.59765402 33.27278622 34.16991016 33.26908267 31.7421875 33.26074219 C28.01545927 33.25004438 24.28921314 33.26063431 20.5625 33.2734375 C18.20833226 33.27211592 15.85416483 33.26955357 13.5 33.265625 C12.37916016 33.26967346 11.25832031 33.27372192 10.10351562 33.27789307 C8.55180664 33.26843658 8.55180664 33.26843658 6.96875 33.25878906 C6.05544922 33.25719788 5.14214844 33.25560669 4.20117188 33.25396729 C2 33 2 33 0 31 C-0.22705078 27.92724609 -0.22705078 27.92724609 -0.1953125 24.0234375 C-0.19031738 22.76966309 -0.18532227 21.51588867 -0.18017578 20.22412109 C-0.16196777 18.62391113 -0.14375977 17.02370117 -0.125 15.375 C-0.08375 10.30125 -0.0425 5.2275 0 0 Z " fill="#DCEAFD" transform="translate(228,180)"/>
<path d="M0 0 C4.58669856 2.65990921 7.32094167 6.07737341 9.9375 10.6875 C11.5657871 17.05262231 11.27055298 22.73115538 8.03125 28.515625 C4.67799774 32.94936965 0.14599091 36.38794662 -5.375 37.375 C-12.44181812 37.83839791 -16.97174023 36.51193055 -23.0625 32.6875 C-27.28075276 28.46924724 -29.57428357 23.87895907 -29.875 17.875 C-29.57065264 12.17094137 -27.60359965 7.70489963 -23.65625 3.578125 C-16.96470286 -2.37621779 -8.36552631 -3.84017494 0 0 Z " fill="#81B6FC" transform="translate(265.375,74.625)"/>
<path d="M0 0 C1.18722656 -0.03738281 2.37445313 -0.07476562 3.59765625 -0.11328125 C7.64982728 0.40331131 9.77493432 1.77962793 12.9375 4.3125 C14.32058781 7.07867563 14.04960196 9.32268 14.03515625 12.4140625 C14.03265869 13.50541504 14.03016113 14.59676758 14.02758789 15.72119141 C14.01848389 17.11257324 14.00937988 18.50395508 14 19.9375 C13.979375 24.35125 13.95875 28.765 13.9375 33.3125 C3.7075 33.3125 -6.5225 33.3125 -17.0625 33.3125 C-17.25 20.125 -17.25 20.125 -17.27026367 15.99145508 C-17.17903738 8.84772786 -17.17903738 8.84772786 -20.61328125 2.94921875 C-21.42152344 2.40910156 -22.22976563 1.86898438 -23.0625 1.3125 C-15.38419078 0.70259175 -7.70031298 0.20625838 0 0 Z " fill="#26447E" transform="translate(383.0625,444.6875)"/>
<path d="M0 0 C0.84022705 0.00249756 1.6804541 0.00499512 2.54614258 0.00756836 C3.59697021 0.01667236 4.64779785 0.02577637 5.73046875 0.03515625 C10.77328125 0.06609375 10.77328125 0.06609375 15.91796875 0.09765625 C15.91796875 11.31765625 15.91796875 22.53765625 15.91796875 34.09765625 C7.33796875 34.09765625 -1.24203125 34.09765625 -10.08203125 34.09765625 C-10.08203125 23.20765625 -10.08203125 12.31765625 -10.08203125 1.09765625 C-6.38668321 0.35858664 -3.66340992 -0.02247491 0 0 Z " fill="#26447E" transform="translate(377.08203125,212.90234375)"/>
<path d="M0 0 C3.361875 -0.020625 6.72375 -0.04125 10.1875 -0.0625 C11.23832764 -0.071604 12.28915527 -0.08070801 13.37182617 -0.09008789 C14.21205322 -0.09258545 15.05228027 -0.09508301 15.91796875 -0.09765625 C17.19837036 -0.10551147 17.19837036 -0.10551147 18.50463867 -0.11352539 C21 0 21 0 26 1 C26 11.89 26 22.78 26 34 C17.42 34 8.84 34 0 34 C0 22.78 0 11.56 0 0 Z " fill="#26447E" transform="translate(119,213)"/>
</svg>
