<?xml version="1.0" encoding="UTF-8"?>
<svg version="1.1" xmlns="http://www.w3.org/2000/svg" width="512" height="512">
<path d="M0 0 C1.01790619 0.00215515 2.03581238 0.0043103 3.08456421 0.00653076 C17.69363523 0.05620146 32.02575853 0.30709809 46.375 3.3125 C47.34985352 3.51117676 48.32470703 3.70985352 49.32910156 3.91455078 C97.7109774 14.03517194 141.69928269 35.9516877 177.375 70.3125 C178.3640332 71.26068604 178.3640332 71.26068604 179.37304688 72.22802734 C188.86130305 81.37247479 197.6012044 90.66984009 205.375 101.3125 C206.23306152 102.46355017 207.09113451 103.61459177 207.94921875 104.765625 C213.98736829 112.95680614 219.34595521 121.47054105 224.375 130.3125 C224.73948242 130.94430176 225.10396484 131.57610352 225.47949219 132.22705078 C247.08534998 169.97532572 256.85198095 212.74189997 256.6875 255.9375 C256.68534485 256.95540619 256.6831897 257.97331238 256.68096924 259.02206421 C256.63129854 273.63113523 256.38040191 287.96325853 253.375 302.3125 C253.07698486 303.77478027 253.07698486 303.77478027 252.77294922 305.26660156 C242.65232806 353.6484774 220.7358123 397.63678269 186.375 433.3125 C185.74287598 433.97185547 185.11075195 434.63121094 184.45947266 435.31054688 C175.31502521 444.79880305 166.01765991 453.5387044 155.375 461.3125 C154.22394983 462.17056152 153.07290823 463.02863451 151.921875 463.88671875 C143.73224019 469.92427396 135.22961724 475.30707302 126.375 480.3125 C125.66778809 480.7146875 124.96057617 481.116875 124.23193359 481.53125 C101.09654164 494.5566741 75.92537591 503.30551461 49.9375 508.625 C49.21860596 508.77235596 48.49971191 508.91971191 47.7590332 509.0715332 C33.08339502 511.86090125 18.55831162 512.66142619 3.64770508 512.62817383 C0.70811513 512.6250221 -2.2304558 512.64854926 -5.16992188 512.67382812 C-18.54306192 512.71848737 -31.43916711 511.51301542 -44.625 509.3125 C-46.33055054 509.03031616 -46.33055054 509.03031616 -48.07055664 508.74243164 C-91.33802759 500.97044532 -132.38793216 480.98345309 -165.625 452.3125 C-166.37007813 451.67828125 -167.11515625 451.0440625 -167.8828125 450.390625 C-181.38779833 438.57948485 -194.05918743 425.82889772 -204.625 411.3125 C-205.48149066 410.16255169 -206.33826433 409.01281411 -207.1953125 407.86328125 C-213.23534209 399.67315742 -218.61867614 391.16870382 -223.625 382.3125 C-224.0271875 381.60528809 -224.429375 380.89807617 -224.84375 380.16943359 C-237.8691741 357.03404164 -246.61801461 331.86287591 -251.9375 305.875 C-252.08485596 305.15610596 -252.23221191 304.43721191 -252.3840332 303.6965332 C-255.35789088 288.05024391 -255.99800362 272.57681954 -255.9375 256.6875 C-255.93534485 255.66959381 -255.9331897 254.65168762 -255.93096924 253.60293579 C-255.88129854 238.99386477 -255.63040191 224.66174147 -252.625 210.3125 C-252.42632324 209.33764648 -252.22764648 208.36279297 -252.02294922 207.35839844 C-241.90232806 158.9765226 -219.9858123 114.98821731 -185.625 79.3125 C-184.99287598 78.65314453 -184.36075195 77.99378906 -183.70947266 77.31445312 C-174.56502521 67.82619695 -165.26765991 59.0862956 -154.625 51.3125 C-153.47394983 50.45443848 -152.32290823 49.59636549 -151.171875 48.73828125 C-142.98224019 42.70072604 -134.47961724 37.31792698 -125.625 32.3125 C-124.91778809 31.9103125 -124.21057617 31.508125 -123.48193359 31.09375 C-100.34654164 18.0683259 -75.17537591 9.31948539 -49.1875 4 C-48.46860596 3.85264404 -47.74971191 3.70528809 -47.0090332 3.5534668 C-31.36274391 0.57960912 -15.88931954 -0.06050362 0 0 Z " fill="#0077CC" transform="translate(255.625,-0.3125)"/>
<path d="M0 0 C4.26168675 2.30728264 8.34604152 4.84303993 12.4375 7.4375 C38.68177799 23.75066924 71.71840008 29.12020745 101.87890625 22.09082031 C118.94354072 17.7236021 133.834985 11.21398454 148.12890625 0.91015625 C153.65696783 -2.87661838 159.67313156 -3.38215406 166.1875 -2.5 C189.61818194 4.39817774 208.86064358 34.26937283 220.02270508 54.25561523 C228.29982503 69.75122004 237.39506293 89.11827775 233.671875 106.97265625 C231.15819759 113.76204964 225.72595834 118.83845313 220.74365234 123.90869141 C219.20023413 125.48697818 217.68694486 127.09008667 216.17578125 128.69921875 C204.47931799 140.97447607 190.95979046 151.1864464 176.1875 159.5 C175.49462891 159.8928418 174.80175781 160.28568359 174.08789062 160.69042969 C162.50091961 167.2049713 150.79365167 172.30977852 138.1875 176.5 C137.47432617 176.74089355 136.76115234 176.98178711 136.02636719 177.22998047 C126.88065184 180.29914111 117.69430586 182.79855823 108.1875 184.5 C107.09695313 184.70625 106.00640625 184.9125 104.8828125 185.125 C54.88565619 193.00201369 0.22482294 179.85203543 -40.69091797 150.13574219 C-51.19088344 142.30125815 -60.80349942 133.56676586 -70.125 124.375 C-70.71216797 123.80096436 -71.29933594 123.22692871 -71.90429688 122.63549805 C-79.06363216 115.48945867 -83.97221975 108.92277947 -84.375 98.4375 C-84.12327134 82.54503035 -76.30237787 67.19254693 -68.8125 53.5 C-68.17920907 52.29842912 -67.54639027 51.09660927 -66.9140625 49.89453125 C-55.95391415 29.48568799 -26.74027963 -13.08642332 0 0 Z " fill="#FEFEFE" transform="translate(180.8125,269.5)"/>
<path d="M0 0 C18.64859702 16.00169938 29.83400501 38.41051025 32.11132812 62.77880859 C33.54906033 86.20565393 26.77718948 109.68472515 11.6796875 127.8984375 C9.46188798 130.40191967 7.18503253 132.83174973 4.875 135.25 C4.33488281 135.86488281 3.79476562 136.47976562 3.23828125 137.11328125 C-10.75126912 152.44188179 -34.55804877 161.56524023 -54.88671875 162.5078125 C-80.49430022 163.27437866 -104.01728598 155.1288272 -122.85546875 137.41796875 C-123.60441406 136.70253906 -124.35335937 135.98710937 -125.125 135.25 C-125.73988281 134.70988281 -126.35476562 134.16976562 -126.98828125 133.61328125 C-142.33335018 119.6087011 -151.27341885 96.14319485 -152.5390625 75.765625 C-153.44635775 51.42706997 -146.32990804 30.2321273 -131.125 11.25 C-130.64675781 10.61964844 -130.16851562 9.98929688 -129.67578125 9.33984375 C-116.56782155 -7.14839209 -94.20358069 -18.89153786 -73.37451172 -21.53466797 C-45.86887266 -24.16761497 -21.64595198 -17.2512505 0 0 Z " fill="#FEFEFE" transform="translate(316.125,99.75)"/>
</svg>
